<?xml version="1.0" encoding="utf-8"?>
<!-- Generator: Adobe Illustrator 22.0.0, SVG Export Plug-In . SVG Version: 6.00 Build 0)  -->
<!DOCTYPE svg PUBLIC "-//W3C//DTD SVG 1.1//EN" "http://www.w3.org/Graphics/SVG/1.1/DTD/svg11.dtd">
<svg version="1.1" id="Слой_1" xmlns="http://www.w3.org/2000/svg" xmlns:xlink="http://www.w3.org/1999/xlink" x="0px" y="0px"
	 viewBox="0 0 476 551" style="enable-background:new 0 0 476 551;" xml:space="preserve">
<style type="text/css">
	.st0{clip-path:url(#SVGID_2_);fill:url(#SVGID_3_);}
	.st1{opacity:0.9;clip-path:url(#SVGID_5_);}
	.st2{fill:#FF7D00;}
	.st3{opacity:0.5;}
	.st4{fill:#FFFFFF;}
</style>
<g>
	<g>
		<defs>
			<polygon id="SVGID_1_" points="476.9,413.4 476.9,138.1 238.5,0.5 0.1,138.1 0.1,413.4 238.5,551 			"/>
		</defs>
		<clipPath id="SVGID_2_">
			<use xlink:href="#SVGID_1_"  style="overflow:visible;"/>
		</clipPath>
		
			<linearGradient id="SVGID_3_" gradientUnits="userSpaceOnUse" x1="1.773" y1="411.1111" x2="1348.9077" y2="-356.9657" gradientTransform="matrix(1 0 0 -1 0 551.8898)">
			<stop  offset="0" style="stop-color:#FFCD44"/>
			<stop  offset="3.262098e-03" style="stop-color:#FFCC43"/>
			<stop  offset="9.008178e-02" style="stop-color:#F9B12B"/>
			<stop  offset="0.1847" style="stop-color:#F59D18"/>
			<stop  offset="0.2913" style="stop-color:#F18E0A"/>
			<stop  offset="0.4187" style="stop-color:#F08602"/>
			<stop  offset="0.6213" style="stop-color:#EF8300"/>
			<stop  offset="1" style="stop-color:#EC6D05"/>
		</linearGradient>
		<polygon class="st0" points="476.9,413.4 476.9,138.1 238.5,0.5 0.1,138.1 0.1,413.4 238.5,551 		"/>
	</g>
	<g>
		<defs>
			<polygon id="SVGID_4_" points="476.9,413.4 476.9,138.1 238.5,0.5 0.1,138.1 0.1,413.4 238.5,551 			"/>
		</defs>
		<clipPath id="SVGID_5_">
			<use xlink:href="#SVGID_4_"  style="overflow:visible;"/>
		</clipPath>
		<g class="st1">
			<g>
				<path class="st2" d="M1229.7,1201.7l-1.4-0.8l-137.7-79.5V960.8l139.1-80.3l1.4,0.8l137.7,79.5v160.6L1229.7,1201.7z
					 M1096.1,1118.2l133.6,77.1l133.6-77.1V963.9l-133.6-77.1l-133.6,77.1V1118.2z"/>
			</g>
			<g>
				<path class="st2" d="M1025.1,1240.9l-70.9-40.9v-81.9l70.9-40.9l70.9,40.9v81.9L1025.1,1240.9z M959.7,1196.8l65.4,37.8
					l65.4-37.8v-75.6l-65.4-37.8l-65.4,37.8L959.7,1196.8L959.7,1196.8z"/>
			</g>
			<g>
				<path class="st2" d="M1093.3,1359l-70.9-40.9v-81.9l70.9-40.9l70.9,40.9v81.9L1093.3,1359z M1027.9,1314.9l65.4,37.8l65.4-37.8
					v-75.6l-65.4-37.8l-65.4,37.8V1314.9z"/>
			</g>
			<g>
				<path class="st2" d="M616,1240.9l-70.9-40.9v-81.9l70.9-40.9l70.9,40.9v81.9L616,1240.9z M550.5,1196.8l65.4,37.8l65.4-37.8
					v-75.6l-65.4-37.8l-65.4,37.8V1196.8z"/>
			</g>
			<g>
				<path class="st2" d="M820.5,1122.8l-70.9-40.9V1000l70.9-40.9l70.9,40.9v81.9L820.5,1122.8z M755.1,1078.7l65.4,37.8l65.4-37.8
					v-75.6l-65.4-37.8l-65.4,37.8V1078.7z"/>
			</g>
			<g>
				<path class="st2" d="M1229.6,1359.1l-1.4-0.8l-137.7-79.5v-160.6l139.1-80.3l1.4,0.8l137.7,79.5v160.6L1229.6,1359.1z
					 M1096,1275.7l133.6,77.1l133.6-77.1v-154.3l-133.6-77.1l-133.6,77.1V1275.7z"/>
			</g>
			<g>
				<path class="st2" d="M684.1,1122.6l-1.4-0.8L545,1042.3V881.7l139.1-80.3l1.4,0.8l137.7,79.5v160.6L684.1,1122.6z M550.5,1039.2
					l133.6,77.1l133.6-77.1V884.9l-133.6-77.1l-133.6,77.1V1039.2z"/>
			</g>
			<g>
				<path class="st2" d="M684.1,1280.2l-1.4-0.8l-205.9-118.9V921.3l207.3-119.7l1.4,0.8l205.9,118.9v239.3l-1.4,0.8L684.1,1280.2z
					 M482.4,1157.4l201.8,116.5L886,1157.4v-233L684.1,807.9L482.4,924.4V1157.4z"/>
			</g>
			<g>
				<path class="st2" d="M1025.2,1240.9l-1.4-0.8l-137.7-79.5V1000l139.1-80.3l1.4,0.8l137.7,79.5v160.6L1025.2,1240.9z
					 M891.5,1157.4l133.6,77.1l133.6-77.1v-154.3L1025.2,926l-133.6,77.1L891.5,1157.4L891.5,1157.4z"/>
			</g>
			<g>
				<path class="st2" d="M1025.1,1319.9l-71-41v-82l71-41l71,41v82L1025.1,1319.9z M959.6,1275.7l65.6,37.9l65.6-37.9V1200
					l-65.6-37.9l-65.6,37.9V1275.7z"/>
			</g>
			<g>
				<path class="st2" d="M547.8,1201.7l-71-41v-82l71-41l71,41v82L547.8,1201.7z M482.2,1157.5l65.6,37.9l65.6-37.9v-75.7
					l-65.6-37.9l-65.6,37.9L482.2,1157.5L482.2,1157.5z"/>
			</g>
			<g>
				<path class="st2" d="M820.5,1044.1l-71-41v-82l71-41l71,41v82L820.5,1044.1z M754.9,999.9l65.6,37.9l65.6-37.9v-75.7l-65.6-37.9
					l-65.6,37.9V999.9z"/>
			</g>
			<g>
				<path class="st2" d="M1093.3,1358.8l-70.9-40.9V1236l70.9-40.9l70.9,40.9v81.9L1093.3,1358.8z M1027.9,1314.7l65.4,37.8
					l65.4-37.8v-75.6l-65.4-37.8l-65.4,37.8V1314.7z"/>
			</g>
			<g>
				<path class="st2" d="M411.5,729.1l-70.9-40.9v-81.9l70.9-40.9l70.9,40.9v81.9L411.5,729.1z M346,685l65.4,37.8l65.4-37.8v-75.6
					l-65.4-37.8L346,609.5V685z"/>
			</g>
			<g>
				<path class="st2" d="M752.3,1319.5l-1.4-0.8l-137.7-79.5v-160.6l139.1-80.3l1.4,0.8l137.7,79.5v160.6L752.3,1319.5z M618.7,1236
					l133.6,77.1l133.6-77.1v-154.3l-133.6-77.1l-133.6,77.1L618.7,1236L618.7,1236z"/>
			</g>
			<g>
				<path class="st2" d="M956.9,1358.8l-1.4-0.8l-205.9-118.9V999.8l207.3-119.7l1.4,0.8l205.9,118.9v239.3L956.9,1358.8z
					 M755.2,1236L957,1352.5l201.8-116.5v-233L956.9,886.5L755.2,1003V1236z"/>
			</g>
			<g>
				<path class="st2" d="M274.8,965.4l-1.4-0.8l-137.7-79.5V724.5l139.1-80.3l139.1,80.3v160.6L274.8,965.4z M141.2,881.9L274.8,959
					l133.6-77.1V727.6l-133.6-77.1l-133.6,77.1L141.2,881.9L141.2,881.9z"/>
			</g>
			<g>
				<path class="st2" d="M1229.5,1122.7l-71-41v-82l71-41l71,41v82L1229.5,1122.7z M1163.9,1078.5l65.6,37.9l65.6-37.9v-75.7
					l-65.6-37.9l-65.6,37.9V1078.5z"/>
			</g>
			<g>
				<path class="st2" d="M410.9,1122.8l-71-41v-82l71-41l71,41v82L410.9,1122.8z M345.3,1078.6l65.6,37.9l65.6-37.9v-75.7L410.9,965
					l-65.6,37.9V1078.6z"/>
			</g>
			<g>
				<path class="st2" d="M820.8,807.9l-71-41v-82l71-41l71,41v82L820.8,807.9z M755.2,763.7l65.6,37.9l65.6-37.9V688l-65.6-37.9
					L755.2,688V763.7z"/>
			</g>
			<g>
				<path class="st2" d="M1229.5,1359.4l-71-41v-82l71-41l71,41v82L1229.5,1359.4z M1163.9,1315.3l65.6,37.9l65.6-37.9v-75.7
					l-65.6-37.9l-65.6,37.9V1315.3z"/>
			</g>
			<g>
				<path class="st2" d="M820.6,1122.8l-71-41v-82l71-41l71,41v82L820.6,1122.8z M755.1,1078.6l65.6,37.9l65.6-37.9v-75.7L820.7,965
					l-65.6,37.9V1078.6z"/>
			</g>
			<g>
				<path class="st2" d="M752.3,925.9L681.4,885v-81.9l70.9-40.9l70.9,40.9V885L752.3,925.9z M686.9,881.8l65.4,37.8l65.4-37.8
					v-75.6l-65.4-37.8l-65.4,37.8V881.8z"/>
			</g>
			<g>
				<path class="st2" d="M684.2,1044l-70.9-40.9v-81.9l70.9-40.9l70.9,40.9v81.9L684.2,1044z M618.7,999.9l65.4,37.8l65.4-37.8
					v-75.6l-65.4-37.8l-65.4,37.8V999.9z"/>
			</g>
			<g>
				<path class="st2" d="M684.2,1122.7l-70.9-40.9v-81.9l70.9-40.9l70.9,40.9v81.9L684.2,1122.7z M618.7,1078.6l65.4,37.8l65.4-37.8
					V1003l-65.4-37.8l-65.4,37.8V1078.6z"/>
			</g>
			<g>
				<path class="st2" d="M1160.5,1477.6l-70.9-40.9v-81.9l70.9-40.9l70.9,40.9v81.9L1160.5,1477.6z M1095.1,1433.5l65.4,37.8
					l65.4-37.8v-75.6l-65.4-37.8l-65.4,37.8V1433.5z"/>
			</g>
			<g>
				<path class="st2" d="M1298.3,1398.8l-70.9-40.9V1276l70.9-40.9l70.9,40.9v81.9L1298.3,1398.8z M1232.8,1354.7l65.4,37.8
					l65.4-37.8v-75.6l-65.4-37.8l-65.4,37.8V1354.7z"/>
			</g>
			<g>
				<path class="st2" d="M1025.1,1083.4l-70.9-40.9v-81.9l70.9-40.9l70.9,40.9v81.9L1025.1,1083.4z M959.7,1039.3l65.4,37.8
					l65.4-37.8v-75.6l-65.4-37.8l-65.4,37.8L959.7,1039.3L959.7,1039.3z"/>
			</g>
			<g>
				<path class="st2" d="M888.7,1162.1l-1.4-0.8l-137.7-79.5V921.2l139.1-80.3l1.4,0.8l137.7,79.5v160.6L888.7,1162.1z
					 M755.1,1078.6l133.6,77.1l133.6-77.1V924.4l-133.6-77.1l-133.6,77.1V1078.6z"/>
			</g>
			<g>
				<path class="st2" d="M547.8,1044.2l-139.1-80.3V803.3L547.8,723l139.1,80.3v160.6L547.8,1044.2z M414.2,960.7l133.6,77.1
					l133.6-77.1V806.4l-133.6-77.1l-133.6,77.1L414.2,960.7L414.2,960.7z"/>
			</g>
			<g>
				<path class="st2" d="M1025.1,1319.5l-1.4-0.8L886,1239.2v-160.6l139.1-80.3l1.4,0.8l137.7,79.5v160.6L1025.1,1319.5z
					 M891.5,1236.1l133.6,77.1l133.6-77.1v-154.3l-133.6-77.1l-133.6,77.1V1236.1z"/>
			</g>
			<g>
				<path class="st2" d="M411.2,965.1l-1.4-0.8L203.9,845.5V606.2l1.4-0.8l205.9-118.9l207.3,119.7v239.3L411.2,965.1z M209.4,842.3
					l201.8,116.5L613,842.3v-233L411.2,492.8L209.4,609.3V842.3z"/>
			</g>
			<g>
				<path class="st2" d="M752.3,925.9l-1.4-0.8l-137.7-79.5V685l139.1-80.3L891.4,685v160.6L752.3,925.9z M618.7,842.5l133.6,77.1
					l133.6-77.1V688.2l-133.6-77.1l-133.6,77.1L618.7,842.5L618.7,842.5z"/>
			</g>
			<g>
				<path class="st2" d="M479.5,1004.6l-1.4-0.8l-137.7-79.5V763.7l139.1-80.3l139.1,80.3v160.6L479.5,1004.6z M345.9,921.2
					l133.6,77.1l133.6-77.1V766.9l-133.6-77.1l-133.6,77.1L345.9,921.2L345.9,921.2z"/>
			</g>
			<g>
				<path class="st2" d="M752.3,1005l-71-41v-82l71-41l71,41v82L752.3,1005z M686.7,960.8l65.6,37.9l65.6-37.9v-75.7l-65.6-37.9
					l-65.6,37.9V960.8z"/>
			</g>
			<g>
				<path class="st2" d="M479.6,847.4l-71-41v-82l71-41l71.1,41v82L479.6,847.4z M414.1,803.2l65.6,37.9l65.6-37.9v-75.7l-65.6-37.9
					l-65.6,37.9L414.1,803.2L414.1,803.2z"/>
			</g>
			<g>
				<path class="st2" d="M956.8,1359.1l-71-41v-82l71-41l71,41v82L956.8,1359.1z M891.3,1314.9l65.6,37.9l65.6-37.9v-75.7
					l-65.6-37.9l-65.6,37.9V1314.9z"/>
			</g>
			<g class="st3">
				<g>
					<path class="st2" d="M889.1,1635l-1.4-0.8l-205.9-118.9V1276l1.4-0.8l205.9-118.9l1.4,0.8l205.9,118.9v239.3L889.1,1635z
						 M687.3,1512.2l201.8,116.5l201.8-116.5v-233l-201.8-116.5l-201.8,116.5L687.3,1512.2L687.3,1512.2z"/>
				</g>
			</g>
			<g>
				<path class="st2" d="M274.8,650.4l-70.9-40.9v-81.9l70.9-40.9l70.9,40.9v81.9L274.8,650.4z M209.4,606.3l65.4,37.8l65.4-37.8
					v-75.6L274.8,493l-65.4,37.8V606.3z"/>
			</g>
			<g>
				<path class="st2" d="M274.8,1279.7l-70.9-40.9v-81.9l70.9-40.9l70.9,40.9v81.9L274.8,1279.7z M209.4,1235.6l65.4,37.8l65.4-37.8
					V1160l-65.4-37.8l-65.4,37.8V1235.6z"/>
			</g>
			<g>
				<path class="st2" d="M274.8,1122.8l-70.9-40.9V1000l70.9-40.9l70.9,40.9v81.9L274.8,1122.8z M209.4,1078.7l65.4,37.8l65.4-37.8
					v-75.6l-65.4-37.8l-65.4,37.8V1078.7z"/>
			</g>
			<g>
				<path class="st2" d="M888.2,1004.8l-1.4-0.8l-137.7-79.5V763.9l139.1-80.3l139.1,80.3v160.6L888.2,1004.8z M754.6,921.4
					l133.6,77.1l133.6-77.1V767.1L888.2,690l-133.6,77.1V921.4z"/>
			</g>
			<g class="st3">
				<g>
					<path class="st2" d="M206.3,1240.8l-1.4-0.8l-137.7-79.5V999.9l139.1-80.3l1.4,0.8l137.7,79.5v160.6L206.3,1240.8z
						 M72.6,1157.3l133.6,77.1l133.6-77.1V1003l-133.6-77.1L72.6,1003C72.6,1003,72.6,1157.3,72.6,1157.3z"/>
				</g>
			</g>
			<g>
				<path class="st2" d="M410.9,886.3l-1.4-0.8L203.7,766.6V527.3l1.4-0.8L411,407.6l207.3,119.7v239.3l-1.4,0.8L410.9,886.3z
					 M209.1,763.5L410.9,880l201.8-116.5v-233L410.9,414L209.1,530.5V763.5z"/>
			</g>
			<g>
				<path class="st2" d="M1025.1,926.3l-71-41v-82l71-41l71,41v82L1025.1,926.3z M959.6,882.1l65.6,37.9l65.6-37.9v-75.7l-65.6-37.9
					l-65.6,37.9V882.1z"/>
			</g>
			<g>
				<path class="st2" d="M274.8,1044.1l-71-41v-82l71-41l71,41v82L274.8,1044.1z M209.3,999.9l65.6,37.9l65.6-37.9v-75.7l-65.6-37.9
					l-65.6,37.9L209.3,999.9L209.3,999.9z"/>
			</g>
			<g>
				<path class="st2" d="M411.3,1280l-1.4-0.8L204,1160.3V921l207.3-119.7l1.4,0.8L618.6,921v239.3L411.3,1280z M209.5,1157.2
					l201.8,116.5l201.8-116.5v-233L411.3,807.7L209.5,924.2V1157.2z"/>
			</g>
			<g>
				<path class="st2" d="M479.3,1319.3l-70.9-40.9v-81.9l70.9-40.9l70.9,40.9v81.9L479.3,1319.3z M413.9,1275.2l65.4,37.8l65.4-37.8
					v-75.6l-65.4-37.8l-65.4,37.8L413.9,1275.2L413.9,1275.2z"/>
			</g>
			<g class="st3">
				<g>
					<path class="st2" d="M547.5,1358.8l-71-41v-82l71-41l71,41v82L547.5,1358.8z M482,1314.6l65.6,37.9l65.6-37.9v-75.7l-65.6-37.9
						l-65.6,37.9L482,1314.6L482,1314.6z"/>
				</g>
			</g>
			<g>
				<path class="st2" d="M1366.1,1279.9l-71.1-41v-82l71.1-41l71,41v82L1366.1,1279.9z M1300.5,1235.7l65.6,37.9l65.6-37.9V1160
					l-65.6-37.9l-65.6,37.9V1235.7z"/>
			</g>
			<g>
				<path class="st2" d="M615.7,847.2l-139.1-80.3V606.3L615.7,526l139.1,80.3v160.6L615.7,847.2z M482.1,763.8l133.6,77.1
					l133.6-77.1V609.5l-133.6-77.1l-133.6,77.1L482.1,763.8L482.1,763.8z"/>
			</g>
			<g>
				<path class="st2" d="M274.8,1358.5l-1.4-0.8l-137.7-79.5v-160.6l139.1-80.3l1.4,0.8l137.7,79.5v160.6L274.8,1358.5z M141.2,1275
					l133.6,77.1l133.6-77.1v-154.3l-133.6-77.1l-133.6,77.1L141.2,1275L141.2,1275z"/>
			</g>
			<g>
				<path class="st2" d="M342.9,532.6l-71-41v-82l71-41l71,41v82L342.9,532.6z M277.3,488.5l65.6,37.9l65.6-37.9v-75.7l-65.6-37.9
					l-65.6,37.9V488.5z"/>
			</g>
			<g>
				<path class="st2" d="M684.3,729.3l-70.9-40.9v-81.9l70.9-40.9l70.9,40.9v81.9L684.3,729.3z M618.9,685.2l65.4,37.8l65.4-37.8
					v-75.6l-65.4-37.8l-65.4,37.8V685.2z"/>
			</g>
			<g>
				<path class="st2" d="M616.1,689.4l-70.9-40.9v-81.9l70.9-40.9l70.9,40.9v81.9L616.1,689.4z M550.7,645.3l65.4,37.8l65.4-37.8
					v-75.6L616.1,532l-65.4,37.8L550.7,645.3L550.7,645.3z"/>
			</g>
			<g>
				<path class="st2" d="M274.6,493.1l-70.9-40.9v-81.9l70.9-40.9l70.9,40.9v81.9L274.6,493.1z M209.1,449l65.4,37.8L340,449v-75.6
					l-65.4-37.8l-65.4,37.8V449H209.1z"/>
			</g>
			<g>
				<path class="st2" d="M479.1,611.2l-70.9-40.9v-81.9l70.9-40.9l70.9,40.9v81.9L479.1,611.2z M413.7,567.1l65.4,37.8l65.4-37.8
					v-75.6l-65.4-37.8l-65.4,37.8V567.1z"/>
			</g>
			<g>
				<path class="st2" d="M342.6,689.7l-70.9-40.9v-81.9l70.9-40.9l70.9,40.9v81.9L342.6,689.7z M277.1,645.6l65.4,37.8l65.4-37.8
					V570l-65.4-37.8L277.1,570V645.6z"/>
			</g>
			<g>
				<path class="st2" d="M206.1,768.5L67,688.2V527.6l139.1-80.3l139.1,80.3v160.6L206.1,768.5z M72.5,685l133.6,77.1L339.7,685
					V530.7l-133.6-77.1L72.5,530.7V685z"/>
			</g>
			<g>
				<path class="st2" d="M410.9,886.7l-1.4-0.8L203.7,767.1V527.7l1.4-0.8L411,408l207.3,119.7V767l-1.4,0.8L410.9,886.7z
					 M209.1,763.9l201.8,116.5l201.8-116.5v-233L410.9,414.4L209.1,530.9V763.9z"/>
			</g>
			<g>
				<path class="st2" d="M205.9,532.5l-71.1-41v-82l71.1-41l71,41v82L205.9,532.5z M140.4,488.3l65.6,37.9l65.6-37.9v-75.7
					L206,374.7l-65.6,37.9V488.3z"/>
			</g>
			<g>
				<path class="st2" d="M1366,1122.5l-71-41v-82l71-41l71,41v82L1366,1122.5z M1300.4,1078.3l65.6,37.9l65.6-37.9v-75.7l-65.6-37.9
					l-65.6,37.9V1078.3z"/>
			</g>
			<g>
				<path class="st2" d="M342.6,768.8l-71-41v-82l71-41l71,41v82L342.6,768.8z M277,724.6l65.6,37.9l65.6-37.9v-75.7L342.6,611
					L277,648.9V724.6z"/>
			</g>
			<g>
				<path class="st2" d="M1502.9,1123.4l-1.4-0.8l-137.7-79.5V882.5l139.1-80.3l1.4,0.8l137.7,79.5v160.6L1502.9,1123.4z
					 M1369.3,1039.9l133.6,77.1l133.6-77.1V885.7l-133.6-77.1l-133.6,77.1V1039.9z"/>
			</g>
			<g>
				<path class="st2" d="M1639,1280.8l-71-41v-82l71-41l71,41v82L1639,1280.8z M1573.4,1236.7l65.6,37.9l65.6-37.9V1161l-65.6-37.9
					l-65.6,37.9V1236.7z"/>
			</g>
			<g>
				<path class="st2" d="M1502.9,1437.8l-70.9-40.9V1315l70.9-40.9l70.9,40.9v81.9L1502.9,1437.8z M1437.4,1393.7l65.4,37.8
					l65.4-37.8v-75.6l-65.4-37.8l-65.4,37.8V1393.7z"/>
			</g>
			<g>
				<path class="st2" d="M1502.9,1280.9L1432,1240v-82l70.9-40.9l70.9,40.9v81.9L1502.9,1280.9z M1437.4,1236.8l65.4,37.8l65.4-37.8
					v-75.6l-65.4-37.8l-65.4,37.8V1236.8z"/>
			</g>
			<g>
				<path class="st2" d="M1434.3,1398.8l-1.4-0.8l-137.7-79.5v-160.6l139.1-80.3l1.4,0.8l137.7,79.5v160.6L1434.3,1398.8z
					 M1300.7,1315.4l133.6,77.1l133.6-77.1v-154.3l-133.6-77.1l-133.6,77.1V1315.4z"/>
			</g>
			<g>
				<path class="st2" d="M1502.9,1202.1l-71-41v-82l71-41l71,41v82L1502.9,1202.1z M1437.3,1158l65.6,37.9l65.6-37.9v-75.7
					l-65.6-37.9l-65.6,37.9V1158z"/>
			</g>
			<g>
				<path class="st2" d="M1502.9,1516.5l-1.4-0.8l-137.7-79.5v-160.6l139.1-80.3l1.4,0.8l137.7,79.5v160.6L1502.9,1516.5z
					 M1369.3,1433l133.6,77.1l133.6-77.1v-154.3l-133.6-77.1l-133.6,77.1V1433z"/>
			</g>
			<g>
				<path class="st2" d="M1434.1,926.5l-1.4-0.8L1295,846.2V685.6l139.1-80.3l139.1,80.3v160.6L1434.1,926.5z M1300.5,843
					l133.6,77.1l133.6-77.1V688.8l-133.6-77.1l-133.6,77.1V843z"/>
			</g>
			<g>
				<path class="st2" d="M1160.5,1005.7l-71-41v-82l71-41l71,41v82L1160.5,1005.7z M1094.9,961.5l65.6,37.9l65.6-37.9v-75.7
					l-65.6-37.9l-65.6,37.9V961.5z"/>
			</g>
			<g>
				<path class="st2" d="M752.4,768.5l-71-41v-82l71-41l71,41v82L752.4,768.5z M686.9,724.3l65.6,37.9l65.6-37.9v-75.7l-65.6-37.9
					l-65.6,37.9V724.3z"/>
			</g>
			<g>
				<path class="st2" d="M956-58.1L748.8-177.7V-417L956-536.7L1163.3-417v239.3l-1.4,0.8L956-58.1z M754.2-180.9L956-64.4
					l201.8-116.5v-233L956-530.4L754.2-413.9V-180.9z"/>
			</g>
			<g>
				<path class="st2" d="M888.1-97.4L680.9-217v-239.3L888.1-576l207.3,119.7V-217l-1.4,0.8L888.1-97.4z M686.4-220.2l201.8,116.5
					L1090-220.2v-233L888.1-569.7L686.4-453.2V-220.2z"/>
			</g>
			<g>
				<path class="st2" d="M410.5,413.9l-139.1-80.3V173l139.1-80.3L549.6,173v160.6L410.5,413.9z M276.9,330.5l133.6,77.1l133.6-77.1
					V176.2L410.5,99.1l-133.6,77.1V330.5z"/>
			</g>
			<g>
				<path class="st2" d="M615,217.3l-70.9-40.9V94.5L615,53.6l70.9,40.9v81.9L615,217.3z M549.6,173.2L615,211l65.4-37.8V97.7
					L615,59.9l-65.4,37.8V173.2z"/>
			</g>
			<g>
				<path class="st2" d="M546.9,99.2L476,58.3v-81.9l70.9-40.9l70.9,40.9v81.9L546.9,99.2z M481.4,55.1l65.4,37.8l65.4-37.8v-75.6
					l-65.4-37.8l-65.4,37.8V55.1z"/>
			</g>
			<g>
				<path class="st2" d="M546.9,20.5L476-20.4v-81.9l70.9-40.9l70.9,40.9v81.9L546.9,20.5z M481.4-23.6l65.4,37.8l65.4-37.8v-75.6
					L546.8-137l-65.4,37.8V-23.6z"/>
			</g>
			<g>
				<path class="st2" d="M1024.2,217.3l-70.9-40.9V94.5l70.9-40.9l70.9,40.9v81.9L1024.2,217.3z M958.7,173.2l65.4,37.8l65.4-37.8
					V97.7l-65.4-37.8l-65.4,37.8L958.7,173.2L958.7,173.2z"/>
			</g>
			<g>
				<path class="st2" d="M819.7,335.4l-70.9-40.9v-81.9l70.9-40.9l70.9,40.9v81.9L819.7,335.4z M754.2,291.3l65.4,37.8l65.4-37.8
					v-75.6l-65.4-37.8l-65.4,37.8V291.3z"/>
			</g>
			<g>
				<path class="st2" d="M887.8,59.9L816.9,19v-81.9l70.9-40.9l70.9,40.9V19L887.8,59.9z M822.4,15.8l65.4,37.8l65.4-37.8v-75.6
					l-65.4-37.8l-65.4,37.8V15.8z"/>
			</g>
			<g>
				<path class="st2" d="M751.4,138.6L612.3,58.3v-160.6l139.1-80.3l139.1,80.3V58.3L751.4,138.6z M617.8,55.1l133.6,77.1L885,55.1
					V-99.1l-133.6-77.1L617.8-99.1V55.1z"/>
			</g>
			<g>
				<path class="st2" d="M410.5,256.5l-139.1-80.3V15.6l139.1-80.3l139.1,80.3v160.6L410.5,256.5z M276.9,173l133.6,77.1L544.1,173
					V18.8L410.5-58.4L276.9,18.8V173z"/>
			</g>
			<g>
				<path class="st2" d="M956,493l-139.1-80.3V252.1L956,171.8l139.1,80.3v160.6L956,493z M822.4,409.5L956,486.7l133.6-77.1V255.2
					L956,178.1l-133.6,77.1V409.5z"/>
			</g>
			<g>
				<path class="st2" d="M887.8-18.8l-139-80.3v-160.6l139-80.3l139.1,80.3v160.6L887.8-18.8z M754.2-102.3l133.6,77.1l133.6-77.1
					v-154.3l-133.6-77.1l-133.6,77.1L754.2-102.3L754.2-102.3z"/>
			</g>
			<g>
				<path class="st2" d="M546.7-58.2L339.4-177.9v-239.3l1.4-0.8l205.9-118.9L754-417.2v239.3L546.7-58.2z M344.9-181L546.7-64.5
					L748.5-181v-233L546.7-530.5L344.9-414V-181z"/>
			</g>
			<g>
				<path class="st2" d="M956,492.8L748.8,373.2V133.8l1.4-0.8L956,14.2l207.3,119.7v239.3L956,492.8z M754.2,370L956,486.5
					L1157.8,370V137L956,20.5L754.2,137V370z"/>
			</g>
			<g>
				<path class="st2" d="M683.2,20.5L475.9-99.2v-239.3l207.3-119.7l207.3,119.7v239.3l-1.4,0.8L683.2,20.5z M481.4-102.3
					L683.2,14.2L885-102.3v-233L683.2-451.8L481.4-335.3V-102.3z"/>
			</g>
			<g>
				<path class="st2" d="M615,374.7l-139.1-80.3V133.8L615,53.6l139.1,80.3v160.6L615,374.7z M481.4,291.3L615,368.4l133.6-77.1V137
					L615,59.9L481.4,137V291.3z"/>
			</g>
			<g>
				<path class="st2" d="M615,138.6l-71-41v-82l71-41l71,41v82L615,138.6z M549.4,94.4l65.6,37.9l65.6-37.9V18.7L615-19.2
					l-65.6,37.9V94.4z"/>
			</g>
			<g>
				<path class="st2" d="M1092.4,256.8l-71-41v-82l71-41l71,41v82L1092.4,256.8z M1026.8,212.6l65.6,37.9l65.6-37.9v-75.7L1092.4,99
					l-65.6,37.9V212.6z"/>
			</g>
			<g>
				<path class="st2" d="M819.7,414.4l-71-41v-82l71-41l71,41v82L819.7,414.4z M754.1,370.2l65.6,37.9l65.6-37.9v-75.7l-65.6-37.9
					l-65.6,37.9V370.2z"/>
			</g>
			<g>
				<path class="st2" d="M615-97.4l-70.9-40.9v-81.9l70.9-40.9l70.9,40.9v81.9L615-97.4z M549.6-141.5l65.4,37.8l65.4-37.8v-75.6
					L615-254.9l-65.4,37.8V-141.5z"/>
			</g>
			<g>
				<path class="st2" d="M546.9,20.7l-70.9-41v-81.9l70.9-40.9l70.9,40.9v81.9L546.9,20.7z M481.4-23.4l65.4,37.8l65.4-37.8V-99
					l-65.4-37.8L481.4-99V-23.4z"/>
			</g>
			<g>
				<path class="st2" d="M546.9,99.4l-70.9-41v-81.9l70.9-40.9l70.9,40.9v81.9L546.9,99.4z M481.4,55.3l65.4,37.8l65.4-37.8v-75.6
					l-65.4-37.8l-65.4,37.8V55.3z"/>
			</g>
			<g>
				<path class="st2" d="M1024.2-97.4l-70.9-40.9v-81.9l70.9-40.9l70.9,40.9v81.9L1024.2-97.4z M958.7-141.5l65.4,37.8l65.4-37.8
					v-75.6l-65.4-37.8l-65.4,37.8L958.7-141.5L958.7-141.5z"/>
			</g>
			<g>
				<path class="st2" d="M887.8,60l-70.9-40.9v-81.9l70.9-40.9l70.9,40.9v81.9L887.8,60z M822.4,15.9l65.4,37.8l65.4-37.8v-75.6
					l-65.4-37.8l-65.4,37.8V15.9z"/>
			</g>
			<g>
				<path class="st2" d="M751.4,138.7L612.3,58.4v-160.6l139.1-80.3l139.1,80.3V58.4L751.4,138.7z M617.8,55.3l133.6,77.1L885,55.3
					V-99l-133.6-77.1L617.8-99V55.3z"/>
			</g>
			<g>
				<path class="st2" d="M410.5,20.8L271.4-59.5v-160.6l139.1-80.3l139.1,80.3v160.6L410.5,20.8z M276.9-62.6l133.6,77.1l133.6-77.1
					v-154.3L410.5-294l-133.6,77.1L276.9-62.6L276.9-62.6z"/>
			</g>
			<g>
				<path class="st2" d="M1228.7,729l-70.9-40.9v-81.9l70.9-40.9l70.9,40.9v81.9L1228.7,729z M1163.2,684.9l65.4,37.8l65.4-37.8
					v-75.6l-65.4-37.8l-65.4,37.8V684.9z"/>
			</g>
			<g>
				<path class="st2" d="M887.8,296.2l-139.1-80.3V55.3L887.8-25l139.1,80.3v160.6L887.8,296.2z M754.2,212.7l133.6,77.1l133.6-77.1
					V58.4L887.8-18.7L754.2,58.4V212.7z"/>
			</g>
			<g>
				<path class="st2" d="M683.2,414.3L475.9,294.6V55.3l1.4-0.8L683.2-64.4L890.5,55.3v239.3L683.2,414.3z M481.4,291.4l201.8,116.5
					L885,291.4v-233L683.2-58.1L481.4,58.4V291.4z"/>
			</g>
			<g>
				<g>
					<path class="st2" d="M615-97.4l-139.1-80.3v-160.6L615-418.6l139.1,80.3v160.6L615-97.4z M481.4-180.9L615-103.8l133.6-77.1
						v-154.3L615-412.3l-133.6,77.1V-180.9z"/>
				</g>
			</g>
			<g>
				<path class="st2" d="M1365.3,650.3L1226.2,570V409.4l139.1-80.3l139.1,80.3V570L1365.3,650.3z M1231.7,566.8l133.6,77.1
					l133.6-77.1V412.5l-133.6-77.1l-133.6,77.1V566.8z"/>
			</g>
			<g>
				<path class="st2" d="M615-18.4l-71-41v-82l71-41l71,41v82L615-18.4z M549.4-62.6L615-24.7l65.6-37.9v-75.7L615-176.1l-65.6,37.9
					V-62.6z"/>
			</g>
			<g>
				<path class="st2" d="M410.7,335.8l-71-41v-82l71-41l71,41v82L410.7,335.8z M345.1,291.6l65.6,37.9l65.6-37.9v-75.7L410.7,178
					l-65.6,37.9V291.6z"/>
			</g>
			<g>
				<path class="st2" d="M1229.2,335.7l-71-41v-82l71-41l71,41v82L1229.2,335.7z M1163.7,291.5l65.6,37.9l65.6-37.9v-75.7
					l-65.6-37.9l-65.6,37.9V291.5z"/>
			</g>
			<g>
				<path class="st2" d="M819.4,650.6l-71-41v-82l71-41l71,41v82L819.4,650.6z M753.8,606.5l65.6,37.9l65.6-37.9v-75.7l-65.6-37.9
					l-65.6,37.9V606.5z"/>
			</g>
			<g>
				<path class="st2" d="M410.7,99.1l-71-41v-82l71-41l71,41v82L410.7,99.1z M345.1,54.9l65.6,37.9l65.6-37.9v-75.7l-65.6-37.9
					l-65.6,37.9V54.9z"/>
			</g>
			<g>
				<path class="st2" d="M1092.3-57.7l-71-41v-82l71-41l71,41v82L1092.3-57.7z M1026.8-101.9l65.6,37.9l65.6-37.9v-75.7l-65.6-37.9
					l-65.6,37.9V-101.9z"/>
			</g>
			<g>
				<path class="st2" d="M1092.4-136.6l-71-41v-82l71-41l71,41v82L1092.4-136.6z M1026.8-180.8l65.6,37.9l65.6-37.9v-75.7
					l-65.6-37.9l-65.6,37.9V-180.8z"/>
			</g>
			<g>
				<path class="st2" d="M819.5,335.7l-71-41v-82l71-41l71,41v82L819.5,335.7z M754,291.5l65.6,37.9l65.6-37.9v-75.7l-65.6-37.9
					L754,215.8V291.5z"/>
			</g>
			<g>
				<path class="st2" d="M887.8,532.3l-70.9-40.9v-81.9l70.9-40.9l70.9,40.9v81.9L887.8,532.3z M822.4,488.2l65.4,37.8l65.4-37.8
					v-75.6l-65.4-37.8l-65.4,37.8V488.2z"/>
			</g>
			<g>
				<path class="st2" d="M956,414.2l-70.9-40.9v-81.9l70.9-40.9l70.9,40.9v81.9L956,414.2z M890.5,370.1l65.4,37.8l65.4-37.8v-75.6
					L956,256.7l-65.4,37.8L890.5,370.1L890.5,370.1z"/>
			</g>
			<g>
				<path class="st2" d="M956,335.4l-70.9-40.9v-81.9l70.9-40.9l70.9,40.9v81.9L956,335.4z M890.5,291.3l65.4,37.8l65.4-37.8v-75.6
					L956,178l-65.4,37.8L890.5,291.3L890.5,291.3z"/>
			</g>
			<g>
				<path class="st2" d="M615,374.8l-70.9-40.9V252l70.9-40.9l70.9,40.9v81.9L615,374.8z M549.6,330.7l65.4,37.8l65.4-37.8v-75.6
					L615,217.4l-65.4,37.8V330.7z"/>
			</g>
			<g>
				<path class="st2" d="M751.5,453.5l-139.1-80.3V212.6l139.1-80.3l139.1,80.3v160.6L751.5,453.5z M617.9,370.1l133.6,77.1
					l133.6-77.1V215.8l-133.6-77.1l-133.6,77.1V370.1z"/>
			</g>
			<g>
				<path class="st2" d="M1092.3,571.4l-139.1-80.3V330.5l139.1-80.3l139.1,80.3v160.6L1092.3,571.4z M958.7,488l133.6,77.1
					l133.6-77.1V333.7l-133.6-77.1l-133.6,77.1L958.7,488L958.7,488z"/>
			</g>
			<g>
				<path class="st2" d="M615,296.1l-139.1-80.3V55.2L615-25.1l139.1,80.3v160.6L615,296.1z M481.4,212.6L615,289.8l133.6-77.1V58.4
					L615-18.8L481.4,58.4V212.6z"/>
			</g>
			<g>
				<path class="st2" d="M1229,807.9l-1.4-0.8l-205.9-118.9V448.9L1229,329.3L1436.3,449v239.3l-1.4,0.8L1229,807.9z M1027.2,685.1
					L1229,801.6l201.8-116.5v-233L1229,335.6l-201.8,116.5V685.1z"/>
			</g>
			<g>
				<path class="st2" d="M956.2,256.7L748.9,137.1v-239.3l1.4-0.8l205.9-118.9l207.3,119.7v239.3L956.2,256.7z M754.4,133.9
					l201.8,116.5L1158,133.9v-233L956.2-215.6L754.4-99.1V133.9z"/>
			</g>
			<g>
				<path class="st2" d="M887.8,689.7l-139.1-80.3V448.8l139.1-80.3l139.1,80.3v160.6L887.8,689.7z M754.2,606.2l133.6,77.1
					l133.6-77.1V452l-133.6-77.1L754.2,452V606.2z"/>
			</g>
			<g>
				<path class="st2" d="M1297-18.8l-139.1-80.3v-160.6L1297-340l139.1,80.3v160.6L1297-18.8z M1163.4-102.3L1297-25.2l133.6-77.1
					v-154.3L1297-333.7l-133.6,77.1V-102.3z"/>
			</g>
			<g>
				<path class="st2" d="M1160.7,611l-139.1-80.3V370.1l139.1-80.3l139.1,80.3v160.6L1160.7,611z M1027.1,527.5l133.6,77.1
					l133.6-77.1V373.2l-133.6-77.1l-133.6,77.1V527.5z"/>
			</g>
			<g>
				<path class="st2" d="M887.8,453.5l-71-41v-82l71-41l71,41v82L887.8,453.5z M822.3,409.4l65.6,37.9l65.6-37.9v-75.7l-65.6-37.9
					l-65.6,37.9V409.4z"/>
			</g>
			<g>
				<path class="st2" d="M1160.7-97.4l-71-41v-82l71-41l71,41v82L1160.7-97.4z M1095.1-141.6l65.6,37.9l65.6-37.9v-75.7l-65.6-37.9
					l-65.6,37.9V-141.6z"/>
			</g>
			<g>
				<path class="st2" d="M1160.5,611.1l-71-41v-82l71-41l71,41v82L1160.5,611.1z M1095,566.9l65.6,37.9l65.6-37.9v-75.7l-65.6-37.9
					l-65.6,37.9V566.9z"/>
			</g>
			<g>
				<path class="st2" d="M683.3,99.4l-71-41v-82l71-41l71,41v82L683.3,99.4z M617.8,55.3l65.6,37.9L749,55.3v-75.7l-65.6-37.9
					l-65.6,37.9V55.3z"/>
			</g>
			<g>
				<path class="st2" d="M546.7,493L339.4,373.3V134l1.4-0.8L546.7,14.3L754,134v239.3l-1.4,0.8L546.7,493z M344.9,370.2
					l201.8,116.5l201.8-116.5v-233L546.7,20.7L344.9,137.2V370.2z"/>
			</g>
			<g>
				<path class="st2" d="M1365.3,807.8l-70.9-40.9V685l70.9-40.9l70.9,40.9v81.9L1365.3,807.8z M1299.9,763.7l65.4,37.8l65.4-37.8
					v-75.6l-65.4-37.8l-65.4,37.8V763.7z"/>
			</g>
			<g>
				<path class="st2" d="M1365.3,178.4l-70.9-40.9V55.6l70.9-40.9l70.9,40.9v81.9L1365.3,178.4z M1299.9,134.3l65.4,37.8l65.4-37.8
					V58.8L1365.3,21l-65.4,37.8V134.3z"/>
			</g>
			<g>
				<path class="st2" d="M1365.3,335.4l-70.9-40.9v-81.9l70.9-40.9l70.9,40.9v81.9L1365.3,335.4z M1299.9,291.3l65.4,37.8l65.4-37.8
					v-75.6l-65.4-37.8l-65.4,37.8V291.3z"/>
			</g>
			<g>
				<path class="st2" d="M751.9,610.8l-139.1-80.3V369.9l139.1-80.3L891,369.9v160.6L751.9,610.8z M618.3,527.4l133.6,77.1
					l133.6-77.1V373.1L751.9,296l-133.6,77.1L618.3,527.4L618.3,527.4z"/>
			</g>
			<g>
				<path class="st2" d="M1433.9,374.8l-139.1-80.3V133.9l139.1-80.3l139.1,80.3v160.6L1433.9,374.8z M1300.3,291.4l133.6,77.1
					l133.6-77.1V137.1L1433.9,60l-133.6,77.1V291.4z"/>
			</g>
			<g>
				<path class="st2" d="M1229.2,886.8l-1.4-0.8L1022,767.1V527.8l207.3-119.7l207.3,119.7v239.3l-1.4,0.8L1229.2,886.8z
					 M1027.5,764l201.8,116.5L1431,764V531l-201.8-116.5L1027.5,531V764z"/>
			</g>
			<g>
				<path class="st2" d="M615,532.3l-71-41v-82l71-41l71,41v82L615,532.3z M549.4,488.1L615,526l65.6-37.9v-75.7L615,374.5
					l-65.6,37.9V488.1z"/>
			</g>
			<g>
				<path class="st2" d="M1365.3,414.4l-71-41v-82l71-41l71.1,41v82L1365.3,414.4z M1299.8,370.2l65.6,37.9l65.6-37.9v-75.7
					l-65.6-37.9l-65.6,37.9V370.2z"/>
			</g>
			<g>
				<path class="st2" d="M1228.8,493.1l-207.3-119.7V134.1l1.4-0.8l205.9-118.9l207.3,119.7v239.3L1228.8,493.1z M1027.1,370.3
					l201.8,116.5l201.8-116.5v-233L1228.8,20.8L1027,137.3L1027.1,370.3L1027.1,370.3z"/>
			</g>
			<g>
				<path class="st2" d="M1160.8,138.9L1089.9,98V16.1l70.9-40.9l70.9,40.9V98L1160.8,138.9z M1095.4,94.8l65.4,37.8l65.4-37.8V19.3
					l-65.4-37.8l-65.4,37.8V94.8z"/>
			</g>
			<g>
				<path class="st2" d="M1365.3,20.8l-70.9-40.9V-102l70.9-40.9l70.9,40.9v81.9L1365.3,20.8z M1299.9-23.3l65.4,37.8l65.4-37.8
					v-75.6l-65.4-37.8l-65.4,37.8V-23.3z"/>
			</g>
			<g>
				<path class="st2" d="M1229,20.7l-139.1-80.3v-160.6l139.1-80.3l139.1,80.3v160.6L1229,20.7z M1095.4-62.8L1229,14.4l133.6-77.1
					V-217L1229-294.2L1095.4-217V-62.8z"/>
			</g>
			<g>
				<path class="st2" d="M1229,178.3L1021.7,58.6v-239.3l1.4-0.8L1229-300.3l207.3,119.7V58.6L1229,178.3z M1027.2,55.5L1229,172
					l201.8-116.5v-233L1229-294l-201.8,116.5V55.5z"/>
			</g>
			<g>
				<path class="st2" d="M1092.6,99.7l-71-41v-82l71-41l71,41v82L1092.6,99.7z M1027.1,55.5l65.6,37.9l65.6-37.9v-75.7L1092.6-58
					L1027-20.1L1027.1,55.5L1027.1,55.5z"/>
			</g>
			<g>
				<path class="st2" d="M274,178.6l-71-41v-82l71-41l71.1,41v82L274,178.6z M208.5,134.4l65.6,37.9l65.6-37.9V58.7L274,20.8
					l-65.6,37.9v75.7H208.5z"/>
			</g>
			<g>
				<path class="st2" d="M1365.3-57.9l-71-41v-82l71-41l71.1,41v82L1365.3-57.9z M1299.8-102l65.6,37.9L1431-102v-75.7l-65.6-37.9
					l-65.6,37.9V-102z"/>
			</g>
			<g>
				<path class="st2" d="M274.1,20l-70.9-40.9v-81.9l70.9-40.9l70.9,40.9v81.9L274.1,20z M208.7-24.1l65.4,37.8l65.4-37.8v-75.6
					l-65.4-37.8l-65.4,37.8L208.7-24.1L208.7-24.1z"/>
			</g>
			<g>
				<path class="st2" d="M1024.5,768.4l-139.1-80.3V527.5l139.1-80.3l139.1,80.3v160.6L1024.5,768.4z M890.8,685l133.6,77.1
					L1158,685V530.7l-133.6-77.1l-133.6,77.1L890.8,685L890.8,685z"/>
			</g>
			<g>
				<path class="st2" d="M1365.3,257.2l-139.1-80.3V16.3L1365.3-64l139.1,80.3v160.6L1365.3,257.2z M1231.7,173.7l133.6,77.1
					l133.6-77.1V19.4l-133.6-77.1l-133.6,77.1V173.7z"/>
			</g>
			<g>
				<path class="st2" d="M1297.3,925.9l-71-41v-82l71-41l71,41v82L1297.3,925.9z M1231.7,881.7l65.6,37.9l65.6-37.9V806l-65.6-37.9
					l-65.6,37.9V881.7z"/>
			</g>
			<g>
				<path class="st2" d="M955.8,728.9L884.9,688v-81.9l70.9-40.9l70.9,40.9V688L955.8,728.9z M890.4,684.8l65.4,37.8l65.4-37.8
					v-75.6l-65.4-37.8l-65.4,37.8V684.8z"/>
			</g>
			<g>
				<path class="st2" d="M1024,768.8l-70.9-40.9V646l70.9-41l70.9,40.9v81.9L1024,768.8z M958.6,724.7l65.4,37.8l65.4-37.8v-75.6
					l-65.4-37.8l-65.4,37.8V724.7z"/>
			</g>
			<g>
				<path class="st2" d="M1365.6,965.1l-70.9-40.9v-81.9l70.9-40.9l70.9,40.9v81.9L1365.6,965.1z M1300.2,921l65.4,37.8L1431,921
					v-75.6l-65.4-37.8l-65.4,37.8V921z"/>
			</g>
			<g>
				<path class="st2" d="M1161.1,847l-70.9-40.9v-81.9l70.9-40.9l70.9,40.9v81.9L1161.1,847z M1095.6,802.9l65.4,37.8l65.4-37.8
					v-75.6l-65.4-37.8l-65.4,37.8V802.9z"/>
			</g>
			<g>
				<path class="st2" d="M1297.6,768.4l-70.9-40.9v-81.9l70.9-40.9l70.9,40.9v81.9L1297.6,768.4z M1232.2,724.3l65.4,37.8l65.4-37.8
					v-75.6l-65.4-37.8l-65.4,37.8V724.3z"/>
			</g>
			<g>
				<path class="st2" d="M1434.1,847.2l-1.4-0.8L1295,766.9V606.3l139.1-80.3l139.1,80.3v160.6L1434.1,847.2z M1300.4,763.7
					l133.6,77.1l133.6-77.1V609.4L1434,532.3l-133.6,77.1V763.7z"/>
			</g>
			<g>
				<path class="st2" d="M1229.2,886.3l-1.4-0.8L1022,766.7V527.4l207.3-119.7l207.3,119.7v239.3l-1.4,0.8L1229.2,886.3z
					 M1027.5,763.5L1229.2,880L1431,763.5v-233L1229.2,414l-201.8,116.5v233H1027.5z"/>
			</g>
			<g>
				<path class="st2" d="M1434.2,926l-71.1-41v-82l71.1-41l71,41v82L1434.2,926z M1368.6,881.9l65.6,37.9l65.6-37.9v-75.7
					l-65.6-37.9l-65.6,37.9V881.9z"/>
			</g>
			<g>
				<path class="st2" d="M69.7,532.8l-139.1-80.3V291.9l139.1-80.3l139.1,80.3v160.6L69.7,532.8z M-63.9,449.3l133.6,77.1
					l133.6-77.1V295L69.7,217.9L-63.9,295V449.3z"/>
			</g>
			<g>
				<path class="st2" d="M69.7,690.2l-139.1-80.3V449.3L69.7,369l139.1,80.3v160.6L69.7,690.2z M-63.9,606.7l133.6,77.1l133.6-77.1
					V452.5L69.7,375.3l-133.6,77.1C-63.9,452.4-63.9,606.7-63.9,606.7z"/>
			</g>
			<g>
				<path class="st2" d="M69.6,453.8l-71-41v-82l71-41l71,41v82L69.6,453.8z M4,409.6l65.6,37.9l65.6-37.9v-75.7L69.6,296L4,333.9
					V409.6z"/>
			</g>
			<g>
				<path class="st2" d="M69.6,690.5l-71-41v-82l71-41l71,41v82L69.6,690.5z M4,646.3l65.6,37.9l65.6-37.9v-75.7l-65.6-37.9L4,570.6
					V646.3z"/>
			</g>
			<g>
				<path class="st2" d="M-66.5,611.2l-207.3-119.7V252.2l1.4-0.8l205.9-118.9l207.3,119.7v239.3L-66.5,611.2z M-268.2,488.3
					l201.8,116.5l201.8-116.5v-233L-66.5,138.9l-201.8,116.5L-268.2,488.3L-268.2,488.3z"/>
			</g>
			<g>
				<path class="st2" d="M206.2,611l-71-41v-82l71-41l71,41v82L206.2,611z M140.6,566.8l65.6,37.9l65.6-37.9v-75.7l-65.6-37.9
					l-65.6,37.9V566.8z"/>
			</g>
			<g>
				<path class="st2" d="M206.1,453.5l-71-41v-82l71-41l71,41v82L206.1,453.5z M140.5,409.4l65.6,37.9l65.6-37.9v-75.7l-65.6-37.9
					l-65.6,37.9V409.4z"/>
			</g>
			<g>
				<path class="st2" d="M69.1,139L-138.2,19.3V-220L69.1-339.6L276.3-220V19.3l-1.4,0.8L69.1,139z M-132.7,16.2L69.1,132.7
					L270.8,16.2v-233L69.1-333.3l-201.8,116.5L-132.7,16.2L-132.7,16.2z"/>
			</g>
			<g>
				<path class="st2" d="M205.4,138.8l-70.9-40.9V16l70.9-40.9L276.3,16v81.9L205.4,138.8z M140,94.7l65.4,37.8l65.4-37.8V19.2
					l-65.4-37.8L140,19.2V94.7z"/>
			</g>
			<g>
				<path class="st2" d="M69.3,217.9L-137.9,98.2v-239.3L69.3-260.8l207.3,119.7V98.2l-1.4,0.8L69.3,217.9z M-132.5,95.1L69.3,211.6
					L271.1,95.1v-233L69.3-254.4l-201.8,116.5V95.1z"/>
			</g>
			<g>
				<path class="st2" d="M137.4,257l-71-41v-82l71-41l71.1,41v82L137.4,257z M71.8,212.8l65.6,37.9l65.6-37.9v-75.7l-65.6-37.9
					l-65.6,37.9C71.8,137.1,71.8,212.8,71.8,212.8z"/>
			</g>
			<g>
				<path class="st2" d="M205.7,296.1l-70.9-40.9v-81.9l70.9-40.9l70.9,40.9v81.9L205.7,296.1z M140.2,252l65.4,37.8L271,252v-75.6
					l-65.4-37.8l-65.4,37.8L140.2,252L140.2,252z"/>
			</g>
			<g>
				<path class="st2" d="M1.2,178.1l-70.9-40.9V55.3l70.9-41l70.9,40.9v81.9L1.2,178.1z M-64.3,134l65.4,37.8L66.6,134V58.4
					L1.2,20.6l-65.4,37.8L-64.3,134L-64.3,134z"/>
			</g>
			<g>
				<path class="st2" d="M137.7,99.5L66.8,58.6v-81.9l70.9-40.9l70.9,40.9v81.9L137.7,99.5z M72.2,55.4l65.4,37.8L203,55.4v-75.6
					L137.6-58L72.2-20.1V55.4z"/>
			</g>
			<g>
				<path class="st2" d="M274.1,178.2l-139-80.3V-62.7l139-80.3l139.1,80.3V97.9L274.1,178.2z M140.5,94.8l133.6,77.1l133.6-77.1
					V-59.5l-133.6-77.1L140.5-59.5V94.8z"/>
			</g>
			<g>
				<path class="st2" d="M69.3,217.4L-137.9,97.8v-239.3L69.3-261.2l207.3,119.7V97.8l-1.4,0.8L69.3,217.4z M-132.5,94.6L69.3,211.1
					L271.1,94.6v-233L69.3-254.9l-201.8,116.5V94.6z"/>
			</g>
			<g>
				<path class="st2" d="M274.3,257.1l-71-41v-82l71-41l71,41v82L274.3,257.1z M208.7,212.9l65.6,37.9l65.6-37.9v-75.7l-65.6-37.9
					l-65.6,37.9L208.7,212.9L208.7,212.9z"/>
			</g>
			<g>
				<path class="st2" d="M274.2,336l-71-41v-82l71-41l71,41v82L274.2,336z M208.6,291.9l65.6,37.9l65.6-37.9v-75.7l-65.6-37.9
					l-65.6,37.9V291.9z"/>
			</g>
			<g>
				<path class="st2" d="M1297.6,689.7l-71-41v-82l71-41l71,41v82L1297.6,689.7z M1232,645.5l65.6,37.9l65.6-37.9v-75.7l-65.6-37.9
					l-65.6,37.9V645.5z"/>
			</g>
			<g>
				<path class="st2" d="M342.4-97.4l-71-41v-82l71-41l71,41v82L342.4-97.4z M276.8-141.6l65.6,37.9l65.6-37.9v-75.7l-65.6-37.9
					l-65.6,37.9V-141.6z"/>
			</g>
			<g>
				<path class="st2" d="M1092.2,1122.2l-1.4-0.8l-205.9-118.9V763.2l1.4-0.8l205.9-118.9l207.3,119.7v239.3l-1.4,0.8L1092.2,1122.2
					z M890.4,999.4l201.8,116.5L1294,999.4v-233l-201.8-116.5L890.4,766.4V999.4z"/>
			</g>
			<g>
				<path class="st2" d="M138.3,1279.6l-70.9-40.9v-81.9l70.9-40.9l70.9,40.9v81.9L138.3,1279.6z M72.8,1235.5l65.4,37.8l65.4-37.8
					V1160l-65.4-37.8L72.8,1160V1235.5z"/>
			</g>
			<g>
				<path class="st2" d="M70.1,1161.6l-70.9-40.9v-81.9l70.9-40.9l70.9,40.9v81.9L70.1,1161.6z M4.7,1117.5l65.4,37.8l65.4-37.8
					v-75.6l-65.4-37.8l-65.4,37.8C4.7,1041.9,4.7,1117.5,4.7,1117.5z"/>
			</g>
			<g class="st3">
				<g>
					<path class="st2" d="M70.1,1082.8l-70.9-40.9V960l70.9-40.9L141,960v81.9L70.1,1082.8z M4.7,1038.7l65.4,37.8l65.4-37.8v-75.6
						l-65.4-37.8L4.7,963.2V1038.7z"/>
				</g>
			</g>
			<g>
				<path class="st2" d="M274.6,1200.9l-1.4-0.8l-137.7-79.5V960l139.1-80.3l1.4,0.8L413.7,960v160.6L274.6,1200.9z M141,1117.5
					l133.6,77.1l133.6-77.1V963.2l-133.6-77.1L141,963.2V1117.5z"/>
			</g>
			<g>
				<path class="st2" d="M70,1004.1l-1.4-0.8l-205.9-118.9V645.1l1.4-0.8L70,525.5l207.3,119.7v239.3L70,1004.1z M-131.8,881.3
					L70,997.8l201.8-116.5v-233L70,531.8l-201.8,116.5V881.3z"/>
			</g>
			<g>
				<path class="st2" d="M206.5,1082.8l-1.4-0.8L-0.8,963.2V723.9l207.3-119.7l207.3,119.7v239.3L206.5,1082.8z M4.7,960
					l201.8,116.5L408.2,960V727L206.5,610.5L4.7,727V960z"/>
			</g>
			<g>
				<path class="st2" d="M138.3,1437.1l-1.4-0.8l-137.7-79.5v-160.6l139.1-80.3l1.4,0.8l137.7,79.5v160.6L138.3,1437.1z M4.6,1353.6
					l133.6,77.1l133.6-77.1v-154.3l-133.6-77.1L4.6,1199.3V1353.6z"/>
			</g>
			<g>
				<path class="st2" d="M138.3,1200.9l-71-41v-82l71-41l71,41v82L138.3,1200.9z M72.7,1156.8l65.6,37.9l65.6-37.9V1081l-65.6-37.9
					L72.7,1081V1156.8z"/>
			</g>
			<g>
				<path class="st2" d="M138.3,964.9L67.4,924v-81.9l70.9-40.9l70.9,40.9V924L138.3,964.9z M72.8,920.8l65.4,37.8l65.4-37.8v-75.6
					l-65.4-37.8l-65.4,37.8C72.8,845.2,72.8,920.8,72.8,920.8z"/>
			</g>
			<g class="st3">
				<g>
					<path class="st2" d="M70.1,1083l-70.9-40.9v-81.9l70.9-40.9l70.9,40.9v81.9L70.1,1083z M4.7,1038.9l65.4,37.8l65.4-37.8v-75.6
						l-65.4-37.8L4.7,963.3V1038.9z"/>
				</g>
			</g>
			<g class="st3">
				<g>
					<path class="st2" d="M70.1,1161.7l-70.9-40.9v-81.9L70.1,998l70.9,40.9v81.9L70.1,1161.7z M4.7,1117.6l65.4,37.8l65.4-37.8
						V1042l-65.4-37.8L4.7,1042C4.7,1042,4.7,1117.6,4.7,1117.6z"/>
				</g>
			</g>
			<g class="st3">
				<g>
					<path class="st2" d="M274.6,1201.1l-1.4-0.8l-137.7-79.5V960.2l139.1-80.3l1.4,0.8l137.7,79.5v160.6L274.6,1201.1z M141,1117.6
						l133.6,77.1l133.6-77.1V963.3l-133.6-77.1L141,963.3V1117.6z"/>
				</g>
			</g>
			<g class="st3">
				<g>
					<path class="st2" d="M206.5,1476.6l-1.4-0.8L-0.8,1356.9v-239.3L206.5,998l1.4,0.8l205.9,118.9V1357L206.5,1476.6z M4.7,1353.8
						l201.8,116.5l201.8-116.5v-233l-201.8-116.5L4.7,1120.8V1353.8z"/>
				</g>
			</g>
			<g>
				<path class="st2" d="M138.3,964.9l-1.4-0.8L-0.8,884.6V724l139.1-80.3L277.4,724v160.6L138.3,964.9z M4.6,881.5l133.6,77.1
					l133.6-77.1V727.2L138.3,650L4.6,727.2V881.5z"/>
			</g>
			<g>
				<path class="st2" d="M138.3,1043.9l-71-41v-82l71-41l71,41v82L138.3,1043.9z M72.7,999.8l65.6,37.9l65.6-37.9V924l-65.6-37.9
					L72.7,924V999.8z"/>
			</g>
			<g>
				<path class="st2" d="M138.3,1437.2l-70.9-40.9v-81.9l70.9-40.9l70.9,40.9v81.9L138.3,1437.2z M72.8,1393.1l65.4,37.8l65.4-37.8
					v-75.6l-65.4-37.8l-65.4,37.8C72.8,1317.5,72.8,1393.1,72.8,1393.1z"/>
			</g>
			<g class="st3">
				<g>
					<path class="st2" d="M274.7,1515.9l-1.4-0.8l-137.7-79.5V1275l139.1-80.3l1.4,0.8l137.7,79.5v160.6L274.7,1515.9z
						 M141.1,1432.4l133.6,77.1l133.6-77.1v-154.3L274.7,1201l-133.6,77.1V1432.4z"/>
				</g>
			</g>
			<g class="st3">
				<g>
					<path class="st2" d="M138.3,1358.4l-1.4-0.8l-137.7-79.5v-160.6l139.1-80.3l1.4,0.8l137.7,79.5v160.6L138.3,1358.4z M4.7,1275
						l133.6,77.1l133.6-77.1v-154.3l-133.6-77.1L4.7,1120.7V1275z"/>
				</g>
			</g>
			<path class="st2" d="M752.5,1398.8l-71-41v-82l71-41l71,41v82L752.5,1398.8z M686.9,1354.6l65.6,37.9l65.6-37.9v-75.7l-65.6-37.9
				l-65.6,37.9V1354.6z"/>
			<g>
				<g>
					<path class="st2" d="M479.7,1555l-1.4-0.8l-205.9-118.9V1196l207.3-119.7l1.4,0.8L686.9,1196v239.3l-1.4,0.8L479.7,1555z
						 M277.9,1432.2l201.8,116.5l201.8-116.5v-233l-201.8-116.5l-201.8,116.5L277.9,1432.2L277.9,1432.2z"/>
				</g>
			</g>
			<g>
				<path class="st2" d="M1366.3,650.1l-139.1-80.3V409.2l139.1-80.3l139.1,80.3v160.6L1366.3,650.1z M1232.7,566.6l133.6,77.1
					l133.6-77.1V412.4l-133.6-77.1l-133.6,77.1V566.6z"/>
			</g>
			<g>
				<path class="st2" d="M1502.7,335.4l-70.9-40.9v-81.9l70.9-40.9l70.9,40.9v81.9L1502.7,335.4z M1437.2,291.3l65.4,37.8l65.4-37.8
					v-75.6l-65.4-37.8l-65.4,37.8V291.3z"/>
			</g>
			<g>
				<path class="st2" d="M1502.7,256.7l-70.9-40.9v-81.9l70.9-40.9l70.9,40.9v81.9L1502.7,256.7z M1437.2,212.6l65.4,37.8l65.4-37.8
					V137l-65.4-37.8l-65.4,37.8V212.6z"/>
			</g>
			<g>
				<path class="st2" d="M1366.3,492.7l-139.1-80.3V251.8l139.1-80.3l139.1,80.3v160.6L1366.3,492.7z M1232.7,409.2l133.6,77.1
					l133.6-77.1V254.9l-133.6-77.1l-133.6,77.1V409.2z"/>
			</g>
			<g>
				<path class="st2" d="M1502.5,177.9L1295.2,58.3V-181l1.4-0.8l205.9-118.9L1709.8-181V58.3L1502.5,177.9z M1300.7,55.1
					l201.8,116.5l201.8-116.5v-233l-201.8-116.5l-201.8,116.5V55.1z"/>
			</g>
			<g>
				<path class="st2" d="M1570.8,610.9l-139.1-80.3V370l139.1-80.3l139.1,80.3v160.6L1570.8,610.9z M1437.2,527.4l133.6,77.1
					l133.6-77.1V373.2L1570.8,296l-133.6,77.1L1437.2,527.4L1437.2,527.4z"/>
			</g>
			<g>
				<path class="st2" d="M1502.7,256.8l-70.9-40.9V134l70.9-40.9l70.9,40.9v81.9L1502.7,256.8z M1437.2,212.7l65.4,37.8l65.4-37.8
					v-75.6l-65.4-37.8l-65.4,37.8V212.7z"/>
			</g>
			<g>
				<path class="st2" d="M1502.7,335.5l-70.9-40.9v-81.9l70.9-40.9l70.9,40.9v81.9L1502.7,335.5z M1437.2,291.4l65.4,37.8l65.4-37.8
					v-75.6l-65.4-37.8l-65.4,37.8V291.4z"/>
			</g>
			<g>
				<path class="st2" d="M1366.3,257l-139.1-80.3V16.1l139.1-80.3l139.1,80.3v160.6L1366.3,257z M1232.7,173.5l133.6,77.1
					l133.6-77.1V19.2l-133.6-77.1l-133.6,77.1V173.5z"/>
			</g>
			<g>
				<path class="st2" d="M1570.8,138.7l-139.1-80.3v-160.6l139.1-80.3l139.1,80.3V58.4L1570.8,138.7z M1437.2,55.3l133.6,77.1
					l133.6-77.1V-99l-133.6-77.1L1437.2-99V55.3z"/>
			</g>
			<g>
				<path class="st2" d="M1366.5,571.9l-71-41v-82l71-41l71,41v82L1366.5,571.9z M1300.9,527.8l65.6,37.9l65.6-37.9v-75.7
					l-65.6-37.9l-65.6,37.9V527.8z"/>
			</g>
			<g>
				<path class="st2" d="M1366.5,335.2l-71-41v-82l71-41l71,41v82L1366.5,335.2z M1300.9,291l65.6,37.9L1432,291v-75.7l-65.6-37.9
					l-65.6,37.9L1300.9,291L1300.9,291z"/>
			</g>
			<g>
				<path class="st2" d="M1570.8,532.3L1431.7,452V291.4l139.1-80.3l139.1,80.3V452L1570.8,532.3z M1437.2,448.8l133.6,77.1
					l133.6-77.1V294.5l-133.6-77.1l-133.6,77.1V448.8z"/>
			</g>
			<g>
				<path class="st2" d="M1502.5,729.1l-207.3-119.7V370.2l207.3-119.7l207.3,119.7v239.3l-1.4,0.8L1502.5,729.1z M1300.7,606.3
					l201.8,116.5l201.8-116.5v-233l-201.8-116.5l-201.8,116.5V606.3z"/>
			</g>
			<g>
				<path class="st2" d="M1229.8,414.8l-71-41v-82l71-41l71.1,41v82L1229.8,414.8z M1164.3,370.6l65.6,37.9l65.6-37.9v-75.7
					l-65.6-37.9l-65.6,37.9V370.6z"/>
			</g>
			<g>
				<path class="st2" d="M1229.9,256.2l-70.9-40.9v-81.9l70.9-40.9l70.9,40.9v81.9L1229.9,256.2z M1164.5,212.1l65.4,37.8l65.4-37.8
					v-75.6l-65.4-37.8l-65.4,37.8V212.1z"/>
			</g>
			<g>
				<path class="st2" d="M1230,572.2l-71-41v-82l71-41l71,41v82L1230,572.2z M1164.4,528l65.6,37.9l65.6-37.9v-75.7l-65.6-37.9
					l-65.6,37.9V528z"/>
			</g>
			<g>
				<path class="st2" d="M1298.1,138.8l-71-41v-82l71-41l71,41v82L1298.1,138.8z M1232.6,94.6l65.6,37.9l65.6-37.9V18.9L1298.1-19
					l-65.6,37.9L1232.6,94.6L1232.6,94.6z"/>
			</g>
			<g>
				<path class="st2" d="M887.7,690l-71-41v-82l71-41l71,41v82L887.7,690z M822.1,645.8l65.6,37.9l65.6-37.9v-75.7l-65.6-37.9
					l-65.6,37.9V645.8z"/>
			</g>
		</g>
	</g>
</g>
<g>
	<path class="st4" d="M175.5,274.8l-2.5,7h-0.1c-0.4-1.6-1.2-3.9-2.4-6.9l-13.3-33.4h-13v53.1h8.6V262c0-2,0-4.5-0.1-7.2
		c0-1.4-0.2-2.5-0.2-3.4h0.2c0.4,2,0.9,3.5,1.2,4.5l16,38.8h6l15.8-39.1c0.4-0.9,0.7-2.6,1.1-4.2h0.2c-0.2,3.9-0.4,7.4-0.4,9.5v33.8
		h9.2v-53.1h-12.5L175.5,274.8"/>
	<polyline class="st4" points="210.2,294.6 219.2,294.6 219.2,265.9 219.2,256.5 210.2,256.5 210.2,279.9 210.2,294.6 	"/>
	<path class="st4" d="M214.8,240.4c-1.5,0-2.8,0.5-3.8,1.5c-1.1,1-1.6,2.3-1.6,3.7c0,1.5,0.5,2.7,1.6,3.7c1,1,2.3,1.5,3.8,1.5
		s2.8-0.5,3.8-1.5c1.1-1,1.6-2.2,1.6-3.7c0-1.4-0.5-2.7-1.6-3.7C217.7,240.9,216.4,240.4,214.8,240.4"/>
	<path class="st4" d="M250.9,256.2c-1.7-0.4-3.4-0.5-5-0.5c-4.1,0-7.8,0.9-10.9,2.6c-3.1,1.7-5.5,4.2-7.2,7.4
		c-1.6,3.2-2.5,6.8-2.5,10.9c0,3.6,0.8,6.9,2.4,9.8c1.6,2.9,3.8,5.2,6.7,6.8c2.8,1.6,6.1,2.4,9.8,2.4c4.3,0,7.9-0.9,10.8-2.5
		l0.1-0.1v-8.2l-0.4,0.3c-1.3,1-2.8,1.7-4.4,2.3c-1.6,0.6-3,0.8-4.3,0.8c-3.5,0-6.3-1.1-8.4-3.3c-2.1-2.2-3.1-5.2-3.1-9.1
		s1.1-7,3.2-9.3c2.1-2.3,5-3.5,8.4-3.5c2.9,0,5.8,1,8.5,3l0.4,0.3v-8.6l-0.1-0.1C254,257,252.6,256.5,250.9,256.2"/>
	<path class="st4" d="M280.4,255.9c-2.2,0-4.3,0.7-6,2.1c-1.5,1.3-2.6,3-3.4,5.1h-0.1v-6.6h-9v38.1h9v-19.5c0-3.3,0.7-6,2.2-8.1
		c1.5-2,3.4-3.1,5.8-3.1c0.8,0,1.7,0.1,2.7,0.4s1.7,0.5,2.1,0.8l0.4,0.3v-9l-0.1-0.1C283,256.1,281.9,255.9,280.4,255.9"/>
	<path class="st4" d="M311.8,284.9c-1.7,2.1-4.2,3.2-7.5,3.2s-5.9-1.1-7.7-3.2c-1.8-2.2-2.8-5.2-2.8-9.2s0.9-7.2,2.8-9.4
		c1.8-2.2,4.4-3.3,7.6-3.3c3.1,0,5.6,1.1,7.4,3.1c1.8,2.1,2.7,5.2,2.7,9.3C314.4,279.6,313.5,282.8,311.8,284.9 M304.7,255.6
		c-6.3,0-11.3,1.8-14.8,5.5c-3.6,3.6-5.3,8.7-5.3,14.9c0,6,1.8,10.8,5.2,14.3c3.5,3.5,8.2,5.3,14,5.3c6.1,0,11-1.9,14.5-5.5
		c3.6-3.7,5.3-8.6,5.3-14.8c0-6.1-1.7-10.9-5-14.4C315.3,257.4,310.6,255.6,304.7,255.6"/>
	<path class="st4" d="M343.5,272.3c-2.8-1.1-4.6-2.1-5.4-2.8c-0.7-0.7-1.1-1.7-1.1-2.9c0-1.1,0.4-2,1.4-2.7c0.9-0.7,2.2-1.1,3.9-1.1
		c1.5,0,3.1,0.2,4.6,0.7s2.9,1.1,4,1.9l0.4,0.3v-8.3l-0.1-0.1c-1-0.4-2.4-0.8-4.1-1.1c-1.7-0.3-3.2-0.5-4.5-0.5
		c-4.3,0-7.8,1.1-10.5,3.2c-2.7,2.2-4.1,5-4.1,8.4c0,1.8,0.3,3.4,0.9,4.7c0.6,1.4,1.5,2.5,2.7,3.5s3,2,5.5,3.1
		c2.1,0.8,3.6,1.6,4.6,2.1c1,0.6,1.6,1.1,2,1.7c0.4,0.5,0.6,1.3,0.6,2.2c0,2.6-1.9,3.8-5.9,3.8c-1.5,0-3.1-0.3-5-0.9
		c-1.8-0.6-3.5-1.5-5.1-2.6l-0.4-0.3v8.7l0.1,0.1c1.3,0.6,2.9,1.1,4.8,1.5s3.6,0.6,5.1,0.6c4.6,0,8.4-1.1,11.1-3.3
		c2.7-2.2,4.1-5.1,4.1-8.7c0-2.6-0.7-4.8-2.2-6.5C349.6,275.3,347,273.7,343.5,272.3"/>
	<path class="st4" d="M384.4,284.9c-1.7,2.1-4.2,3.2-7.5,3.2s-5.9-1.1-7.7-3.2c-1.8-2.2-2.8-5.2-2.8-9.2s0.9-7.2,2.8-9.4
		c1.8-2.2,4.4-3.3,7.6-3.3c3.1,0,5.6,1.1,7.4,3.1c1.8,2.1,2.7,5.2,2.7,9.3C387,279.6,386.1,282.8,384.4,284.9 M377.3,255.6
		c-6.3,0-11.3,1.8-14.8,5.5c-3.5,3.6-5.3,8.7-5.3,14.9c0,6,1.8,10.8,5.2,14.3c3.5,3.5,8.2,5.3,14,5.3c6.1,0,11-1.9,14.5-5.5
		c3.6-3.7,5.3-8.6,5.3-14.8c0-6.1-1.7-10.9-5-14.4C387.9,257.4,383.2,255.6,377.3,255.6"/>
	<path class="st4" d="M444,263.8v-7.3h-9.1v-11.4l-0.3,0.1l-8.5,2.6l-0.2,0.1v8.6h-13.4v-4.8c0-2.2,0.5-3.9,1.5-5.1
		c1-1.1,2.4-1.7,4.2-1.7c1.3,0,2.6,0.3,3.9,0.9l0.3,0.1v-7.7l-0.2-0.1c-1.2-0.4-2.9-0.7-5-0.7c-2.6,0-5,0.6-7.1,1.7
		c-2.1,1.1-3.7,2.8-4.9,4.9c-1.2,2.1-1.7,4.5-1.7,7.1v5.3h-6.3v7.3h6.3v30.8h9.1v-30.8H426v19.6c0,8.1,3.8,12.1,11.3,12.1
		c1.2,0,2.5-0.1,3.8-0.4s2.3-0.6,2.8-0.9l0.1-0.1v-7.4l-0.4,0.2c-0.5,0.3-1.1,0.6-1.8,0.8c-0.7,0.2-1.3,0.3-1.8,0.3
		c-1.8,0-3.1-0.5-3.9-1.4s-1.2-2.6-1.2-4.9v-18h9.1"/>
	<polyline class="st4" points="71.1,265.9 29,265.9 29,223.7 71.1,223.7 71.1,265.9 	"/>
	<polyline class="st4" points="117.6,265.9 75.5,265.9 75.5,223.7 117.6,223.7 117.6,265.9 	"/>
	<polyline class="st4" points="71.1,312.4 29,312.4 29,270.3 71.1,270.3 71.1,312.4 	"/>
	<polyline class="st4" points="117.6,312.4 75.5,312.4 75.5,270.3 117.6,270.3 117.6,312.4 	"/>
</g>
</svg>
