<?xml version="1.0" encoding="utf-8"?>
<!-- Generator: Adobe Illustrator 22.0.0, SVG Export Plug-In . SVG Version: 6.00 Build 0)  -->
<!DOCTYPE svg PUBLIC "-//W3C//DTD SVG 1.1//EN" "http://www.w3.org/Graphics/SVG/1.1/DTD/svg11.dtd">
<svg version="1.1" id="Слой_1" xmlns="http://www.w3.org/2000/svg" xmlns:xlink="http://www.w3.org/1999/xlink" x="0px" y="0px"
	 viewBox="0 0 476 555" style="enable-background:new 0 0 476 555;" xml:space="preserve">
<style type="text/css">
	.st0{fill:url(#SVGID_1_);}
	.st1{clip-path:url(#SVGID_3_);}
	.st2{fill:#FF9600;}
	.st3{opacity:0.5;}
	.st4{fill:#FFFFFF;}
</style>
<linearGradient id="SVGID_1_" gradientUnits="userSpaceOnUse" x1="-867.6099" y1="906.7948" x2="479.5248" y2="138.718" gradientTransform="matrix(1 0 0 -1 0 555.8898)">
	<stop  offset="0" style="stop-color:#FFCD44"/>
	<stop  offset="3.262098e-03" style="stop-color:#FFCC43"/>
	<stop  offset="9.008178e-02" style="stop-color:#F9B12B"/>
	<stop  offset="0.1847" style="stop-color:#F59D18"/>
	<stop  offset="0.2913" style="stop-color:#F18E0A"/>
	<stop  offset="0.4187" style="stop-color:#F08602"/>
	<stop  offset="0.6213" style="stop-color:#EF8300"/>
	<stop  offset="1" style="stop-color:#EC6D05"/>
</linearGradient>
<polygon class="st0" points="476.9,417.4 476.9,142.1 238.5,4.5 0.1,142.1 0.1,417.4 238.5,555 "/>
<g>
	<g>
		<defs>
			<polygon id="SVGID_2_" points="475.9,416.9 475.9,141.6 237.5,4 -0.9,141.6 -0.9,416.9 237.5,554.5 			"/>
		</defs>
		<clipPath id="SVGID_3_">
			<use xlink:href="#SVGID_2_"  style="overflow:visible;"/>
		</clipPath>
		<g class="st1">
			<g>
				<path class="st2" d="M579.7,1545.2l-1.4-0.8l-137.7-79.5v-160.6l139.1-80.3l1.4,0.8l137.7,79.5v160.6L579.7,1545.2z
					 M446.1,1461.7l133.6,77.1l133.6-77.1v-154.3l-133.6-77.1l-133.6,77.1L446.1,1461.7L446.1,1461.7z"/>
			</g>
			<g>
				<path class="st2" d="M375.1,1584.4l-70.9-40.9v-81.9l70.9-40.9l70.9,40.9v81.9L375.1,1584.4z M309.7,1540.3l65.4,37.8l65.4-37.8
					v-75.6l-65.4-37.8l-65.4,37.8V1540.3z"/>
			</g>
			<g>
				<path class="st2" d="M443.3,1702.5l-70.9-40.9v-81.9l70.9-40.9l70.9,40.9v81.9L443.3,1702.5z M377.9,1658.4l65.4,37.8l65.4-37.8
					v-75.6l-65.4-37.8l-65.4,37.8V1658.4z"/>
			</g>
			<g>
				<path class="st2" d="M-34,1584.4l-70.9-40.9v-81.9l70.9-40.9l70.9,40.9v81.9L-34,1584.4z M-99.5,1540.3l65.4,37.8l65.4-37.8
					v-75.6l-65.4-37.8l-65.4,37.8V1540.3z"/>
			</g>
			<g>
				<path class="st2" d="M170.5,1466.3l-70.9-40.9v-81.9l70.9-40.9l70.9,40.9v81.9L170.5,1466.3z M105.1,1422.2l65.4,37.8l65.4-37.8
					v-75.6l-65.4-37.8l-65.4,37.8V1422.2z"/>
			</g>
			<g>
				<path class="st2" d="M579.6,1702.6l-1.4-0.8l-137.7-79.5v-160.6l139.1-80.3l1.4,0.8l137.7,79.5v160.6L579.6,1702.6z M446,1619.2
					l133.6,77.1l133.6-77.1v-154.3l-133.6-77.1L446,1464.9V1619.2z"/>
			</g>
			<g>
				<path class="st2" d="M34.1,1466.1l-1.4-0.8l-137.7-79.5v-160.6l139.1-80.3l1.4,0.8l137.7,79.5v160.6L34.1,1466.1z M-99.5,1382.7
					l133.6,77.1l133.6-77.1v-154.3l-133.6-77.1l-133.6,77.1V1382.7z"/>
			</g>
			<g>
				<path class="st2" d="M34.1,1623.7l-1.4-0.8L-173.2,1504v-239.3L34.1,1145l1.4,0.8l205.9,118.9V1504l-1.4,0.8L34.1,1623.7z
					 M-167.6,1500.9l201.8,116.5L236,1500.9v-233L34.1,1151.4l-201.8,116.5v233H-167.6z"/>
			</g>
			<g>
				<path class="st2" d="M375.2,1584.4l-1.4-0.8l-137.7-79.5v-160.6l139.1-80.3l1.4,0.8l137.7,79.5v160.6L375.2,1584.4z
					 M241.5,1500.9l133.6,77.1l133.6-77.1v-154.3l-133.5-77.1l-133.6,77.1v154.3H241.5z"/>
			</g>
			<g>
				<path class="st2" d="M375.1,1663.4l-71-41v-82l71-41l71,41v82L375.1,1663.4z M309.6,1619.2l65.6,37.9l65.6-37.9v-75.7
					l-65.6-37.9l-65.6,37.9V1619.2z"/>
			</g>
			<g>
				<path class="st2" d="M-102.2,1545.2l-71-41v-82l71-41l71,41v82L-102.2,1545.2z M-167.8,1501l65.6,37.9l65.6-37.9v-75.7
					l-65.6-37.9l-65.6,37.9V1501z"/>
			</g>
			<g>
				<path class="st2" d="M170.5,1387.6l-71-41v-82l71-41l71,41v82L170.5,1387.6z M104.9,1343.4l65.6,37.9l65.6-37.9v-75.7
					l-65.6-37.9l-65.6,37.9V1343.4z"/>
			</g>
			<g>
				<path class="st2" d="M443.3,1702.3l-70.9-40.9v-81.9l70.9-40.9l70.9,40.9v81.9L443.3,1702.3z M377.9,1658.2l65.4,37.8l65.4-37.8
					v-75.6l-65.4-37.8l-65.4,37.8V1658.2z"/>
			</g>
			<g>
				<path class="st2" d="M-238.5,1072.6l-70.9-40.9v-81.9l70.9-40.9l70.9,40.9v81.9L-238.5,1072.6z M-304,1028.5l65.4,37.8
					l65.4-37.8v-75.6l-65.4-37.8l-65.4,37.8V1028.5z"/>
			</g>
			<g>
				<path class="st2" d="M102.3,1663l-1.4-0.8l-137.7-79.5v-160.6l139.1-80.3l1.4,0.8l137.7,79.5v160.6L102.3,1663z M-31.3,1579.5
					l133.6,77.1l133.6-77.1v-154.3l-133.6-77.1l-133.6,77.1C-31.3,1425.2-31.3,1579.5-31.3,1579.5z"/>
			</g>
			<g>
				<path class="st2" d="M306.9,1702.3l-1.4-0.8L99.7,1582.6v-239.3L307,1223.6l1.4,0.8l205.9,118.9v239.3L306.9,1702.3z
					 M105.2,1579.5L307,1696l201.7-116.5v-233L306.9,1230l-201.7,116.5V1579.5z"/>
			</g>
			<g>
				<path class="st2" d="M-375.2,1308.9l-1.4-0.8l-137.7-79.5V1068l139.1-80.3l139.1,80.3v160.6L-375.2,1308.9z M-508.8,1225.4
					l133.6,77.1l133.6-77.1v-154.3L-375.2,994l-133.6,77.1V1225.4z"/>
			</g>
			<g>
				<path class="st2" d="M579.5,1466.2l-71-41v-82l71-41l71,41v82L579.5,1466.2z M513.9,1422l65.6,37.9l65.6-37.9v-75.7l-65.6-37.9
					l-65.6,37.9V1422z"/>
			</g>
			<g>
				<path class="st2" d="M-239.1,1466.3l-71-41v-82l71-41l71,41v82L-239.1,1466.3z M-304.7,1422.1l65.6,37.9l65.6-37.9v-75.7
					l-65.6-37.9l-65.6,37.9V1422.1z"/>
			</g>
			<g>
				<path class="st2" d="M170.8,1151.4l-71-41v-82l71-41l71,41v82L170.8,1151.4z M105.2,1107.2l65.6,37.9l65.6-37.9v-75.7
					l-65.6-37.9l-65.6,37.9C105.2,1031.5,105.2,1107.2,105.2,1107.2z"/>
			</g>
			<g>
				<path class="st2" d="M579.5,1702.9l-71-41v-82l71-41l71,41v82L579.5,1702.9z M513.9,1658.8l65.6,37.9l65.6-37.9v-75.7
					l-65.6-37.9l-65.6,37.9V1658.8z"/>
			</g>
			<g>
				<path class="st2" d="M170.6,1466.3l-71-41v-82l71-41l71,41v82L170.6,1466.3z M105.1,1422.1l65.6,37.9l65.6-37.9v-75.7
					l-65.6-37.9l-65.6,37.9L105.1,1422.1L105.1,1422.1z"/>
			</g>
			<g>
				<path class="st2" d="M102.3,1269.4l-70.9-40.9v-81.9l70.9-40.9l70.9,40.9v81.9L102.3,1269.4z M36.9,1225.3l65.4,37.8l65.4-37.8
					v-75.6l-65.4-37.8l-65.4,37.8C36.9,1149.7,36.9,1225.3,36.9,1225.3z"/>
			</g>
			<g>
				<path class="st2" d="M34.2,1387.5l-70.9-40.9v-81.9l70.9-40.9l70.9,40.9v81.9L34.2,1387.5z M-31.3,1343.4l65.4,37.8l65.4-37.8
					v-75.6L34.1,1230l-65.4,37.8C-31.3,1267.8-31.3,1343.4-31.3,1343.4z"/>
			</g>
			<g>
				<path class="st2" d="M34.2,1466.2l-70.9-40.9v-81.9l70.9-40.9l70.9,40.9v81.9L34.2,1466.2z M-31.3,1422.1l65.4,37.8l65.4-37.8
					v-75.6l-65.4-37.8l-65.4,37.8C-31.3,1346.5-31.3,1422.1-31.3,1422.1z"/>
			</g>
			<g>
				<path class="st2" d="M510.5,1821.1l-70.9-40.9v-81.9l70.9-40.9l70.9,40.9v81.9L510.5,1821.1z M445.1,1777l65.4,37.8l65.4-37.8
					v-75.6l-65.4-37.8l-65.4,37.8L445.1,1777L445.1,1777z"/>
			</g>
			<g>
				<path class="st2" d="M648.3,1742.3l-70.9-40.9v-81.9l70.9-40.9l70.9,40.9v81.9L648.3,1742.3z M582.8,1698.2l65.4,37.8l65.4-37.8
					v-75.6l-65.4-37.8l-65.4,37.8V1698.2z"/>
			</g>
			<g>
				<path class="st2" d="M375.1,1426.9l-70.9-40.9v-81.9l70.9-40.9l70.9,40.9v81.9L375.1,1426.9z M309.7,1382.8l65.4,37.8l65.4-37.8
					v-75.6l-65.4-37.8l-65.4,37.8V1382.8z"/>
			</g>
			<g>
				<path class="st2" d="M238.7,1505.6l-1.4-0.8l-137.7-79.5v-160.6l139.1-80.3l1.4,0.8l137.7,79.5v160.6L238.7,1505.6z
					 M105.1,1422.1l133.6,77.1l133.6-77.1v-154.3l-133.6-77.1l-133.6,77.1C105.1,1267.8,105.1,1422.1,105.1,1422.1z"/>
			</g>
			<g>
				<path class="st2" d="M-102.2,1387.7l-139.1-80.3v-160.6l139.1-80.3l139.1,80.3v160.6L-102.2,1387.7z M-235.8,1304.2l133.6,77.1
					l133.6-77.1v-154.3l-133.6-77.1l-133.6,77.1V1304.2z"/>
			</g>
			<g>
				<path class="st2" d="M375.1,1663l-1.4-0.8L236,1582.7v-160.6l139.1-80.3l1.4,0.8l137.7,79.5v160.6L375.1,1663z M241.5,1579.6
					l133.6,77.1l133.6-77.1v-154.3l-133.6-77.1l-133.6,77.1V1579.6z"/>
			</g>
			<g>
				<path class="st2" d="M-238.8,1308.6l-1.4-0.8l-205.9-118.9V949.7l1.4-0.8L-238.8,830l207.3,119.7V1189L-238.8,1308.6z
					 M-440.6,1185.8l201.8,116.5L-37,1185.8v-233l-201.8-116.5l-201.8,116.5V1185.8z"/>
			</g>
			<g>
				<path class="st2" d="M102.3,1269.4l-1.4-0.8l-137.7-79.5v-160.6l139.1-80.3l139.1,80.3v160.6L102.3,1269.4z M-31.3,1186
					l133.6,77.1l133.6-77.1v-154.3l-133.6-77.1l-133.6,77.1C-31.3,1031.7-31.3,1186-31.3,1186z"/>
			</g>
			<g>
				<path class="st2" d="M-170.5,1348.1l-1.4-0.8l-137.7-79.5v-160.6l139.1-80.3l139.1,80.3v160.6L-170.5,1348.1z M-304.1,1264.7
					l133.6,77.1l133.6-77.1v-154.3l-133.6-77.1l-133.6,77.1V1264.7z"/>
			</g>
			<g>
				<path class="st2" d="M102.3,1348.5l-71-41v-82l71-41l71,41v82L102.3,1348.5z M36.7,1304.3l65.6,37.9l65.6-37.9v-75.7l-65.6-37.9
					l-65.6,37.9C36.7,1228.6,36.7,1304.3,36.7,1304.3z"/>
			</g>
			<g>
				<path class="st2" d="M-170.4,1190.9l-71-41v-82l71-41l71.1,41v82L-170.4,1190.9z M-235.9,1146.7l65.6,37.9l65.6-37.9V1071
					l-65.6-37.9l-65.6,37.9V1146.7z"/>
			</g>
			<g>
				<path class="st2" d="M306.8,1702.6l-71-41v-82l71-41l71,41v82L306.8,1702.6z M241.3,1658.4l65.6,37.9l65.6-37.9v-75.7
					l-65.6-37.9l-65.6,37.9L241.3,1658.4L241.3,1658.4z"/>
			</g>
			<g class="st3">
				<g>
					<path class="st2" d="M239.1,1978.5l-1.4-0.8L31.8,1858.8v-239.3l1.4-0.8l205.9-118.9l1.4,0.8l205.8,118.9v239.3L239.1,1978.5z
						 M37.3,1855.7l201.8,116.5l201.8-116.5v-233l-201.8-116.5L37.3,1622.7V1855.7z"/>
				</g>
			</g>
			<g>
				<path class="st2" d="M-375.2,993.9l-70.9-40.9v-81.9l70.9-40.9l70.9,40.9V953L-375.2,993.9z M-440.6,949.8l65.4,37.8l65.4-37.8
					v-75.6l-65.4-37.8l-65.4,37.8V949.8z"/>
			</g>
			<g>
				<path class="st2" d="M-375.2,1623.2l-70.9-40.9v-81.9l70.9-40.9l70.9,40.9v81.9L-375.2,1623.2z M-440.6,1579.1l65.4,37.8
					l65.4-37.8v-75.6l-65.4-37.8l-65.4,37.8V1579.1z"/>
			</g>
			<g>
				<path class="st2" d="M-375.2,1466.3l-70.9-40.9v-81.9l70.9-40.9l70.9,40.9v81.9L-375.2,1466.3z M-440.6,1422.2l65.4,37.8
					l65.4-37.8v-75.6l-65.4-37.8l-65.4,37.8V1422.2z"/>
			</g>
			<g>
				<path class="st2" d="M238.2,1348.3l-1.4-0.8L99.1,1268v-160.6l139.1-80.3l139.1,80.3V1268L238.2,1348.3z M104.6,1264.9
					l133.6,77.1l133.6-77.1v-154.3l-133.6-77.1l-133.6,77.1C104.6,1110.6,104.6,1264.9,104.6,1264.9z"/>
			</g>
			<g class="st3">
				<g>
					<path class="st2" d="M-443.7,1584.3l-1.4-0.8l-137.7-79.5v-160.6l139.1-80.3l1.4,0.8l137.7,79.5V1504L-443.7,1584.3z
						 M-577.4,1500.8l133.6,77.1l133.6-77.1v-154.3l-133.6-77.1l-133.6,77.1V1500.8z"/>
				</g>
			</g>
			<g>
				<path class="st2" d="M-239.1,1229.8l-1.4-0.8l-205.9-118.9V870.8l1.4-0.8l205.9-118.9l207.3,119.7v239.3l-1.4,0.8L-239.1,1229.8
					z M-440.9,1107l201.8,116.5L-37.3,1107V874l-201.8-116.5L-440.9,874L-440.9,1107L-440.9,1107z"/>
			</g>
			<g>
				<path class="st2" d="M375.1,1269.8l-71-41v-82l71-41l71,41v82L375.1,1269.8z M309.6,1225.6l65.6,37.9l65.6-37.9v-75.7
					l-65.6-37.9l-65.6,37.9V1225.6z"/>
			</g>
			<g>
				<path class="st2" d="M-375.2,1387.6l-71-41v-82l71-41l71,41v82L-375.2,1387.6z M-440.7,1343.4l65.6,37.9l65.6-37.9v-75.7
					l-65.6-37.9l-65.6,37.9V1343.4z"/>
			</g>
			<g>
				<path class="st2" d="M-238.7,1623.5l-1.4-0.8L-446,1503.8v-239.3l207.3-119.7l1.4,0.8l205.9,118.9v239.3L-238.7,1623.5z
					 M-440.5,1500.7l201.8,116.5l201.8-116.5v-233l-201.8-116.5l-201.8,116.5V1500.7z"/>
			</g>
			<g>
				<path class="st2" d="M-170.7,1662.8l-70.9-40.9V1540l70.9-40.9l70.9,40.9v81.9L-170.7,1662.8z M-236.1,1618.7l65.4,37.8
					l65.4-37.8v-75.6l-65.4-37.8l-65.4,37.8V1618.7z"/>
			</g>
			<g class="st3">
				<g>
					<path class="st2" d="M-102.5,1702.3l-71-41v-82l71-41l71,41v82L-102.5,1702.3z M-168,1658.1l65.6,37.9l65.6-37.9v-75.7
						l-65.6-37.9l-65.6,37.9V1658.1z"/>
				</g>
			</g>
			<g>
				<path class="st2" d="M716.1,1623.4l-71.1-41v-82l71.1-41l71,41v82L716.1,1623.4z M650.5,1579.2l65.6,37.9l65.6-37.9v-75.7
					l-65.6-37.9l-65.6,37.9V1579.2z"/>
			</g>
			<g>
				<path class="st2" d="M-34.3,1190.7l-139.1-80.3V949.8l139.1-80.3l139.1,80.3v160.6L-34.3,1190.7z M-167.9,1107.3l133.6,77.1
					l133.6-77.1V953l-133.6-77.1L-167.9,953V1107.3z"/>
			</g>
			<g>
				<path class="st2" d="M-375.2,1702l-1.4-0.8l-137.7-79.5v-160.6l139.1-80.3l1.4,0.8l137.7,79.5v160.6L-375.2,1702z
					 M-508.8,1618.5l133.6,77.1l133.6-77.1v-154.3l-133.6-77.1l-133.6,77.1V1618.5z"/>
			</g>
			<g>
				<path class="st2" d="M-307.1,876.1l-71-41v-82l71-41l71,41v82L-307.1,876.1z M-372.7,832l65.6,37.9l65.6-37.9v-75.7l-65.6-37.9
					l-65.6,37.9V832z"/>
			</g>
			<g>
				<path class="st2" d="M34.3,1072.8l-70.9-40.9V950l70.9-40.9l70.9,40.9v81.9L34.3,1072.8z M-31.1,1028.7l65.4,37.8l65.4-37.8
					v-75.6l-65.4-37.8l-65.4,37.8C-31.1,953.1-31.1,1028.7-31.1,1028.7z"/>
			</g>
			<g>
				<path class="st2" d="M-33.9,1032.9l-70.9-40.9v-81.9l70.9-40.9L37,910.1V992L-33.9,1032.9z M-99.3,988.8l65.4,37.8l65.4-37.8
					v-75.6l-65.4-37.7l-65.4,37.8V988.8z"/>
			</g>
			<g>
				<path class="st2" d="M-375.4,836.6l-70.9-40.9v-81.9l70.9-40.9l70.9,40.9v81.9L-375.4,836.6z M-440.9,792.5l65.4,37.8l65.5-37.8
					v-75.6l-65.4-37.8l-65.4,37.8v75.6H-440.9z"/>
			</g>
			<g>
				<path class="st2" d="M-170.9,954.7l-70.9-40.9v-81.9l70.9-40.9l70.9,40.9v81.9L-170.9,954.7z M-236.3,910.6l65.4,37.8l65.4-37.8
					V835l-65.4-37.8l-65.4,37.8L-236.3,910.6L-236.3,910.6z"/>
			</g>
			<g>
				<path class="st2" d="M-307.4,1033.2l-70.9-40.9v-81.9l70.9-40.9l70.9,40.9v81.9L-307.4,1033.2z M-372.9,989.1l65.4,37.8
					l65.4-37.8v-75.6l-65.4-37.8l-65.4,37.8V989.1z"/>
			</g>
			<g>
				<path class="st2" d="M-443.9,1112l-139.1-80.3V871.1l139.1-80.3l139.1,80.3v160.6L-443.9,1112z M-577.5,1028.5l133.6,77.1
					l133.6-77.1V874.2l-133.6-77.1l-133.6,77.1V1028.5z"/>
			</g>
			<g>
				<path class="st2" d="M-239.1,1230.2l-1.4-0.8l-205.9-118.9V871.2l1.4-0.8l205.9-118.9l207.3,119.7v239.3l-1.4,0.8L-239.1,1230.2
					z M-440.9,1107.4l201.8,116.5l201.8-116.5v-233l-201.8-116.5l-201.8,116.5V1107.4z"/>
			</g>
			<g>
				<path class="st2" d="M-444.1,876l-71.1-41v-82l71.1-41l71,41v82L-444.1,876z M-509.6,831.8l65.6,37.9l65.6-37.9v-75.7
					l-65.6-37.9l-65.6,37.9V831.8z"/>
			</g>
			<g>
				<path class="st2" d="M716,1466l-71-41v-82l71-41l71,41v82L716,1466z M650.4,1421.8l65.6,37.9l65.6-37.9v-75.7l-65.6-37.9
					l-65.6,37.9V1421.8z"/>
			</g>
			<g>
				<path class="st2" d="M-307.4,1112.3l-71-41v-82l71-41l71,41v82L-307.4,1112.3z M-373,1068.1l65.6,37.9l65.6-37.9v-75.7
					l-65.6-37.9l-65.6,37.9V1068.1z"/>
			</g>
			<g>
				<path class="st2" d="M852.9,1466.9l-1.4-0.8l-137.7-79.5V1226l139.1-80.3l1.4,0.8L992,1226v160.6L852.9,1466.9z M719.3,1383.4
					l133.6,77.1l133.6-77.1v-154.3L852.9,1152l-133.6,77.1L719.3,1383.4L719.3,1383.4z"/>
			</g>
			<g>
				<path class="st2" d="M989,1624.3l-71-41v-82l71-41l71,41v82L989,1624.3z M923.4,1580.2l65.6,37.9l65.6-37.9v-75.7l-65.6-37.9
					l-65.6,37.9V1580.2z"/>
			</g>
			<g>
				<path class="st2" d="M852.9,1781.3l-70.9-40.9v-81.9l70.9-40.9l70.9,40.9v81.9L852.9,1781.3z M787.4,1737.2l65.4,37.8l65.4-37.8
					v-75.6l-65.4-37.8l-65.4,37.8V1737.2z"/>
			</g>
			<g>
				<path class="st2" d="M852.9,1624.4l-70.9-40.9v-82l70.9-40.9l70.9,40.9v81.9L852.9,1624.4z M787.4,1580.3l65.4,37.8l65.4-37.8
					v-75.6l-65.4-37.8l-65.4,37.8V1580.3z"/>
			</g>
			<g>
				<path class="st2" d="M784.3,1742.3l-1.4-0.8L645.2,1662v-160.6l139.1-80.3l1.4,0.8l137.7,79.5V1662L784.3,1742.3z M650.7,1658.9
					l133.6,77.1l133.6-77.1v-154.3l-133.6-77.1l-133.6,77.1L650.7,1658.9L650.7,1658.9z"/>
			</g>
			<g>
				<path class="st2" d="M852.9,1545.6l-71-41v-82l71-41l71,41v82L852.9,1545.6z M787.3,1501.5l65.6,37.9l65.6-37.9v-75.7
					l-65.6-37.9l-65.6,37.9V1501.5z"/>
			</g>
			<g>
				<path class="st2" d="M852.9,1860l-1.4-0.8l-137.7-79.5v-160.6l139.1-80.3l1.4,0.8l137.7,79.5v160.6L852.9,1860z M719.3,1776.5
					l133.6,77.1l133.6-77.1v-154.3l-133.6-77.1l-133.6,77.1L719.3,1776.5L719.3,1776.5z"/>
			</g>
			<g>
				<path class="st2" d="M784.1,1270l-1.4-0.8L645,1189.7v-160.6l139.1-80.3l139.1,80.3v160.6L784.1,1270z M650.5,1186.5l133.6,77.1
					l133.6-77.1v-154.3l-133.6-77.1l-133.6,77.1V1186.5z"/>
			</g>
			<g>
				<path class="st2" d="M510.5,1349.2l-71-41v-82l71-41l71,41v82L510.5,1349.2z M444.9,1305l65.6,37.9l65.6-37.9v-75.7l-65.6-37.9
					l-65.6,37.9L444.9,1305L444.9,1305z"/>
			</g>
			<g>
				<path class="st2" d="M102.4,1112l-71-41v-82l71-41l71,41v82L102.4,1112z M36.9,1067.8l65.6,37.9l65.6-37.9v-75.7l-65.6-37.9
					l-65.6,37.9C36.9,992.1,36.9,1067.8,36.9,1067.8z"/>
			</g>
			<g>
				<path class="st2" d="M306,285.4L98.8,165.8V-73.5L306-193.2L513.3-73.5v239.3l-1.4,0.8L306,285.4z M104.2,162.6L306,279.1
					l201.8-116.5v-233L306-186.9L104.2-70.4V162.6z"/>
			</g>
			<g>
				<path class="st2" d="M238.1,246.1L30.9,126.5v-239.3l207.2-119.7l207.3,119.7v239.3l-1.4,0.8L238.1,246.1z M36.4,123.3
					l201.8,116.5L440,123.3v-233L238.1-226.2L36.4-109.7V123.3z"/>
			</g>
			<g>
				<path class="st2" d="M-239.5,757.4l-139.1-80.3V516.5l139.1-80.3l139.1,80.3v160.6L-239.5,757.4z M-373.1,674l133.6,77.1
					l133.6-77.1V519.7l-133.6-77.1l-133.6,77.1V674z"/>
			</g>
			<g>
				<path class="st2" d="M-35,560.8l-70.9-40.9V438l70.9-40.9L35.9,438v81.9L-35,560.8z M-100.4,516.7l65.4,37.8l65.4-37.8v-75.6
					L-35,403.4l-65.4,37.8V516.7z"/>
			</g>
			<g>
				<path class="st2" d="M-103.1,442.7l-70.9-40.9v-81.9l70.9-40.9l70.9,40.9v81.9L-103.1,442.7z M-168.6,398.6l65.4,37.8l65.4-37.8
					V323l-65.4-37.8l-65.4,37.8V398.6z"/>
			</g>
			<g>
				<path class="st2" d="M-103.1,364l-70.9-40.9v-81.9l70.9-40.9l70.9,40.9v81.9L-103.1,364z M-168.6,319.9l65.4,37.8l65.4-37.8
					v-75.6l-65.4-37.8l-65.4,37.8V319.9z"/>
			</g>
			<g>
				<path class="st2" d="M374.2,560.8l-70.9-40.9V438l70.9-40.9l70.9,40.9v81.9L374.2,560.8z M308.7,516.7l65.4,37.8l65.4-37.8
					v-75.6l-65.4-37.8l-65.4,37.8V516.7z"/>
			</g>
			<g>
				<path class="st2" d="M169.7,678.9L98.8,638v-81.9l70.9-40.9l70.9,40.9V638L169.7,678.9z M104.2,634.8l65.4,37.8l65.4-37.8v-75.6
					l-65.4-37.8l-65.4,37.8C104.2,559.2,104.2,634.8,104.2,634.8z"/>
			</g>
			<g>
				<path class="st2" d="M237.8,403.4l-70.9-40.9v-81.9l70.9-40.9l70.9,40.9v81.9L237.8,403.4z M172.4,359.3l65.4,37.8l65.4-37.8
					v-75.6l-65.4-37.8l-65.4,37.8V359.3z"/>
			</g>
			<g>
				<path class="st2" d="M101.4,482.1l-139.1-80.3V241.2l139.1-80.3l139.1,80.3v160.6L101.4,482.1z M-32.2,398.6l133.6,77.1
					L235,398.6V244.4l-133.6-77.1l-133.6,77.1L-32.2,398.6L-32.2,398.6z"/>
			</g>
			<g>
				<path class="st2" d="M-239.5,600l-139.1-80.3V359.1l139.1-80.3l139.1,80.3v160.6L-239.5,600z M-373.1,516.5l133.6,77.1
					l133.6-77.1V362.3l-133.6-77.1l-133.6,77.1V516.5z"/>
			</g>
			<g>
				<path class="st2" d="M306,836.5l-139.1-80.3V595.6L306,515.3l139.1,80.3v160.6L306,836.5z M172.4,753L306,830.2l133.6-77.1
					V598.7L306,521.6l-133.6,77.1V753z"/>
			</g>
			<g>
				<path class="st2" d="M237.8,324.7l-139-80.3V83.8l139-80.3l139.1,80.3v160.6L237.8,324.7z M104.2,241.2l133.6,77.1l133.6-77.1
					V86.9L237.8,9.8L104.2,86.9V241.2z"/>
			</g>
			<g>
				<path class="st2" d="M-103.3,285.3l-207.3-119.7V-73.7l1.4-0.8l205.9-118.9L104-73.7v239.3L-103.3,285.3z M-305.1,162.5
					L-103.3,279L98.5,162.5v-233L-103.3-187L-305.1-70.5V162.5z"/>
			</g>
			<g>
				<path class="st2" d="M306,836.3L98.8,716.7V477.3l1.4-0.8L306,357.7l207.3,119.7v239.3L306,836.3z M104.2,713.5L306,830
					l201.8-116.5v-233L306,364L104.2,480.5V713.5z"/>
			</g>
			<g>
				<path class="st2" d="M33.2,364l-207.3-119.7V5L33.2-114.6L240.5,5v239.3l-1.4,0.8L33.2,364z M-168.6,241.2L33.2,357.7L235,241.2
					V8.2L33.2-108.3L-168.6,8.2V241.2z"/>
			</g>
			<g>
				<path class="st2" d="M-35,718.2l-139.1-80.3V477.3L-35,397.1l139.1,80.3V638L-35,718.2z M-168.6,634.8L-35,711.9l133.6-77.1
					V480.5L-35,403.4l-133.6,77.1V634.8z"/>
			</g>
			<g>
				<path class="st2" d="M-35,482.1l-71-41v-82l71-41l71,41v82L-35,482.1z M-100.6,437.9l65.6,37.9l65.6-37.9v-75.7L-35,324.3
					l-65.6,37.9V437.9z"/>
			</g>
			<g>
				<path class="st2" d="M442.4,600.3l-71-41v-82l71-41l71,41v82L442.4,600.3z M376.8,556.1l65.6,37.9l65.6-37.9v-75.7l-65.6-37.9
					l-65.6,37.9V556.1z"/>
			</g>
			<g>
				<path class="st2" d="M169.7,757.9l-71-41v-82l71-41l71,41v82L169.7,757.9z M104.1,713.7l65.6,37.9l65.6-37.9V638l-65.6-37.9
					L104.1,638L104.1,713.7L104.1,713.7z"/>
			</g>
			<g>
				<path class="st2" d="M-35,246.1l-70.9-40.9v-81.9l70.9-41l70.9,40.9v81.9L-35,246.1z M-100.4,202l65.4,37.8L30.4,202v-75.6
					L-35,88.6l-65.4,37.8V202z"/>
			</g>
			<g>
				<path class="st2" d="M-103.1,364.2l-70.9-40.9v-81.9l70.9-40.9l70.9,40.9v81.9L-103.1,364.2z M-168.6,320.1l65.4,37.8l65.4-37.8
					v-75.6l-65.4-37.8l-65.4,37.8V320.1z"/>
			</g>
			<g>
				<path class="st2" d="M-103.1,442.9L-174,402v-81.9l70.9-40.9l70.9,40.9V402L-103.1,442.9z M-168.6,398.8l65.4,37.8l65.4-37.8
					v-75.6l-65.4-37.8l-65.4,37.8V398.8z"/>
			</g>
			<g>
				<path class="st2" d="M374.2,246.1l-70.9-40.9v-81.9l70.9-40.9l70.9,40.9v81.9L374.2,246.1z M308.7,202l65.4,37.8l65.4-37.8
					v-75.6l-65.4-37.8l-65.4,37.8V202z"/>
			</g>
			<g>
				<path class="st2" d="M237.8,403.5l-70.9-40.9v-81.9l70.9-40.9l70.9,40.9v81.9L237.8,403.5z M172.4,359.4l65.4,37.8l65.4-37.8
					v-75.6L237.8,246l-65.4,37.8V359.4z"/>
			</g>
			<g>
				<path class="st2" d="M101.4,482.2l-139.1-80.3V241.3L101.4,161l139.1,80.3v160.6L101.4,482.2z M-32.2,398.8l133.6,77.1
					L235,398.8V244.5l-133.6-77.1l-133.6,77.1V398.8z"/>
			</g>
			<g>
				<path class="st2" d="M-239.5,364.3L-378.6,284V123.4l139.1-80.3l139.1,80.3V284L-239.5,364.3z M-373.1,280.9l133.6,77.1
					l133.6-77.1V126.6l-133.6-77.1l-133.6,77.1V280.9z"/>
			</g>
			<g>
				<path class="st2" d="M578.7,1072.5l-70.9-40.9v-81.9l70.9-40.9l70.9,40.9v81.9L578.7,1072.5z M513.2,1028.4l65.4,37.8l65.4-37.8
					v-75.6L578.6,915l-65.4,37.8V1028.4z"/>
			</g>
			<g>
				<path class="st2" d="M237.8,639.7l-139-80.3V398.8l139-80.3l139.1,80.3v160.6L237.8,639.7z M104.2,556.2l133.6,77.1l133.6-77.1
					V401.9l-133.6-77.1l-133.6,77.1L104.2,556.2L104.2,556.2z"/>
			</g>
			<g>
				<path class="st2" d="M33.2,757.8l-207.3-119.7V398.8l1.4-0.8L33.2,279.1l207.3,119.7v239.3L33.2,757.8z M-168.6,634.9
					L33.2,751.4L235,634.9v-233L33.2,285.4l-201.8,116.5V634.9z"/>
			</g>
			<g>
				<g>
					<path class="st2" d="M-35,246.1l-139.1-80.3V5.2L-35-75.1L104.1,5.2v160.6L-35,246.1z M-168.6,162.6L-35,239.7l133.6-77.1V8.3
						L-35-68.8L-168.6,8.3V162.6z"/>
				</g>
			</g>
			<g>
				<path class="st2" d="M715.3,993.8l-139.1-80.3V752.9l139.1-80.3l139.1,80.3v160.6L715.3,993.8z M581.7,910.3l133.6,77.1
					l133.6-77.1V756l-133.6-77.1L581.7,756L581.7,910.3L581.7,910.3z"/>
			</g>
			<g>
				<path class="st2" d="M-35,325.1l-71-41v-82l71-41l71,41v82L-35,325.1z M-100.6,280.9l65.6,37.9l65.6-37.9v-75.7L-35,167.4
					l-65.6,37.9V280.9z"/>
			</g>
			<g>
				<path class="st2" d="M-239.3,679.3l-71-41v-82l71-41l71,41v82L-239.3,679.3z M-304.9,635.1l65.6,37.9l65.6-37.9v-75.7
					l-65.6-37.9l-65.6,37.9V635.1z"/>
			</g>
			<g>
				<path class="st2" d="M579.2,679.2l-71-41v-82l71-41l71,41v82L579.2,679.2z M513.7,635l65.6,37.9l65.6-37.9v-75.7l-65.6-37.9
					l-65.6,37.9V635z"/>
			</g>
			<g>
				<path class="st2" d="M169.4,994.1l-71-41v-82l71-41l71,41v82L169.4,994.1z M103.8,950l65.6,37.9L235,950v-75.7l-65.6-37.9
					l-65.6,37.9C103.8,874.3,103.8,950,103.8,950z"/>
			</g>
			<g>
				<path class="st2" d="M-239.3,442.6l-71-41v-82l71-41l71,41v82L-239.3,442.6z M-304.9,398.4l65.6,37.9l65.6-37.9v-75.7
					l-65.6-37.9l-65.6,37.9V398.4z"/>
			</g>
			<g>
				<path class="st2" d="M442.3,285.8l-71-41v-82l71-41l71,41v82L442.3,285.8z M376.8,241.6l65.6,37.9l65.6-37.9v-75.7L442.4,128
					l-65.6,37.9V241.6z"/>
			</g>
			<g>
				<path class="st2" d="M442.4,206.9l-71-41v-82l71-41l71,41v82L442.4,206.9z M376.8,162.7l65.6,37.9l65.6-37.9V87l-65.6-37.9
					L376.8,87V162.7z"/>
			</g>
			<g>
				<path class="st2" d="M169.5,679.2l-71-41v-82l71-41l71,41v82L169.5,679.2z M104,635l65.6,37.9l65.6-37.9v-75.7l-65.6-37.9
					L104,559.3V635z"/>
			</g>
			<g>
				<path class="st2" d="M237.8,875.8l-70.9-40.9V753l70.9-40.9l70.9,40.9v81.9L237.8,875.8z M172.4,831.7l65.4,37.8l65.4-37.8
					v-75.6l-65.4-37.8l-65.4,37.8V831.7z"/>
			</g>
			<g>
				<path class="st2" d="M306,757.7l-70.9-40.9v-81.9L306,594l70.9,40.9v81.9L306,757.7z M240.5,713.6l65.4,37.8l65.4-37.8V638
					L306,600.2L240.6,638v75.6H240.5z"/>
			</g>
			<g>
				<path class="st2" d="M306,678.9L235.1,638v-81.9l70.9-40.9l70.9,40.9V638L306,678.9z M240.5,634.8l65.4,37.8l65.4-37.8v-75.6
					L306,521.5l-65.4,37.8v75.5H240.5z"/>
			</g>
			<g>
				<path class="st2" d="M-35,718.3l-70.9-40.9v-81.9l70.9-40.9l70.9,40.9v81.9L-35,718.3z M-100.4,674.2L-35,712l65.4-37.8v-75.6
					L-35,560.9l-65.4,37.8V674.2z"/>
			</g>
			<g>
				<path class="st2" d="M101.5,797l-139.1-80.3V556.1l139.1-80.3l139.1,80.3v160.6L101.5,797z M-32.1,713.6l133.6,77.1l133.6-77.1
					V559.3l-133.6-77.1l-133.6,77.1C-32.1,559.3-32.1,713.6-32.1,713.6z"/>
			</g>
			<g>
				<path class="st2" d="M442.3,914.9l-139.1-80.3V674l139.1-80.3L581.4,674v160.6L442.3,914.9z M308.7,831.5l133.6,77.1l133.6-77.1
					V677.2l-133.6-77.1l-133.6,77.1V831.5z"/>
			</g>
			<g>
				<path class="st2" d="M-35,639.6l-139.1-80.3V398.7L-35,318.4l139.1,80.3v160.6L-35,639.6z M-168.6,556.1L-35,633.3l133.6-77.1
					V401.9L-35,324.7l-133.6,77.1V556.1z"/>
			</g>
			<g>
				<path class="st2" d="M579,1151.4l-1.4-0.8l-205.9-118.9V792.4L579,672.8l207.3,119.7v239.3l-1.4,0.8L579,1151.4z M377.2,1028.6
					L579,1145.1l201.8-116.5v-233L579,679.1L377.2,795.6V1028.6z"/>
			</g>
			<g>
				<path class="st2" d="M306.2,600.2L98.9,480.6V241.2l1.4-0.8l205.9-118.9l207.3,119.7v239.3L306.2,600.2z M104.4,477.4
					l201.8,116.5L508,477.4v-233L306.2,127.9L104.4,244.4V477.4z"/>
			</g>
			<g>
				<path class="st2" d="M237.8,1033.2l-139-80.3V792.3L237.9,712L377,792.3v160.6L237.8,1033.2z M104.2,949.7l133.6,77.1
					l133.6-77.1V795.5l-133.6-77.1l-133.6,77.1V949.7z"/>
			</g>
			<g>
				<path class="st2" d="M647,324.7l-139.1-80.3V83.8L647,3.5l139.1,80.3v160.6L647,324.7z M513.4,241.2L647,318.3l133.6-77.1V86.9
					L647,9.8L513.4,86.9V241.2z"/>
			</g>
			<g>
				<path class="st2" d="M510.7,954.5l-139.1-80.3V713.6l139.1-80.3l139.1,80.3v160.6L510.7,954.5z M377.1,871l133.6,77.1L644.3,871
					V716.7l-133.6-77.1l-133.6,77.1L377.1,871L377.1,871z"/>
			</g>
			<g>
				<path class="st2" d="M237.8,797l-71-41v-82l71-41l71,41v82L237.8,797z M172.3,752.9l65.6,37.9l65.6-37.9v-75.7l-65.6-37.9
					l-65.6,37.9L172.3,752.9L172.3,752.9z"/>
			</g>
			<g>
				<path class="st2" d="M510.7,246.1l-71-41v-82l71-41l71,41v82L510.7,246.1z M445.1,201.9l65.6,37.9l65.6-37.9v-75.7l-65.6-37.9
					l-65.6,37.9L445.1,201.9L445.1,201.9z"/>
			</g>
			<g>
				<path class="st2" d="M510.5,954.6l-71-41v-82l71-41l71,41v82L510.5,954.6z M445,910.4l65.6,37.9l65.6-37.9v-75.7l-65.6-37.9
					L445,834.7V910.4z"/>
			</g>
			<g>
				<path class="st2" d="M33.3,442.9l-71-41v-82l71-41l71,41v82L33.3,442.9z M-32.2,398.8l65.6,37.9L99,398.8v-75.7l-65.6-37.9
					l-65.6,37.9C-32.2,323.1-32.2,398.8-32.2,398.8z"/>
			</g>
			<g>
				<path class="st2" d="M-103.3,836.5l-207.3-119.7V477.5l1.4-0.8l205.9-118.9L104,477.5v239.3l-1.4,0.8L-103.3,836.5z
					 M-305.1,713.7l201.8,116.5L98.5,713.7v-233l-201.8-116.5l-201.8,116.5V713.7z"/>
			</g>
			<g>
				<path class="st2" d="M715.3,1151.3l-70.9-40.9v-81.9l70.9-40.9l70.9,40.9v81.9L715.3,1151.3z M649.9,1107.2l65.4,37.8l65.4-37.8
					v-75.6l-65.4-37.8l-65.4,37.8V1107.2z"/>
			</g>
			<g>
				<path class="st2" d="M715.3,521.9L644.4,481v-81.9l70.9-40.9l70.9,40.9V481L715.3,521.9z M649.9,477.8l65.4,37.8l65.4-37.8
					v-75.6l-65.4-37.7l-65.4,37.8L649.9,477.8L649.9,477.8z"/>
			</g>
			<g>
				<path class="st2" d="M715.3,678.9L644.4,638v-81.9l70.9-40.9l70.9,40.9V638L715.3,678.9z M649.9,634.8l65.4,37.8l65.4-37.8
					v-75.6l-65.4-37.8l-65.4,37.8V634.8z"/>
			</g>
			<g>
				<path class="st2" d="M101.9,954.3L-37.2,874V713.4l139.1-80.3L241,713.4V874L101.9,954.3z M-31.7,870.9L101.9,948l133.6-77.1
					V716.6l-133.6-77.1l-133.6,77.1C-31.7,716.6-31.7,870.9-31.7,870.9z"/>
			</g>
			<g>
				<path class="st2" d="M783.9,718.3L644.8,638V477.4l139.1-80.3L923,477.4V638L783.9,718.3z M650.3,634.9L783.9,712l133.6-77.1
					V480.6l-133.6-77.1l-133.6,77.1L650.3,634.9L650.3,634.9z"/>
			</g>
			<g>
				<path class="st2" d="M579.2,1230.3l-1.4-0.8L372,1110.6V871.3l207.3-119.7l207.3,119.7v239.3l-1.4,0.8L579.2,1230.3z
					 M377.5,1107.5L579.3,1224L781,1107.5v-233L579.2,758L377.5,874.5V1107.5z"/>
			</g>
			<g>
				<path class="st2" d="M-35,875.8l-71-41v-82l71-41l71,41v82L-35,875.8z M-100.6,831.6l65.6,37.9l65.6-37.9v-75.7L-35,718
					l-65.6,37.9V831.6z"/>
			</g>
			<g>
				<path class="st2" d="M715.3,757.9l-71-41v-82l71-41l71.1,41v82L715.3,757.9z M649.8,713.7l65.6,37.9l65.6-37.9V638l-65.6-37.9
					L649.8,638V713.7z"/>
			</g>
			<g>
				<path class="st2" d="M578.8,836.6L371.6,716.9V477.6l1.4-0.8l205.9-118.9l207.3,119.7v239.3L578.8,836.6z M377.1,713.8
					l201.8,116.5l201.8-116.5v-233L578.8,364.3L377.1,480.8V713.8z"/>
			</g>
			<g>
				<path class="st2" d="M510.8,482.4l-70.9-40.9v-81.9l70.9-40.9l70.9,40.9v81.9L510.8,482.4z M445.4,438.3l65.4,37.8l65.4-37.8
					v-75.6l-65.4-37.8l-65.4,37.8L445.4,438.3L445.4,438.3z"/>
			</g>
			<g>
				<path class="st2" d="M715.3,364.3l-70.9-40.9v-81.9l70.9-40.9l70.9,40.9v81.9L715.3,364.3z M649.9,320.3l65.4,37.8l65.4-37.8
					v-75.6l-65.4-37.8l-65.4,37.8V320.3z"/>
			</g>
			<g>
				<path class="st2" d="M579,364.2l-139.1-80.3V123.3L579,43l139.1,80.3v160.6L579,364.2z M445.4,280.7L579,357.9l133.6-77.1V126.5
					L579,49.3l-133.6,77.2V280.7z"/>
			</g>
			<g>
				<path class="st2" d="M579,521.8L371.7,402.1V162.8l1.4-0.8L579,43.2l207.3,119.7v239.3L579,521.8z M377.2,399L579,515.5
					L780.8,399V166L579,49.5L377.2,166V399z"/>
			</g>
			<g>
				<path class="st2" d="M442.6,443.2l-71-41v-82l71-41l71,41v82L442.6,443.2z M377.1,399l65.6,37.9l65.6-37.9v-75.7l-65.7-37.8
					L377,323.4V399H377.1z"/>
			</g>
			<g>
				<path class="st2" d="M-376,522.1l-71-41v-82l71-41l71.1,41v82L-376,522.1z M-441.5,477.9l65.6,37.9l65.6-37.9v-75.7l-65.6-37.9
					l-65.6,37.9V477.9z"/>
			</g>
			<g>
				<path class="st2" d="M715.3,285.6l-71-41v-82l71-41l71.1,41v82L715.3,285.6z M649.8,241.5l65.6,37.9l65.6-37.9v-75.7l-65.6-37.9
					l-65.6,37.9V241.5z"/>
			</g>
			<g>
				<path class="st2" d="M-375.9,363.5l-70.9-40.9v-81.9l70.9-40.9l70.9,40.9v81.9L-375.9,363.5z M-441.3,319.4l65.4,37.8l65.4-37.8
					v-75.6l-65.4-37.8l-65.4,37.8V319.4z"/>
			</g>
			<g>
				<path class="st2" d="M374.5,1111.9l-139.1-80.3V871l139.1-80.3L513.6,871v160.6L374.5,1111.9z M240.8,1028.5l133.6,77.1
					l133.6-77.1V874.2l-133.6-77.1l-133.6,77.1L240.8,1028.5L240.8,1028.5z"/>
			</g>
			<g>
				<path class="st2" d="M715.3,600.7l-139.1-80.3V359.8l139.1-80.3l139.1,80.3v160.6L715.3,600.7z M581.7,517.2l133.6,77.1
					l133.6-77.1V362.9l-133.6-77.1l-133.6,77.1L581.7,517.2L581.7,517.2z"/>
			</g>
			<g>
				<path class="st2" d="M647.3,1269.4l-71-41v-82l71-41l71,41v82L647.3,1269.4z M581.7,1225.2l65.6,37.9l65.6-37.9v-75.7
					l-65.6-37.9l-65.6,37.9V1225.2z"/>
			</g>
			<g>
				<path class="st2" d="M305.8,1072.4l-70.9-40.9v-81.9l70.9-40.9l70.9,40.9v81.9L305.8,1072.4z M240.4,1028.3l65.4,37.8l65.4-37.8
					v-75.6l-65.4-37.8l-65.4,37.8V1028.3z"/>
			</g>
			<g>
				<path class="st2" d="M374,1112.3l-70.9-40.9v-81.9l70.9-41l70.9,40.9v81.9L374,1112.3z M308.6,1068.2L374,1106l65.4-37.8v-75.6
					L374,954.9l-65.4,37.8V1068.2z"/>
			</g>
			<g>
				<path class="st2" d="M715.6,1308.6l-70.9-40.9v-81.9l70.9-40.9l70.9,40.9v81.9L715.6,1308.6z M650.2,1264.5l65.4,37.8l65.4-37.8
					v-75.6l-65.4-37.8l-65.4,37.8L650.2,1264.5L650.2,1264.5z"/>
			</g>
			<g>
				<path class="st2" d="M511.1,1190.5l-70.9-40.9v-81.9l70.9-40.9l70.9,40.9v81.9L511.1,1190.5z M445.6,1146.4l65.4,37.8l65.4-37.8
					v-75.6L511,1033l-65.4,37.8L445.6,1146.4L445.6,1146.4z"/>
			</g>
			<g>
				<path class="st2" d="M647.6,1111.9l-70.9-40.9v-81.9l70.9-40.9l70.9,40.9v81.9L647.6,1111.9z M582.2,1067.8l65.4,37.8l65.4-37.8
					v-75.6l-65.4-37.7l-65.4,37.8L582.2,1067.8L582.2,1067.8z"/>
			</g>
			<g>
				<path class="st2" d="M784.1,1190.7l-1.4-0.8L645,1110.4V949.8l139.1-80.3l139.1,80.3v160.6L784.1,1190.7z M650.4,1107.2
					l133.6,77.1l133.6-77.1V952.9L784,875.8l-133.6,77.1V1107.2z"/>
			</g>
			<g>
				<path class="st2" d="M579.2,1229.8l-1.4-0.8L372,1110.2V870.9l207.3-119.7l207.3,119.7v239.3l-1.4,0.8L579.2,1229.8z
					 M377.5,1107l201.7,116.5L781,1107V874L579.2,757.5L377.5,874V1107z"/>
			</g>
			<g>
				<path class="st2" d="M784.2,1269.5l-71.1-41v-82l71.1-41l71,41v82L784.2,1269.5z M718.6,1225.4l65.6,37.9l65.6-37.9v-75.7
					l-65.6-37.9l-65.6,37.9V1225.4z"/>
			</g>
			<g>
				<path class="st2" d="M-580.3,876.3L-719.4,796V635.4l139.1-80.3l139.1,80.3V796L-580.3,876.3z M-713.9,792.8l133.6,77.1
					l133.6-77.1V638.5l-133.6-77.1l-133.6,77.1V792.8z"/>
			</g>
			<g>
				<path class="st2" d="M-580.3,1033.7l-139.1-80.3V792.8l139.1-80.3l139.1,80.3v160.6L-580.3,1033.7z M-713.9,950.2l133.6,77.1
					l133.6-77.1V796l-133.6-77.1L-713.9,796V950.2z"/>
			</g>
			<g>
				<path class="st2" d="M-580.4,797.3l-71-41v-82l71-41l71,41v82L-580.4,797.3z M-646,753.1l65.6,37.9l65.6-37.9v-75.7l-65.6-37.9
					l-65.6,37.9V753.1z"/>
			</g>
			<g>
				<path class="st2" d="M-580.4,1034l-71-41v-82l71-41l71,41v82L-580.4,1034z M-646,989.8l65.6,37.9l65.6-37.9v-75.7l-65.6-37.9
					l-65.6,37.9V989.8z"/>
			</g>
			<g>
				<path class="st2" d="M-716.5,954.7L-923.8,835V595.7l1.4-0.8L-716.5,476l207.3,119.7V835L-716.5,954.7z M-918.2,831.8
					l201.8,116.5l201.8-116.5v-233l-201.8-116.5l-201.8,116.5V831.8z"/>
			</g>
			<g>
				<path class="st2" d="M-443.8,954.5l-71-41v-82l71-41l71,41v82L-443.8,954.5z M-509.4,910.3l65.6,37.9l65.6-37.9v-75.7
					l-65.6-37.9l-65.6,37.9V910.3z"/>
			</g>
			<g>
				<path class="st2" d="M-443.9,797l-71-41v-82l71-41l71,41v82L-443.9,797z M-509.5,752.9l65.6,37.9l65.6-37.9v-75.7l-65.6-37.9
					l-65.6,37.9V752.9z"/>
			</g>
			<g>
				<path class="st2" d="M-580.9,482.5l-207.2-119.7V123.5L-580.9,3.9l207.2,119.6v239.3l-1.4,0.8L-580.9,482.5z M-782.7,359.7
					l201.8,116.5l201.8-116.5v-233L-580.9,10.2l-201.8,116.5V359.7z"/>
			</g>
			<g>
				<path class="st2" d="M-444.6,482.3l-70.9-40.9v-81.9l70.9-40.9l70.9,40.9v81.9L-444.6,482.3z M-510,438.2l65.4,37.8l65.4-37.8
					v-75.6l-65.4-37.8l-65.4,37.8V438.2z"/>
			</g>
			<g>
				<path class="st2" d="M-580.7,561.4L-788,441.7V202.4l207.3-119.7l207.3,119.7v239.3l-1.4,0.8L-580.7,561.4z M-782.5,438.6
					l201.8,116.5l201.8-116.5v-233L-580.7,89.1l-201.8,116.5V438.6z"/>
			</g>
			<g>
				<path class="st2" d="M-512.6,600.5l-71-41v-82l71-41l71.1,41v82L-512.6,600.5z M-578.2,556.3l65.6,37.9l65.6-37.9v-75.7
					l-65.6-37.9l-65.6,37.9V556.3z"/>
			</g>
			<g>
				<path class="st2" d="M-444.3,639.6l-70.9-40.9v-81.9l70.9-40.9l70.9,40.9v81.9L-444.3,639.6z M-509.8,595.5l65.4,37.8l65.4-37.8
					v-75.6l-65.4-37.8l-65.4,37.8V595.5z"/>
			</g>
			<g>
				<path class="st2" d="M-648.8,521.6l-70.9-40.9v-81.9l70.9-40.9l70.9,40.9v81.9L-648.8,521.6z M-714.3,477.5l65.4,37.8l65.4-37.8
					v-75.6l-65.4-37.8l-65.4,37.8V477.5z"/>
			</g>
			<g>
				<path class="st2" d="M-512.3,443l-70.9-40.9v-81.9l70.9-40.9l70.9,40.9v81.9L-512.3,443z M-577.8,398.9l65.4,37.8l65.4-37.8
					v-75.6l-65.4-37.8l-65.4,37.8V398.9z"/>
			</g>
			<g>
				<path class="st2" d="M-375.9,521.7L-515,441.4V280.8l139.1-80.3l139.1,80.3v160.6L-375.9,521.7z M-509.5,438.3l133.6,77.1
					l133.6-77.1V284l-133.6-77.1L-509.5,284V438.3z"/>
			</g>
			<g>
				<path class="st2" d="M-580.7,560.9L-788,441.2V201.9l207.3-119.7l207.3,119.7v239.3l-1.4,0.8L-580.7,560.9z M-782.5,438.1
					l201.8,116.5l201.8-116.5v-233L-580.7,88.6l-201.8,116.5V438.1z"/>
			</g>
			<g>
				<path class="st2" d="M-375.7,600.6l-71-41v-82l71-41l71,41v82L-375.7,600.6z M-441.3,556.4l65.6,37.9l65.6-37.9v-75.7
					l-65.6-37.9l-65.6,37.9V556.4z"/>
			</g>
			<g>
				<path class="st2" d="M-375.8,679.5l-71-41v-82l71-41l71,41v82L-375.8,679.5z M-441.4,635.4l65.6,37.9l65.6-37.9v-75.7
					l-65.6-37.9l-65.6,37.9V635.4z"/>
			</g>
			<g>
				<path class="st2" d="M647.6,1033.2l-71-41v-82l71-41l71,41v82L647.6,1033.2z M582,989l65.6,37.9l65.6-37.9v-75.7l-65.6-37.9
					L582,913.3V989z"/>
			</g>
			<g>
				<path class="st2" d="M-307.6,246.1l-71-41v-82l71-41l71,41v82L-307.6,246.1z M-373.2,201.9l65.6,37.9l65.6-37.9v-75.7
					l-65.6-37.9l-65.6,37.9V201.9z"/>
			</g>
			<g>
				<path class="st2" d="M442.2,1465.7l-1.4-0.8L234.9,1346v-239.3l1.4-0.8L442.2,987l207.3,119.7V1346l-1.4,0.8L442.2,1465.7z
					 M240.4,1342.9l201.8,116.5L644,1342.9v-233L442.2,993.4l-201.8,116.5L240.4,1342.9L240.4,1342.9z"/>
			</g>
			<g>
				<path class="st2" d="M-511.7,1623.1l-70.9-40.9v-81.9l70.9-40.9l70.9,40.9v81.9L-511.7,1623.1z M-577.2,1579l65.4,37.8
					l65.4-37.8v-75.5l-65.4-37.8l-65.4,37.8V1579z"/>
			</g>
			<g>
				<path class="st2" d="M-579.9,1505.1l-70.9-40.9v-81.9l70.9-40.9l70.9,40.9v81.9L-579.9,1505.1z M-645.3,1461l65.4,37.8
					l65.4-37.8v-75.6l-65.4-37.8l-65.4,37.8V1461z"/>
			</g>
			<g class="st3">
				<g>
					<path class="st2" d="M-579.9,1426.3l-70.9-40.9v-81.9l70.9-40.9l70.9,40.9v81.9L-579.9,1426.3z M-645.3,1382.2l65.4,37.8
						l65.4-37.8v-75.6l-65.4-37.8l-65.4,37.8V1382.2z"/>
				</g>
			</g>
			<g>
				<path class="st2" d="M-375.4,1544.4l-1.4-0.8l-137.7-79.5v-160.6l139.1-80.3l1.4,0.8l137.7,79.5v160.6L-375.4,1544.4z
					 M-509,1461l133.6,77.1l133.6-77.1v-154.3l-133.6-77.1l-133.6,77.1V1461z"/>
			</g>
			<g>
				<path class="st2" d="M-580,1347.6l-1.4-0.8l-205.9-118.9V988.6l1.4-0.8L-580,869l207.3,119.7V1228L-580,1347.6z M-781.8,1224.8
					l201.8,116.5l201.8-116.5v-233L-580,875.3l-201.8,116.5V1224.8z"/>
			</g>
			<g>
				<path class="st2" d="M-443.5,1426.3l-1.4-0.8l-205.9-118.9v-239.3l207.3-119.7l207.3,119.7v239.3L-443.5,1426.3z M-645.3,1303.5
					l201.8,116.5l201.8-116.5v-233L-443.5,954l-201.8,116.5V1303.5z"/>
			</g>
			<g>
				<path class="st2" d="M-511.7,1780.6l-1.4-0.8l-137.7-79.5v-160.6l139.1-80.3l1.4,0.8l137.7,79.5v160.6L-511.7,1780.6z
					 M-645.4,1697.1l133.6,77.1l133.6-77.1v-154.3l-133.6-77.1l-133.6,77.1V1697.1z"/>
			</g>
			<g>
				<path class="st2" d="M-511.7,1544.4l-71-41v-82l71-41l71,41v82L-511.7,1544.4z M-577.3,1500.3l65.6,37.9l65.6-37.9v-75.8
					l-65.6-37.9l-65.6,37.9V1500.3z"/>
			</g>
			<g>
				<path class="st2" d="M-511.7,1308.4l-70.9-40.9v-81.9l70.9-40.9l70.9,40.9v81.9L-511.7,1308.4z M-577.2,1264.3l65.4,37.8
					l65.4-37.8v-75.6l-65.4-37.8l-65.4,37.8V1264.3z"/>
			</g>
			<g class="st3">
				<g>
					<path class="st2" d="M-579.9,1426.5l-70.9-40.9v-81.9l70.9-40.9l70.9,40.9v81.9L-579.9,1426.5z M-645.3,1382.4l65.4,37.8
						l65.4-37.8v-75.6l-65.4-37.8l-65.4,37.8V1382.4z"/>
				</g>
			</g>
			<g class="st3">
				<g>
					<path class="st2" d="M-579.9,1505.2l-70.9-40.9v-81.9l70.9-40.9l70.9,40.9v81.9L-579.9,1505.2z M-645.3,1461.1l65.4,37.8
						l65.4-37.8v-75.6l-65.4-37.8l-65.4,37.8V1461.1z"/>
				</g>
			</g>
			<g class="st3">
				<g>
					<path class="st2" d="M-375.4,1544.6l-1.4-0.8l-137.7-79.5v-160.6l139.1-80.3l1.4,0.8l137.7,79.5v160.6L-375.4,1544.6z
						 M-509,1461.1l133.6,77.1l133.6-77.1v-154.3l-133.6-77.1l-133.6,77.1V1461.1z"/>
				</g>
			</g>
			<g class="st3">
				<g>
					<path class="st2" d="M-443.5,1820.1l-1.4-0.8l-205.9-118.9v-239.3l207.3-119.7l1.4,0.8l205.9,118.9v239.3L-443.5,1820.1z
						 M-645.3,1697.3l201.8,116.5l201.8-116.5v-233l-201.8-116.5l-201.8,116.5V1697.3z"/>
				</g>
			</g>
			<g>
				<path class="st2" d="M-511.7,1308.4l-1.4-0.8l-137.7-79.5v-160.6l139.1-80.3l139.1,80.3v160.6L-511.7,1308.4z M-645.4,1225
					l133.6,77.1l133.6-77.1v-154.3l-133.5-77.2l-133.6,77.1L-645.4,1225L-645.4,1225z"/>
			</g>
			<g>
				<path class="st2" d="M-511.7,1387.4l-71-41v-82l71-41l71,41v82L-511.7,1387.4z M-577.3,1343.3l65.6,37.9l65.6-37.9v-75.8
					l-65.6-37.9l-65.6,37.9V1343.3z"/>
			</g>
			<g>
				<path class="st2" d="M-511.7,1780.7l-70.9-40.9v-81.9l70.9-40.9l70.9,40.9v81.9L-511.7,1780.7z M-577.2,1736.6l65.4,37.8
					l65.4-37.8V1661l-65.4-37.8l-65.4,37.8V1736.6z"/>
			</g>
			<g class="st3">
				<g>
					<path class="st2" d="M-375.3,1859.4l-1.4-0.8l-137.7-79.5v-160.6l139.1-80.3l1.4,0.8l137.7,79.5v160.6L-375.3,1859.4z
						 M-508.9,1775.9l133.6,77.1l133.6-77.1v-154.3l-133.6-77.1l-133.6,77.1V1775.9z"/>
				</g>
			</g>
			<g class="st3">
				<g>
					<path class="st2" d="M-511.7,1701.9l-1.4-0.8l-137.7-79.5V1461l139.1-80.3l1.4,0.8l137.7,79.5v160.6L-511.7,1701.9z
						 M-645.3,1618.5l133.6,77.1l133.6-77.1v-154.3l-133.6-77.1l-133.6,77.1V1618.5z"/>
				</g>
			</g>
			<path class="st2" d="M102.5,1742.3l-71-41v-82l71-41l71,41v82L102.5,1742.3z M36.9,1698.1l65.6,37.9l65.6-37.9v-75.7l-65.6-37.9
				l-65.6,37.9C36.9,1622.4,36.9,1698.1,36.9,1698.1z"/>
			<g>
				<g>
					<path class="st2" d="M-170.3,1898.5l-1.4-0.8l-205.9-118.9v-239.3l207.3-119.7l1.4,0.8l205.8,118.9v239.3l-1.4,0.8
						L-170.3,1898.5z M-372.1,1775.7l201.8,116.5l201.8-116.5v-233l-201.8-116.5l-201.8,116.5V1775.7z"/>
				</g>
			</g>
			<g>
				<path class="st2" d="M716.3,993.6l-139.1-80.3V752.7l139.1-80.3l139.1,80.3v160.6L716.3,993.6z M582.7,910.1l133.6,77.1
					l133.6-77.1V755.9l-133.6-77.1l-133.6,77.1L582.7,910.1L582.7,910.1z"/>
			</g>
			<g>
				<path class="st2" d="M852.7,678.9L781.8,638v-81.9l70.9-40.9l70.9,40.9V638L852.7,678.9z M787.2,634.8l65.4,37.8l65.4-37.8
					v-75.6l-65.4-37.8l-65.4,37.8V634.8z"/>
			</g>
			<g>
				<path class="st2" d="M852.7,600.2l-70.9-40.9v-81.9l70.9-40.9l70.9,40.9v81.9L852.7,600.2z M787.2,556.1l65.4,37.8l65.4-37.8
					v-75.6l-65.4-37.8l-65.4,37.8V556.1z"/>
			</g>
			<g>
				<path class="st2" d="M716.3,836.2l-139.1-80.3V595.3L716.3,515l139.1,80.3v160.6L716.3,836.2z M582.7,752.7l133.6,77.1
					l133.6-77.1V598.4l-133.6-77.1l-133.6,77.1L582.7,752.7L582.7,752.7z"/>
			</g>
			<g>
				<path class="st2" d="M852.5,521.4L645.2,401.8V162.5l1.4-0.8L852.5,42.8l207.3,119.7v239.3L852.5,521.4z M650.7,398.6
					l201.8,116.5l201.8-116.5v-233L852.5,49.1L650.7,165.6V398.6z"/>
			</g>
			<g>
				<path class="st2" d="M920.8,954.4l-139.1-80.3V713.5l139.1-80.3l139.1,80.3v160.6L920.8,954.4z M787.2,870.9L920.8,948
					l133.6-77.1V716.7l-133.6-77.2l-133.6,77.1L787.2,870.9L787.2,870.9z"/>
			</g>
			<g>
				<path class="st2" d="M852.7,600.3l-70.9-40.9v-81.9l70.9-40.9l70.9,40.9v81.9L852.7,600.3z M787.2,556.2l65.4,37.8l65.4-37.8
					v-75.6l-65.4-37.8l-65.4,37.8V556.2z"/>
			</g>
			<g>
				<path class="st2" d="M852.7,679l-70.9-40.9v-81.9l70.9-40.9l70.9,40.9v81.9L852.7,679z M787.2,634.9l65.4,37.8l65.4-37.8v-75.6
					l-65.4-37.8l-65.4,37.8V634.9z"/>
			</g>
			<g>
				<path class="st2" d="M716.3,600.5l-139.1-80.3V359.6l139.1-80.3l139.1,80.3v160.6L716.3,600.5z M582.7,517l133.6,77.1L849.9,517
					V362.7l-133.6-77.1l-133.6,77.1L582.7,517L582.7,517z"/>
			</g>
			<g>
				<path class="st2" d="M920.8,482.2l-139.1-80.3V241.3L920.8,161l139.1,80.3v160.6L920.8,482.2z M787.2,398.8l133.6,77.1
					l133.6-77.1V244.5l-133.6-77.1l-133.6,77.1V398.8z"/>
			</g>
			<g>
				<path class="st2" d="M716.5,915.4l-71-41v-82l71-41l71,41v82L716.5,915.4z M650.9,871.3l65.6,37.9l65.6-37.9v-75.7l-65.6-37.9
					l-65.6,37.9V871.3z"/>
			</g>
			<g>
				<path class="st2" d="M716.5,678.7l-71-41v-82l71-41l71,41v82L716.5,678.7z M650.9,634.5l65.6,37.9l65.5-37.9v-75.7l-65.6-37.9
					l-65.6,37.9L650.9,634.5L650.9,634.5z"/>
			</g>
			<g>
				<path class="st2" d="M920.8,875.8l-139.1-80.3V634.9l139.1-80.3l139.1,80.3v160.6L920.8,875.8z M787.2,792.3l133.6,77.1
					l133.6-77.1V638l-133.6-77.1L787.2,638L787.2,792.3L787.2,792.3z"/>
			</g>
			<g>
				<path class="st2" d="M852.5,1072.6L645.2,953V713.7L852.5,594l207.3,119.7V953l-1.4,0.8L852.5,1072.6z M650.7,949.8l201.8,116.5
					l201.8-116.5v-233L852.5,600.3L650.7,716.8V949.8z"/>
			</g>
			<g>
				<path class="st2" d="M579.8,758.3l-71-41v-82l71-41l71.1,41v82L579.8,758.3z M514.3,714.1l65.6,37.9l65.6-37.9v-75.7l-65.7-37.9
					l-65.6,37.9L514.3,714.1L514.3,714.1z"/>
			</g>
			<g>
				<path class="st2" d="M579.9,599.7L509,558.8v-81.9l70.9-40.9l70.9,40.9v81.9L579.9,599.7z M514.5,555.6l65.4,37.8l65.4-37.8V480
					l-65.4-37.8L514.5,480V555.6z"/>
			</g>
			<g>
				<path class="st2" d="M580,915.7l-71-41v-82l71-41l71,41v82L580,915.7z M514.4,871.5l65.6,37.9l65.6-37.9v-75.7L580,757.9
					l-65.6,37.9V871.5z"/>
			</g>
			<g>
				<path class="st2" d="M648.1,482.3l-71-41v-82l71-41l71,41v82L648.1,482.3z M582.6,438.1l65.6,37.9l65.6-37.9v-75.7l-65.7-37.9
					l-65.6,37.9L582.6,438.1L582.6,438.1z"/>
			</g>
			<g>
				<path class="st2" d="M237.7,1033.5l-71-41v-82l71-41l71,41v82L237.7,1033.5z M172.1,989.3l65.6,37.9l65.6-37.9v-75.7l-65.6-37.9
					l-65.6,37.9V989.3z"/>
			</g>
		</g>
	</g>
</g>
<g>
	<path class="st4" d="M60.1,283.8l14.4-2c1,7.3,3.6,9,9.6,9c7.4,0,9.3-2.2,9.3-7.3c0-4.5-2.6-5.6-9.8-7.5
		c-11.9-3-21.9-5.4-21.9-19.1C61.7,246,67,238,84.3,238s21.9,7.9,22.8,18.7l-14.7,1.9c-0.5-6.8-2.7-8-8.1-8c-5.5,0-8,1.2-8,5.7
		c0,4.7,4,5.4,11.2,7.1c11.9,2.9,20.6,5.4,20.6,19.1c0,12.2-5,20.5-24.1,20.5C66.6,303,61.4,295.6,60.1,283.8z"/>
	<path class="st4" d="M113.1,281.3v-21.7c0-14.9,9.8-21.7,24.5-21.7s24.4,6.8,24.4,21.7v21.7c0,14.8-9.7,21.7-24.4,21.7
		C122.8,303,113.1,296.2,113.1,281.3z M146.8,279.9v-18.4c0-7-2.2-10.4-9.2-10.4c-7.1,0-9.2,3.4-9.2,10.4v18.4
		c0,6.9,2.1,10.4,9.2,10.4C144.6,290.3,146.8,286.8,146.8,279.9z"/>
	<path class="st4" d="M169.6,238.7h15.3v50.8h23l2.5,12.7h-40.7v-63.5H169.6z"/>
	<path class="st4" d="M217.5,238.7h15.2v63.5h-15.2V238.7z"/>
	<path class="st4" d="M243.1,238.7H266c14.7,0,23.9,6.3,23.9,21.2v21.2c0,14.8-9.2,21.2-23.9,21.2h-22.9V238.7z M266,289.8
		c7.1,0,8.7-3,8.7-9.9v-18.4c0-7-1.6-9.8-8.7-9.8h-7.6v38.1H266z"/>
	<path class="st4" d="M298.2,238.7h15.2v63.5h-15.2V238.7z"/>
	<path class="st4" d="M323.8,238.7h40.7l-2.5,13.2h-23v11.2h16.5v13.4H339v25.8h-15.2V238.7z"/>
	<path class="st4" d="M385.5,277.1l-18.6-38.4h15.8l10.8,23.9h0.2l11.1-23.9h14.7l-18.6,38.4v25.2h-15.3v-25.2H385.5z"/>
</g>
</svg>
