<?xml version="1.0" encoding="utf-8"?>
<!-- Generator: Adobe Illustrator 22.0.0, SVG Export Plug-In . SVG Version: 6.00 Build 0)  -->
<!DOCTYPE svg PUBLIC "-//W3C//DTD SVG 1.1//EN" "http://www.w3.org/Graphics/SVG/1.1/DTD/svg11.dtd">
<svg version="1.1" id="Слой_1" xmlns="http://www.w3.org/2000/svg" xmlns:xlink="http://www.w3.org/1999/xlink" x="0px" y="0px"
	 viewBox="0 0 476 551" style="enable-background:new 0 0 476 551;" xml:space="preserve">
<style type="text/css">
	.st0{fill:url(#SVGID_1_);}
	.st1{opacity:0.9;clip-path:url(#SVGID_3_);}
	.st2{fill:#FF9600;}
	.st3{opacity:0.5;}
	.st4{clip-path:url(#SVGID_5_);fill:#FFFFFF;}
	.st5{clip-path:url(#SVGID_7_);fill:#FFFFFF;}
	.st6{clip-path:url(#SVGID_9_);fill:#FFFFFF;}
	.st7{clip-path:url(#SVGID_11_);fill:#FFFFFF;}
	.st8{clip-path:url(#SVGID_13_);fill:#FFFFFF;}
	.st9{clip-path:url(#SVGID_15_);fill:#FFFFFF;}
	.st10{clip-path:url(#SVGID_17_);fill:#FFFFFF;}
	.st11{clip-path:url(#SVGID_19_);fill:#FFFFFF;}
	.st12{clip-path:url(#SVGID_21_);fill:#FFFFFF;}
</style>
<linearGradient id="SVGID_1_" gradientUnits="userSpaceOnUse" x1="-432.9185" y1="658.9529" x2="914.2162" y2="-109.1238" gradientTransform="matrix(1 0 0 -1 0 551.8898)">
	<stop  offset="0" style="stop-color:#FFCD44"/>
	<stop  offset="3.262098e-03" style="stop-color:#FFCC43"/>
	<stop  offset="9.008178e-02" style="stop-color:#F9B12B"/>
	<stop  offset="0.1847" style="stop-color:#F59D18"/>
	<stop  offset="0.2913" style="stop-color:#F18E0A"/>
	<stop  offset="0.4187" style="stop-color:#F08602"/>
	<stop  offset="0.6213" style="stop-color:#EF8300"/>
	<stop  offset="1" style="stop-color:#EC6D05"/>
</linearGradient>
<polygon class="st0" points="476.9,413.4 476.9,138.1 238.5,0.5 0.1,138.1 0.1,413.4 238.5,551 "/>
<g>
	<g>
		<defs>
			<polygon id="SVGID_2_" points="475.9,413.4 475.9,138.1 237.5,0.5 -0.9,138.1 -0.9,413.4 237.5,551 			"/>
		</defs>
		<clipPath id="SVGID_3_">
			<use xlink:href="#SVGID_2_"  style="overflow:visible;"/>
		</clipPath>
		<g class="st1">
			<g>
				<path class="st2" d="M852.7,1219.7l-1.4-0.8l-137.7-79.5V978.8l139.1-80.3l1.4,0.8l137.7,79.5v160.6L852.7,1219.7z
					 M719.1,1136.2l133.6,77.1l133.6-77.1V981.9l-133.6-77.1l-133.6,77.1V1136.2z"/>
			</g>
			<g>
				<path class="st2" d="M648.1,1258.9l-70.9-40.9v-81.9l70.9-40.9l70.9,40.9v81.9L648.1,1258.9z M582.7,1214.8l65.4,37.8l65.4-37.8
					v-75.6l-65.4-37.8l-65.4,37.8V1214.8z"/>
			</g>
			<g>
				<path class="st2" d="M716.3,1377l-70.9-40.9v-81.9l70.9-40.9l70.9,40.9v81.9L716.3,1377z M650.9,1332.9l65.4,37.8l65.4-37.8
					v-75.6l-65.4-37.8l-65.4,37.8V1332.9z"/>
			</g>
			<g>
				<path class="st2" d="M239,1258.9l-70.9-40.9v-81.9l70.9-40.9l70.9,40.9v81.9L239,1258.9z M173.5,1214.8l65.4,37.8l65.4-37.8
					v-75.6l-65.4-37.8l-65.4,37.8V1214.8z"/>
			</g>
			<g>
				<path class="st2" d="M443.5,1140.8l-70.9-40.9V1018l70.9-40.9l70.9,40.9v81.9L443.5,1140.8z M378.1,1096.7l65.4,37.8l65.4-37.8
					v-75.6l-65.4-37.8l-65.4,37.8V1096.7z"/>
			</g>
			<g>
				<path class="st2" d="M852.6,1377.1l-1.4-0.8l-137.7-79.5v-160.6l139.1-80.3l1.4,0.8l137.7,79.5v160.6L852.6,1377.1z M719,1293.7
					l133.6,77.1l133.6-77.1v-154.3l-133.6-77.1L719,1139.4V1293.7z"/>
			</g>
			<g>
				<path class="st2" d="M307.1,1140.6l-1.4-0.8L168,1060.3V899.7l139.1-80.3l1.4,0.8l137.7,79.5v160.6L307.1,1140.6z M173.5,1057.2
					l133.6,77.1l133.6-77.1V902.9l-133.6-77.1l-133.6,77.1V1057.2z"/>
			</g>
			<g>
				<path class="st2" d="M307.1,1298.2l-1.4-0.8L99.9,1178.6V939.3l207.3-119.7l1.4,0.8l205.9,118.9v239.3l-1.4,0.8L307.1,1298.2z
					 M105.4,1175.4l201.8,116.5L509,1175.4v-233L307.1,825.9L105.4,942.4V1175.4z"/>
			</g>
			<g>
				<path class="st2" d="M648.2,1258.9l-1.4-0.8l-137.7-79.5V1018l139.1-80.3l1.4,0.8l137.7,79.5v160.6L648.2,1258.9z M514.5,1175.4
					l133.6,77.1l133.6-77.1v-154.3L648.2,944l-133.6,77.1L514.5,1175.4L514.5,1175.4z"/>
			</g>
			<g>
				<path class="st2" d="M648.1,1337.9l-71-41v-82l71-41l71,41v82L648.1,1337.9z M582.6,1293.7l65.6,37.9l65.6-37.9V1218l-65.6-37.9
					l-65.6,37.9V1293.7z"/>
			</g>
			<g>
				<path class="st2" d="M170.8,1219.7l-71-41v-82l71-41l71,41v82L170.8,1219.7z M105.2,1175.5l65.6,37.9l65.6-37.9v-75.7
					l-65.6-37.9l-65.6,37.9C105.2,1099.8,105.2,1175.5,105.2,1175.5z"/>
			</g>
			<g>
				<path class="st2" d="M443.5,1062.1l-71-41v-82l71-41l71,41v82L443.5,1062.1z M377.9,1017.9l65.6,37.9l65.6-37.9v-75.7
					l-65.6-37.9l-65.6,37.9V1017.9z"/>
			</g>
			<g>
				<path class="st2" d="M716.3,1376.8l-70.9-40.9V1254l70.9-40.9l70.9,40.9v81.9L716.3,1376.8z M650.9,1332.7l65.4,37.8l65.4-37.8
					v-75.6l-65.4-37.8l-65.4,37.8V1332.7z"/>
			</g>
			<g>
				<path class="st2" d="M34.5,747.1l-70.9-40.9v-81.9l70.9-40.9l70.9,40.9v81.9L34.5,747.1z M-31,703l65.4,37.8L99.9,703v-75.6
					l-65.4-37.8L-31,627.5V703z"/>
			</g>
			<g>
				<path class="st2" d="M375.3,1337.5l-1.4-0.8l-137.7-79.5v-160.6l139.1-80.3l1.4,0.8l137.7,79.5v160.6L375.3,1337.5z M241.7,1254
					l133.6,77.1l133.6-77.1v-154.3l-133.6-77.1l-133.6,77.1L241.7,1254L241.7,1254z"/>
			</g>
			<g>
				<path class="st2" d="M579.9,1376.8l-1.4-0.8l-205.9-118.9v-239.3l207.3-119.7l1.4,0.8l205.9,118.9v239.3L579.9,1376.8z
					 M378.2,1254L580,1370.5L781.7,1254v-233L579.9,904.5L378.2,1021V1254z"/>
			</g>
			<g>
				<path class="st2" d="M-102.2,983.4l-1.4-0.8l-137.7-79.5V742.5l139.1-80.3l139.1,80.3v160.6L-102.2,983.4z M-235.8,899.9
					l133.6,77.1l133.6-77.1V745.6l-133.6-77.1l-133.6,77.1V899.9z"/>
			</g>
			<g>
				<path class="st2" d="M852.5,1140.7l-71-41v-82l71-41l71,41v82L852.5,1140.7z M786.9,1096.5l65.6,37.9l65.6-37.9v-75.7L852.5,983
					l-65.6,37.9V1096.5z"/>
			</g>
			<g>
				<path class="st2" d="M33.9,1140.8l-71-41v-82l71-41l71,41v82L33.9,1140.8z M-31.7,1096.6l65.6,37.9l65.6-37.9v-75.7L33.9,983
					l-65.6,37.9C-31.7,1020.9-31.7,1096.6-31.7,1096.6z"/>
			</g>
			<g>
				<path class="st2" d="M443.8,825.9l-71-41v-82l71-41l71,41v82L443.8,825.9z M378.2,781.7l65.6,37.9l65.6-37.9V706l-65.6-37.9
					L378.2,706V781.7z"/>
			</g>
			<g>
				<path class="st2" d="M852.5,1377.4l-71-41v-82l71-41l71,41v82L852.5,1377.4z M786.9,1333.3l65.6,37.9l65.6-37.9v-75.7
					l-65.6-37.9l-65.6,37.9V1333.3z"/>
			</g>
			<g>
				<path class="st2" d="M443.6,1140.8l-71-41v-82l71-41l71,41v82L443.6,1140.8z M378.1,1096.6l65.6,37.9l65.6-37.9v-75.7L443.7,983
					l-65.6,37.9V1096.6z"/>
			</g>
			<g>
				<path class="st2" d="M375.3,943.9L304.4,903v-81.9l70.9-40.9l70.9,40.9V903L375.3,943.9z M309.9,899.8l65.4,37.8l65.4-37.8
					v-75.6l-65.4-37.8l-65.4,37.8V899.8z"/>
			</g>
			<g>
				<path class="st2" d="M307.2,1062l-70.9-40.9v-81.9l70.9-40.9l70.9,40.9v81.9L307.2,1062z M241.7,1017.9l65.4,37.8l65.4-37.8
					v-75.6l-65.4-37.8l-65.4,37.8L241.7,1017.9L241.7,1017.9z"/>
			</g>
			<g>
				<path class="st2" d="M307.2,1140.7l-70.9-40.9v-81.9l70.9-40.9l70.9,40.9v81.9L307.2,1140.7z M241.7,1096.6l65.4,37.8l65.4-37.8
					V1021l-65.4-37.8l-65.4,37.8L241.7,1096.6L241.7,1096.6z"/>
			</g>
			<g>
				<path class="st2" d="M783.5,1495.6l-70.9-40.9v-81.9l70.9-40.9l70.9,40.9v81.9L783.5,1495.6z M718.1,1451.5l65.4,37.8l65.4-37.8
					v-75.6l-65.4-37.8l-65.4,37.8V1451.5z"/>
			</g>
			<g>
				<path class="st2" d="M921.3,1416.8l-70.9-40.9V1294l70.9-40.9l70.9,40.9v81.9L921.3,1416.8z M855.8,1372.7l65.4,37.8l65.4-37.8
					v-75.6l-65.4-37.8l-65.4,37.8V1372.7z"/>
			</g>
			<g>
				<path class="st2" d="M648.1,1101.4l-70.9-40.9v-81.9l70.9-40.9l70.9,40.9v81.9L648.1,1101.4z M582.7,1057.3l65.4,37.8l65.4-37.8
					v-75.6l-65.4-37.8l-65.4,37.8V1057.3z"/>
			</g>
			<g>
				<path class="st2" d="M511.7,1180.1l-1.4-0.8l-137.7-79.5V939.2l139.1-80.3l1.4,0.8l137.7,79.5v160.6L511.7,1180.1z
					 M378.1,1096.6l133.6,77.1l133.6-77.1V942.4l-133.6-77.1l-133.6,77.1L378.1,1096.6L378.1,1096.6z"/>
			</g>
			<g>
				<path class="st2" d="M170.8,1062.2l-139-80.3V821.3l139-80.3l139.1,80.3v160.6L170.8,1062.2z M37.2,978.7l133.6,77.1l133.6-77.1
					V824.4l-133.6-77.1L37.2,824.4V978.7z"/>
			</g>
			<g>
				<path class="st2" d="M648.1,1337.5l-1.4-0.8L509,1257.2v-160.6l139.1-80.3l1.4,0.8l137.7,79.5v160.6L648.1,1337.5z
					 M514.5,1254.1l133.6,77.1l133.6-77.1v-154.3l-133.6-77.1l-133.6,77.1V1254.1z"/>
			</g>
			<g>
				<path class="st2" d="M34.2,983.1l-1.4-0.8l-205.9-118.9V624.2l1.4-0.8L34.2,504.5l207.3,119.7v239.3L34.2,983.1z M-167.6,860.3
					L34.2,976.8L236,860.3v-233L34.2,510.8l-201.8,116.5V860.3z"/>
			</g>
			<g>
				<path class="st2" d="M375.3,943.9l-1.4-0.8l-137.7-79.5V703l139.1-80.3L514.4,703v160.6L375.3,943.9z M241.7,860.5l133.6,77.1
					l133.6-77.1V706.2l-133.6-77.1l-133.6,77.1L241.7,860.5L241.7,860.5z"/>
			</g>
			<g>
				<path class="st2" d="M102.5,1022.6l-1.4-0.8l-137.7-79.5V781.7l139.1-80.3l139.1,80.3v160.6L102.5,1022.6z M-31.1,939.2
					l133.6,77.1l133.6-77.1V784.9l-133.6-77.1l-133.6,77.1C-31.1,784.9-31.1,939.2-31.1,939.2z"/>
			</g>
			<g>
				<path class="st2" d="M375.3,1023l-71-41v-82l71-41l71,41v82L375.3,1023z M309.7,978.8l65.6,37.9l65.6-37.9v-75.7l-65.6-37.9
					l-65.6,37.9V978.8z"/>
			</g>
			<g>
				<path class="st2" d="M102.6,865.4l-71-41v-82l71-41l71.1,41v82L102.6,865.4z M37.1,821.2l65.6,37.9l65.6-37.9v-75.7l-65.6-37.9
					l-65.6,37.9C37.1,745.5,37.1,821.2,37.1,821.2z"/>
			</g>
			<g>
				<path class="st2" d="M579.8,1377.1l-71-41v-82l71-41l71,41v82L579.8,1377.1z M514.3,1332.9l65.6,37.9l65.6-37.9v-75.7
					l-65.6-37.9l-65.6,37.9V1332.9z"/>
			</g>
			<g class="st3">
				<g>
					<path class="st2" d="M512.1,1653l-1.4-0.8l-205.9-118.9V1294l1.4-0.8l205.9-118.9l1.4,0.8L719.3,1294v239.3L512.1,1653z
						 M310.3,1530.2l201.8,116.5l201.8-116.5v-233l-201.8-116.5l-201.8,116.5V1530.2z"/>
				</g>
			</g>
			<g>
				<path class="st2" d="M-102.2,668.4l-70.9-40.9v-81.9l70.9-40.9l70.9,40.9v81.9L-102.2,668.4z M-167.6,624.3l65.4,37.8l65.4-37.8
					v-75.6l-65.4-37.8l-65.4,37.8V624.3z"/>
			</g>
			<g>
				<path class="st2" d="M-102.2,1297.7l-70.9-40.9v-81.9l70.9-40.9l70.9,40.9v81.9L-102.2,1297.7z M-167.6,1253.6l65.4,37.8
					l65.4-37.8V1178l-65.4-37.8l-65.4,37.8V1253.6z"/>
			</g>
			<g>
				<path class="st2" d="M-102.2,1140.8l-70.9-40.9V1018l70.9-40.9l70.9,40.9v81.9L-102.2,1140.8z M-167.6,1096.7l65.4,37.8
					l65.4-37.8v-75.6l-65.4-37.8l-65.4,37.8V1096.7z"/>
			</g>
			<g>
				<path class="st2" d="M511.2,1022.8l-1.4-0.8l-137.7-79.5V781.9l139.1-80.3l139.1,80.3v160.6L511.2,1022.8z M377.6,939.4
					l133.6,77.1l133.6-77.1V785.1L511.2,708l-133.6,77.1L377.6,939.4L377.6,939.4z"/>
			</g>
			<g class="st3">
				<g>
					<path class="st2" d="M-170.7,1258.8l-1.4-0.8l-137.7-79.5v-160.6l139.1-80.3l1.4,0.8l137.7,79.5v160.6L-170.7,1258.8z
						 M-304.4,1175.3l133.6,77.1l133.6-77.1V1021l-133.6-77.1l-133.6,77.1V1175.3z"/>
				</g>
			</g>
			<g>
				<path class="st2" d="M33.9,904.3l-1.4-0.8l-205.9-118.9V545.3l1.4-0.8L33.9,425.6l207.3,119.7v239.3l-1.4,0.8L33.9,904.3z
					 M-167.9,781.5L33.9,897.9l201.8-116.5v-233L33.9,432l-201.8,116.5V781.5z"/>
			</g>
			<g>
				<path class="st2" d="M648.1,944.3l-71-41v-82l71-41l71,41v82L648.1,944.3z M582.6,900.1l65.6,37.9l65.6-37.9v-75.7l-65.6-37.9
					l-65.6,37.9V900.1z"/>
			</g>
			<g>
				<path class="st2" d="M-102.2,1062.1l-71-41v-82l71-41l71,41v82L-102.2,1062.1z M-167.7,1017.9l65.6,37.9l65.6-37.9v-75.7
					l-65.6-37.9l-65.6,37.9V1017.9z"/>
			</g>
			<g>
				<path class="st2" d="M34.3,1298l-1.4-0.8L-173,1178.3V939L34.3,819.4l1.4,0.8L241.6,939v239.3L34.3,1298z M-167.5,1175.2
					l201.8,116.5l201.8-116.5v-233L34.3,825.7l-201.8,116.5V1175.2z"/>
			</g>
			<g>
				<path class="st2" d="M102.3,1337.3l-70.9-40.9v-81.9l70.9-40.9l70.9,40.9v81.9L102.3,1337.3z M36.9,1293.2l65.4,37.8l65.4-37.8
					v-75.6l-65.4-37.8l-65.4,37.8C36.9,1217.6,36.9,1293.2,36.9,1293.2z"/>
			</g>
			<g class="st3">
				<g>
					<path class="st2" d="M170.5,1376.8l-71-41v-82l71-41l71,41v82L170.5,1376.8z M105,1332.6l65.6,37.9l65.6-37.9v-75.7l-65.6-37.9
						l-65.6,37.9C105,1256.9,105,1332.6,105,1332.6z"/>
				</g>
			</g>
			<g>
				<path class="st2" d="M989.1,1297.9l-71.1-41v-82l71.1-41l71,41v82L989.1,1297.9z M923.5,1253.7l65.6,37.9l65.6-37.9V1178
					l-65.6-37.9l-65.6,37.9V1253.7z"/>
			</g>
			<g>
				<path class="st2" d="M238.7,865.2L99.6,784.9V624.3L238.7,544l139.1,80.3v160.6L238.7,865.2z M105.1,781.8l133.6,77.1
					l133.6-77.1V627.5l-133.6-77.1l-133.6,77.1C105.1,627.5,105.1,781.8,105.1,781.8z"/>
			</g>
			<g>
				<path class="st2" d="M-102.2,1376.5l-1.4-0.8l-137.7-79.5v-160.6l139.1-80.3l1.4,0.8l137.7,79.5v160.6L-102.2,1376.5z
					 M-235.8,1293l133.6,77.1L31.4,1293v-154.3l-133.6-77.1l-133.6,77.1L-235.8,1293L-235.8,1293z"/>
			</g>
			<g>
				<path class="st2" d="M-34.1,550.6l-71-41v-82l71-41l71,41v82L-34.1,550.6z M-99.7,506.5l65.6,37.9l65.6-37.9v-75.7l-65.6-37.9
					l-65.6,37.9V506.5z"/>
			</g>
			<g>
				<path class="st2" d="M307.3,747.3l-70.9-40.9v-81.9l70.9-40.9l70.9,40.9v81.9L307.3,747.3z M241.9,703.2l65.4,37.8l65.4-37.8
					v-75.6l-65.4-37.8l-65.4,37.8V703.2z"/>
			</g>
			<g>
				<path class="st2" d="M239.1,707.4l-70.9-40.9v-81.9l70.9-40.9l70.9,40.9v81.9L239.1,707.4z M173.7,663.3l65.4,37.8l65.4-37.8
					v-75.6L239.1,550l-65.4,37.8L173.7,663.3L173.7,663.3z"/>
			</g>
			<g>
				<path class="st2" d="M-102.4,511.1l-70.9-40.9v-81.9l70.9-40.9l70.9,40.9v81.9L-102.4,511.1z M-167.9,467l65.4,37.8L-37,467
					v-75.6l-65.4-37.8l-65.4,37.8L-167.9,467L-167.9,467z"/>
			</g>
			<g>
				<path class="st2" d="M102.1,629.2l-70.9-40.9v-81.9l70.9-40.9l70.9,40.9v81.9L102.1,629.2z M36.7,585.1l65.4,37.8l65.4-37.8
					v-75.6l-65.4-37.8l-65.4,37.8C36.7,509.5,36.7,585.1,36.7,585.1z"/>
			</g>
			<g>
				<path class="st2" d="M-34.4,707.7l-70.9-40.9v-81.9l70.9-40.9l70.9,40.9v81.9L-34.4,707.7z M-99.9,663.6l65.4,37.8L31,663.6V588
					l-65.4-37.8L-99.8,588L-99.9,663.6L-99.9,663.6z"/>
			</g>
			<g>
				<path class="st2" d="M-170.9,786.5L-310,706.2V545.6l139.1-80.3l139.1,80.3v160.6L-170.9,786.5z M-304.5,703l133.6,77.1
					L-37.3,703V548.7l-133.6-77.1l-133.6,77.1V703z"/>
			</g>
			<g>
				<path class="st2" d="M33.9,904.7l-1.4-0.8L-173.4,785V545.7l1.4-0.8L33.9,426.1l207.3,119.7v239.3l-1.4,0.8L33.9,904.7z
					 M-167.9,781.9L33.9,898.4l201.8-116.5v-233L33.9,432.4l-201.8,116.5V781.9z"/>
			</g>
			<g>
				<path class="st2" d="M-171.1,550.5l-71.1-41v-82l71.1-41l71,41v82L-171.1,550.5z M-236.6,506.3l65.6,37.9l65.6-37.9v-75.7
					l-65.6-37.9l-65.6,37.9V506.3z"/>
			</g>
			<g>
				<path class="st2" d="M989,1140.5l-71-41v-82l71-41l71,41v82L989,1140.5z M923.4,1096.3l65.6,37.9l65.6-37.9v-75.7L989,982.7
					l-65.6,37.9V1096.3z"/>
			</g>
			<g>
				<path class="st2" d="M-34.4,786.8l-71-41v-82l71-41l71,41v82L-34.4,786.8z M-100,742.6l65.6,37.9l65.6-37.9v-75.7L-34.4,629
					l-65.6,37.9V742.6z"/>
			</g>
			<g>
				<path class="st2" d="M1125.9,1141.4l-1.4-0.8l-137.7-79.5V900.5l139.1-80.3l1.4,0.8l137.7,79.5v160.6L1125.9,1141.4z
					 M992.3,1057.9l133.6,77.1l133.6-77.1V903.7l-133.6-77.1l-133.6,77.1L992.3,1057.9L992.3,1057.9z"/>
			</g>
			<g>
				<path class="st2" d="M1262,1298.8l-71-41v-82l71-41l71,41v82L1262,1298.8z M1196.4,1254.7l65.6,37.9l65.6-37.9V1179l-65.6-37.9
					l-65.6,37.9V1254.7z"/>
			</g>
			<g>
				<path class="st2" d="M1125.9,1455.8l-70.9-40.9V1333l70.9-40.9l70.9,40.9v81.9L1125.9,1455.8z M1060.4,1411.7l65.4,37.8
					l65.4-37.8v-75.6l-65.4-37.8l-65.4,37.8V1411.7z"/>
			</g>
			<g>
				<path class="st2" d="M1125.9,1298.9L1055,1258v-82l70.9-40.9l70.9,40.9v81.9L1125.9,1298.9z M1060.4,1254.8l65.4,37.8l65.4-37.8
					v-75.6l-65.4-37.8l-65.4,37.8V1254.8z"/>
			</g>
			<g>
				<path class="st2" d="M1057.3,1416.8l-1.4-0.8l-137.7-79.5v-160.6l139.1-80.3l1.4,0.8l137.7,79.5v160.6L1057.3,1416.8z
					 M923.7,1333.4l133.6,77.1l133.6-77.1v-154.3l-133.6-77.1l-133.6,77.1L923.7,1333.4L923.7,1333.4z"/>
			</g>
			<g>
				<path class="st2" d="M1125.9,1220.1l-71-41v-82l71-41l71,41v82L1125.9,1220.1z M1060.3,1176l65.6,37.9l65.6-37.9v-75.7
					l-65.6-37.9l-65.6,37.9V1176z"/>
			</g>
			<g>
				<path class="st2" d="M1125.9,1534.5l-1.4-0.8l-137.7-79.5v-160.6l139.1-80.3l1.4,0.8l137.7,79.5v160.6L1125.9,1534.5z
					 M992.3,1451l133.6,77.1l133.6-77.1v-154.3l-133.6-77.1l-133.6,77.1L992.3,1451L992.3,1451z"/>
			</g>
			<g>
				<path class="st2" d="M1057.1,944.5l-1.4-0.8L918,864.2V703.6l139.1-80.3l139.1,80.3v160.6L1057.1,944.5z M923.5,861l133.6,77.1
					l133.6-77.1V706.8l-133.6-77.1l-133.6,77.1V861z"/>
			</g>
			<g>
				<path class="st2" d="M783.5,1023.7l-71-41v-82l71-41l71,41v82L783.5,1023.7z M717.9,979.5l65.6,37.9l65.6-37.9v-75.7L783.5,866
					l-65.6,37.9V979.5z"/>
			</g>
			<g>
				<path class="st2" d="M375.4,786.5l-71-41v-82l71-41l71,41v82L375.4,786.5z M309.9,742.3l65.6,37.9l65.6-37.9v-75.7l-65.6-37.9
					l-65.6,37.9V742.3z"/>
			</g>
			<g>
				<path class="st2" d="M579-40.1L371.8-159.7V-399L579-518.7L786.3-399v239.3l-1.4,0.8L579-40.1z M377.2-162.9L579-46.4
					l201.8-116.5v-233L579-512.4L377.2-395.9V-162.9z"/>
			</g>
			<g>
				<path class="st2" d="M511.1-79.4L303.9-199v-239.3L511.1-558l207.3,119.7V-199l-1.4,0.8L511.1-79.4z M309.4-202.2L511.1-85.7
					l201.8-116.5v-233L511.1-551.7L309.4-435.2V-202.2z"/>
			</g>
			<g>
				<path class="st2" d="M33.5,431.9l-139.1-80.3V191l139.1-80.3L172.6,191v160.6L33.5,431.9z M-100.1,348.5l133.6,77.1l133.6-77.1
					V194.2L33.5,117.1l-133.6,77.1C-100.1,194.2-100.1,348.5-100.1,348.5z"/>
			</g>
			<g>
				<path class="st2" d="M238,235.3l-70.9-40.9v-81.9L238,71.6l70.9,40.9v81.9L238,235.3z M172.6,191.2L238,229l65.4-37.8v-75.6
					L238,77.9l-65.4,37.8V191.2z"/>
			</g>
			<g>
				<path class="st2" d="M169.9,117.2L99,76.3V-5.6l70.9-40.9l70.9,40.9v81.9L169.9,117.2z M104.4,73.1l65.4,37.8l65.4-37.8V-2.4
					l-65.4-37.8L104.4-2.4V73.1z"/>
			</g>
			<g>
				<path class="st2" d="M169.9,38.5L99-2.4v-81.9l70.9-40.9l70.9,40.9v81.9L169.9,38.5z M104.4-5.6l65.4,37.8l65.4-37.8v-75.6
					L169.8-119l-65.4,37.8L104.4-5.6L104.4-5.6z"/>
			</g>
			<g>
				<path class="st2" d="M647.2,235.3l-70.9-40.9v-81.9l70.9-40.9l70.9,40.9v81.9L647.2,235.3z M581.7,191.2l65.4,37.8l65.4-37.8
					v-75.6l-65.4-37.8l-65.4,37.8V191.2z"/>
			</g>
			<g>
				<path class="st2" d="M442.7,353.4l-70.9-40.9v-81.9l70.9-40.9l70.9,40.9v81.9L442.7,353.4z M377.2,309.3l65.4,37.8l65.4-37.8
					v-75.6l-65.4-37.8l-65.4,37.8V309.3z"/>
			</g>
			<g>
				<path class="st2" d="M510.8,77.9L439.9,37v-81.9l70.9-40.9l70.9,40.9V37L510.8,77.9z M445.4,33.8l65.4,37.8l65.4-37.8v-75.6
					l-65.4-37.8l-65.4,37.8L445.4,33.8L445.4,33.8z"/>
			</g>
			<g>
				<path class="st2" d="M374.4,156.6L235.3,76.3V-84.3l139.1-80.3l139.1,80.3V76.3L374.4,156.6z M240.8,73.1l133.6,77.1L508,73.1
					V-81.1l-133.6-77.1L240.8-81.1V73.1z"/>
			</g>
			<g>
				<path class="st2" d="M33.5,274.5l-139.1-80.3V33.6L33.5-46.7l139.1,80.3v160.6L33.5,274.5z M-100.1,191l133.6,77.1L167.1,191
					V36.8L33.5-40.4l-133.6,77.1C-100.1,36.7-100.1,191-100.1,191z"/>
			</g>
			<g>
				<path class="st2" d="M579,511l-139.1-80.3V270.1L579,189.8l139.1,80.3v160.6L579,511z M445.4,427.5L579,504.7l133.6-77.1V273.2
					L579,196.1l-133.6,77.1V427.5z"/>
			</g>
			<g>
				<path class="st2" d="M510.8-0.8l-139-80.3v-160.6l139-80.3l139.1,80.3v160.6L510.8-0.8z M377.2-84.3L510.8-7.2l133.6-77.1
					v-154.3l-133.6-77.1l-133.6,77.1V-84.3z"/>
			</g>
			<g>
				<path class="st2" d="M169.7-40.2L-37.6-159.9v-239.3l1.4-0.8l205.9-118.9L377-399.2v239.3L169.7-40.2z M-32.1-163L169.7-46.5
					L371.5-163v-233L169.7-512.5L-32.1-396V-163z"/>
			</g>
			<g>
				<path class="st2" d="M579,510.8L371.8,391.2V151.8l1.4-0.8L579,32.2l207.3,119.7v239.3L579,510.8z M377.2,388L579,504.5
					L780.8,388V155L579,38.5L377.2,155V388z"/>
			</g>
			<g>
				<path class="st2" d="M306.2,38.5L98.9-81.2v-239.3l207.3-119.7l207.3,119.7v239.3l-1.4,0.8L306.2,38.5z M104.4-84.3L306.2,32.2
					L508-84.3v-233L306.2-433.8L104.4-317.3V-84.3z"/>
			</g>
			<g>
				<path class="st2" d="M238,392.7L98.9,312.5V151.8L238,71.6l139.1,80.3v160.6L238,392.7z M104.4,309.3L238,386.4l133.6-77.1V155
					L238,77.9L104.4,155V309.3z"/>
			</g>
			<g>
				<path class="st2" d="M238,156.6l-71-41v-82l71-41l71,41v82L238,156.6z M172.4,112.4l65.6,37.9l65.6-37.9V36.7L238-1.2
					l-65.6,37.9V112.4z"/>
			</g>
			<g>
				<path class="st2" d="M715.4,274.8l-71-41v-82l71-41l71,41v82L715.4,274.8z M649.8,230.6l65.6,37.9l65.6-37.9v-75.7L715.4,117
					l-65.6,37.9V230.6z"/>
			</g>
			<g>
				<path class="st2" d="M442.7,432.4l-71-41v-82l71-41l71,41v82L442.7,432.4z M377.1,388.2l65.6,37.9l65.6-37.9v-75.7l-65.6-37.9
					l-65.6,37.9V388.2z"/>
			</g>
			<g>
				<path class="st2" d="M238-79.4l-70.9-40.9v-81.9l70.9-40.9l70.9,40.9v81.9L238-79.4z M172.6-123.5L238-85.8l65.4-37.8v-75.6
					L238-236.9l-65.4,37.8V-123.5z"/>
			</g>
			<g>
				<path class="st2" d="M169.9,38.7L99-2.3v-81.9l70.9-40.9l70.9,40.9v81.9L169.9,38.7z M104.4-5.4l65.4,37.8l65.4-37.8V-81
					l-65.4-37.8L104.4-81V-5.4z"/>
			</g>
			<g>
				<path class="st2" d="M169.9,117.4L99,76.4V-5.4l70.9-40.9l70.9,40.9v81.9L169.9,117.4z M104.4,73.3l65.4,37.8l65.4-37.8V-2.3
					l-65.4-37.8L104.4-2.3V73.3z"/>
			</g>
			<g>
				<path class="st2" d="M647.2-79.4l-70.9-40.9v-81.9l70.9-40.9l70.9,40.9v81.9L647.2-79.4z M581.7-123.5l65.4,37.8l65.4-37.8
					v-75.6l-65.4-37.8l-65.4,37.8V-123.5z"/>
			</g>
			<g>
				<path class="st2" d="M510.8,78l-70.9-40.9v-81.9l70.9-40.9l70.9,40.9v81.9L510.8,78z M445.4,33.9l65.4,37.8l65.4-37.8v-75.6
					l-65.4-37.8l-65.4,37.8L445.4,33.9L445.4,33.9z"/>
			</g>
			<g>
				<path class="st2" d="M374.4,156.7L235.3,76.4V-84.2l139.1-80.3l139.1,80.3V76.4L374.4,156.7z M240.8,73.3l133.6,77.1L508,73.3
					V-81l-133.6-77.1L240.8-81V73.3z"/>
			</g>
			<g>
				<path class="st2" d="M33.5,38.8l-139.1-80.3v-160.6l139.1-80.3l139.1,80.3v160.6L33.5,38.8z M-100.1-44.6L33.5,32.5l133.6-77.1
					v-154.3L33.5-276.1L-100.1-199C-100.1-199-100.1-44.6-100.1-44.6z"/>
			</g>
			<g>
				<path class="st2" d="M851.7,747l-70.9-40.9v-81.9l70.9-40.9l70.9,40.9v81.9L851.7,747z M786.2,702.9l65.4,37.8l65.4-37.8v-75.6
					l-65.4-37.8l-65.4,37.8V702.9z"/>
			</g>
			<g>
				<path class="st2" d="M510.8,314.2l-139.1-80.3V73.3L510.8-7l139.1,80.3v160.6L510.8,314.2z M377.2,230.7l133.6,77.1l133.6-77.1
					V76.4L510.8-0.7L377.2,76.4V230.7z"/>
			</g>
			<g>
				<path class="st2" d="M306.2,432.3L98.9,312.6V73.3l1.4-0.8L306.2-46.4L513.5,73.3v239.3L306.2,432.3z M104.4,309.4l201.8,116.5
					L508,309.4v-233L306.2-40.1L104.4,76.4V309.4z"/>
			</g>
			<g>
				<g>
					<path class="st2" d="M238-79.4L98.9-159.7v-160.6L238-400.6l139.1,80.3v160.6L238-79.4z M104.4-162.9L238-85.8l133.6-77.1
						v-154.3L238-394.3l-133.6,77.1C104.4-317.2,104.4-162.9,104.4-162.9z"/>
				</g>
			</g>
			<g>
				<path class="st2" d="M988.3,668.3L849.2,588V427.4l139.1-80.3l139.1,80.3V588L988.3,668.3z M854.7,584.8l133.6,77.1l133.6-77.1
					V430.5l-133.6-77.1l-133.6,77.1L854.7,584.8L854.7,584.8z"/>
			</g>
			<g>
				<path class="st2" d="M238-0.4l-71-41v-82l71-41l71,41v82L238-0.4z M172.4-44.6L238-6.7l65.6-37.9v-75.7L238-158.1l-65.6,37.9
					V-44.6z"/>
			</g>
			<g>
				<path class="st2" d="M33.7,353.8l-71-41v-82l71-41l71,41v82L33.7,353.8z M-31.9,309.6l65.6,37.9l65.6-37.9v-75.7L33.7,196
					l-65.6,37.9C-31.9,233.9-31.9,309.6-31.9,309.6z"/>
			</g>
			<g>
				<path class="st2" d="M852.2,353.7l-71-41v-82l71-41l71,41v82L852.2,353.7z M786.7,309.5l65.6,37.9l65.6-37.9v-75.7l-65.6-37.9
					l-65.6,37.9V309.5z"/>
			</g>
			<g>
				<path class="st2" d="M442.4,668.6l-71-41v-82l71-41l71,41v82L442.4,668.6z M376.8,624.5l65.6,37.9l65.6-37.9v-75.7l-65.6-37.9
					l-65.6,37.9V624.5z"/>
			</g>
			<g>
				<path class="st2" d="M33.7,117.1l-71-41V-6l71-41l71,41v82L33.7,117.1z M-31.9,72.9l65.6,37.9l65.6-37.9V-2.8L33.7-40.7
					L-31.9-2.8V72.9z"/>
			</g>
			<g>
				<path class="st2" d="M715.3-39.7l-71-41v-82l71-41l71,41v82L715.3-39.7z M649.8-83.9L715.4-46L781-83.9v-75.7l-65.6-37.9
					l-65.6,37.9V-83.9z"/>
			</g>
			<g>
				<path class="st2" d="M715.4-118.6l-71-41v-82l71-41l71,41v82L715.4-118.6z M649.8-162.8l65.6,37.9l65.6-37.9v-75.7l-65.6-37.9
					l-65.6,37.9V-162.8z"/>
			</g>
			<g>
				<path class="st2" d="M442.5,353.7l-71-41v-82l71-41l71,41v82L442.5,353.7z M377,309.5l65.6,37.9l65.6-37.9v-75.7l-65.6-37.9
					L377,233.8V309.5z"/>
			</g>
			<g>
				<path class="st2" d="M510.8,550.3l-70.9-40.9v-81.9l70.9-40.9l70.9,40.9v81.9L510.8,550.3z M445.4,506.2l65.4,37.8l65.4-37.8
					v-75.6l-65.4-37.8l-65.4,37.8L445.4,506.2L445.4,506.2z"/>
			</g>
			<g>
				<path class="st2" d="M579,432.2l-70.9-40.9v-81.9l70.9-40.9l70.9,40.9v81.9L579,432.2z M513.5,388.1l65.4,37.8l65.4-37.8v-75.6
					L579,274.7l-65.4,37.8L513.5,388.1L513.5,388.1z"/>
			</g>
			<g>
				<path class="st2" d="M579,353.4l-70.9-40.9v-81.9l70.9-40.9l70.9,40.9v81.9L579,353.4z M513.5,309.3l65.4,37.8l65.4-37.8v-75.6
					L579,196l-65.4,37.8L513.5,309.3L513.5,309.3z"/>
			</g>
			<g>
				<path class="st2" d="M238,392.8l-70.9-40.9V270l70.9-40.9l70.9,40.9v81.9L238,392.8z M172.6,348.7l65.4,37.8l65.4-37.8v-75.6
					L238,235.4l-65.4,37.8V348.7z"/>
			</g>
			<g>
				<path class="st2" d="M374.5,471.5l-139.1-80.3V230.6l139.1-80.3l139.1,80.3v160.6L374.5,471.5z M240.9,388.1l133.6,77.1
					l133.6-77.1V233.8l-133.6-77.1l-133.6,77.1V388.1z"/>
			</g>
			<g>
				<path class="st2" d="M715.3,589.4l-139.1-80.3V348.5l139.1-80.3l139.1,80.3v160.6L715.3,589.4z M581.7,506l133.6,77.1L848.9,506
					V351.7l-133.6-77.1l-133.6,77.1L581.7,506L581.7,506z"/>
			</g>
			<g>
				<path class="st2" d="M238,314.1L98.9,233.8V73.2L238-7.1l139.1,80.3v160.6L238,314.1z M104.4,230.6L238,307.8l133.6-77.1V76.4
					L238-0.8L104.4,76.4V230.6z"/>
			</g>
			<g>
				<path class="st2" d="M852,825.9l-1.4-0.8L644.7,706.3V466.9L852,347.3L1059.3,467v239.3l-1.4,0.8L852,825.9z M650.2,703.1
					L852,819.6l201.8-116.5v-233L852,353.6L650.2,470.1V703.1z"/>
			</g>
			<g>
				<path class="st2" d="M579.2,274.7L371.9,155.1V-84.3l1.4-0.8L579.2-204L786.4-84.3V155L579.2,274.7z M377.4,151.9l201.8,116.5
					L781,151.9v-233L579.2-197.6L377.4-81.1V151.9z"/>
			</g>
			<g>
				<path class="st2" d="M510.8,707.7l-139.1-80.3V466.8l139.1-80.3l139.1,80.3v160.6L510.8,707.7z M377.2,624.2l133.6,77.1
					l133.6-77.1V470l-133.6-77.1L377.2,470V624.2z"/>
			</g>
			<g>
				<path class="st2" d="M920-0.8L780.9-81.1v-160.6L920-322l139.1,80.3v160.6L920-0.8z M786.4-84.3L920-7.2l133.6-77.1v-154.3
					L920-315.7l-133.6,77.1V-84.3z"/>
			</g>
			<g>
				<path class="st2" d="M783.7,629l-139.1-80.3V388.1l139.1-80.3l139.1,80.3v160.6L783.7,629z M650.1,545.5l133.6,77.1l133.6-77.1
					V391.2l-133.6-77.1l-133.6,77.1V545.5z"/>
			</g>
			<g>
				<path class="st2" d="M510.8,471.5l-71-41v-82l71-41l71,41v82L510.8,471.5z M445.3,427.4l65.6,37.9l65.6-37.9v-75.7l-65.6-37.9
					l-65.6,37.9V427.4z"/>
			</g>
			<g>
				<path class="st2" d="M783.7-79.4l-71-41v-82l71-41l71,41v82L783.7-79.4z M718.1-123.6l65.6,37.9l65.6-37.9v-75.7l-65.6-37.9
					l-65.6,37.9V-123.6z"/>
			</g>
			<g>
				<path class="st2" d="M783.5,629.1l-71-41v-82l71-41l71,41v82L783.5,629.1z M718,584.9l65.6,37.9l65.6-37.9v-75.7l-65.6-37.9
					L718,509.2V584.9z"/>
			</g>
			<g>
				<path class="st2" d="M306.3,117.4l-71-41v-82l71-41l71,41v82L306.3,117.4z M240.8,73.3l65.6,37.9L372,73.3V-2.5l-65.6-37.9
					L240.8-2.5V73.3z"/>
			</g>
			<g>
				<path class="st2" d="M169.7,511L-37.6,391.3V152l1.4-0.8L169.7,32.3L377,152v239.3l-1.4,0.8L169.7,511z M-32.1,388.2
					l201.8,116.5l201.8-116.5v-233L169.7,38.7L-32.1,155.2V388.2z"/>
			</g>
			<g>
				<path class="st2" d="M988.3,825.8l-70.9-40.9V703l70.9-40.9l70.9,40.9v81.9L988.3,825.8z M922.9,781.7l65.4,37.8l65.4-37.8
					v-75.6l-65.4-37.8l-65.4,37.8V781.7z"/>
			</g>
			<g>
				<path class="st2" d="M988.3,196.4l-70.9-40.9V73.6l70.9-40.9l70.9,40.9v81.9L988.3,196.4z M922.9,152.3l65.4,37.8l65.4-37.8
					V76.8L988.3,39l-65.4,37.8L922.9,152.3L922.9,152.3z"/>
			</g>
			<g>
				<path class="st2" d="M988.3,353.4l-70.9-40.9v-81.9l70.9-40.9l70.9,40.9v81.9L988.3,353.4z M922.9,309.3l65.4,37.8l65.4-37.8
					v-75.6l-65.4-37.8l-65.4,37.8V309.3z"/>
			</g>
			<g>
				<path class="st2" d="M374.9,628.8l-139.1-80.3V387.9l139.1-80.3L514,387.9v160.6L374.9,628.8z M241.3,545.4l133.6,77.1
					l133.6-77.1V391.1L374.9,314l-133.6,77.1L241.3,545.4L241.3,545.4z"/>
			</g>
			<g>
				<path class="st2" d="M1056.9,392.8l-139.1-80.3V151.9l139.1-80.3l139.1,80.3v160.6L1056.9,392.8z M923.3,309.4l133.6,77.1
					l133.6-77.1V155.1L1056.9,78l-133.6,77.1L923.3,309.4L923.3,309.4z"/>
			</g>
			<g>
				<path class="st2" d="M852.2,904.8l-1.4-0.8L645,785.1V545.8l207.3-119.7l207.3,119.7v239.3l-1.4,0.8L852.2,904.8z M650.5,782
					l201.8,116.5L1054,782V549L852.2,432.5L650.5,549V782z"/>
			</g>
			<g>
				<path class="st2" d="M238,550.3l-71-41v-82l71-41l71,41v82L238,550.3z M172.4,506.1L238,544l65.6-37.9v-75.7L238,392.5
					l-65.6,37.9V506.1z"/>
			</g>
			<g>
				<path class="st2" d="M988.3,432.4l-71-41v-82l71-41l71.1,41v82L988.3,432.4z M922.8,388.2l65.6,37.9l65.6-37.9v-75.7l-65.6-37.9
					l-65.6,37.9L922.8,388.2L922.8,388.2z"/>
			</g>
			<g>
				<path class="st2" d="M851.8,511.1L644.6,391.4V152.1l1.4-0.8L851.8,32.4l207.3,119.7v239.3L851.8,511.1z M650.1,388.3
					l201.8,116.5l201.8-116.5v-233L851.8,38.8L650.1,155.3V388.3z"/>
			</g>
			<g>
				<path class="st2" d="M783.8,156.9L712.9,116V34.1l70.9-40.9l70.9,40.9V116L783.8,156.9z M718.4,112.8l65.4,37.8l65.4-37.8V37.3
					L783.8-0.5l-65.4,37.8L718.4,112.8L718.4,112.8z"/>
			</g>
			<g>
				<path class="st2" d="M988.3,38.8L917.4-2.1V-84l70.9-40.9l70.9,40.9v81.9L988.3,38.8z M922.9-5.3l65.4,37.8l65.4-37.8v-75.6
					l-65.4-37.8l-65.4,37.8V-5.3z"/>
			</g>
			<g>
				<path class="st2" d="M852,38.7L712.9-41.6v-160.6L852-282.5l139.1,80.3v160.6L852,38.7z M718.4-44.8L852,32.4l133.6-77.1V-199
					L852-276.2L718.4-199V-44.8z"/>
			</g>
			<g>
				<path class="st2" d="M852,196.3L644.7,76.6v-239.3l1.4-0.8L852-282.3l207.3,119.7V76.6L852,196.3z M650.2,73.5L852,190
					l201.8-116.5v-233L852-276L650.2-159.5V73.5z"/>
			</g>
			<g>
				<path class="st2" d="M715.6,117.7l-71-41v-82l71-41l71,41v82L715.6,117.7z M650.1,73.5l65.6,37.9l65.6-37.9V-2.2L715.6-40
					L650.1-2.2V73.5z"/>
			</g>
			<g>
				<path class="st2" d="M-103,196.6l-71-41v-82l71-41l71.1,41v82L-103,196.6z M-168.5,152.4l65.6,37.9l65.6-37.9V76.7L-103,38.8
					l-65.6,37.9v75.7H-168.5z"/>
			</g>
			<g>
				<path class="st2" d="M988.3-39.9l-71-41v-82l71-41l71.1,41v82L988.3-39.9z M922.8-84l65.6,37.9L1054-84v-75.7l-65.6-37.9
					l-65.6,37.9L922.8-84L922.8-84z"/>
			</g>
			<g>
				<path class="st2" d="M-102.9,38l-70.9-40.9v-81.9l70.9-40.9L-32-84.8v81.9L-102.9,38z M-168.3-6.1l65.4,37.8l65.4-37.8v-75.6
					l-65.4-37.8l-65.4,37.8V-6.1z"/>
			</g>
			<g>
				<path class="st2" d="M647.5,786.4l-139.1-80.3V545.5l139.1-80.3l139.1,80.3v160.6L647.5,786.4z M513.8,703l133.6,77.1L781.1,703
					V548.7l-133.6-77.1l-133.6,77.1V703H513.8z"/>
			</g>
			<g>
				<path class="st2" d="M988.3,275.2l-139.1-80.3V34.3L988.3-46l139.1,80.3v160.6L988.3,275.2z M854.7,191.7l133.6,77.1l133.6-77.1
					V37.4L988.3-39.7L854.7,37.4V191.7z"/>
			</g>
			<g>
				<path class="st2" d="M920.3,943.9l-71-41v-82l71-41l71,41v82L920.3,943.9z M854.7,899.7l65.6,37.9l65.6-37.9V824l-65.6-37.9
					L854.7,824V899.7z"/>
			</g>
			<g>
				<path class="st2" d="M578.8,746.9L507.9,706v-81.9l70.9-40.9l70.9,40.9V706L578.8,746.9z M513.4,702.8l65.4,37.8l65.4-37.8
					v-75.6l-65.4-37.8l-65.4,37.8V702.8z"/>
			</g>
			<g>
				<path class="st2" d="M647,786.8l-70.9-40.9V664l70.9-41l70.9,40.9v81.9L647,786.8z M581.6,742.7l65.4,37.8l65.4-37.8v-75.6
					L647,629.4l-65.4,37.8V742.7z"/>
			</g>
			<g>
				<path class="st2" d="M988.6,983.1l-70.9-40.9v-81.9l70.9-40.9l70.9,40.9v81.9L988.6,983.1z M923.2,939l65.4,37.8L1054,939v-75.6
					l-65.4-37.8l-65.4,37.8L923.2,939L923.2,939z"/>
			</g>
			<g>
				<path class="st2" d="M784.1,865l-70.9-40.9v-81.9l70.9-40.9l70.9,40.9v81.9L784.1,865z M718.6,820.9l65.4,37.8l65.4-37.8v-75.6
					L784,707.5l-65.4,37.8V820.9z"/>
			</g>
			<g>
				<path class="st2" d="M920.6,786.4l-70.9-40.9v-81.9l70.9-40.9l70.9,40.9v81.9L920.6,786.4z M855.2,742.3l65.4,37.8l65.4-37.8
					v-75.6L920.6,629l-65.4,37.8L855.2,742.3L855.2,742.3z"/>
			</g>
			<g>
				<path class="st2" d="M1057.1,865.2l-1.4-0.8L918,784.9V624.3l139.1-80.3l139.1,80.3v160.6L1057.1,865.2z M923.4,781.7
					l133.6,77.1l133.6-77.1V627.4L1057,550.3l-133.6,77.1V781.7z"/>
			</g>
			<g>
				<path class="st2" d="M852.2,904.3l-1.4-0.8L645,784.7V545.4l207.3-119.7l207.3,119.7v239.3l-1.4,0.8L852.2,904.3z M650.5,781.5
					L852.2,898L1054,781.5v-233L852.2,432L650.5,548.5V781.5z"/>
			</g>
			<g>
				<path class="st2" d="M1057.2,944l-71.1-41v-82l71.1-41l71,41v82L1057.2,944z M991.6,899.9l65.6,37.9l65.6-37.9v-75.7l-65.6-37.9
					l-65.6,37.9V899.9z"/>
			</g>
			<g>
				<path class="st2" d="M-307.3,550.8l-139.1-80.3V309.9l139.1-80.3l139.1,80.3v160.6L-307.3,550.8z M-440.9,467.3l133.6,77.1
					l133.6-77.1V313l-133.6-77.1L-440.9,313V467.3z"/>
			</g>
			<g>
				<path class="st2" d="M-307.3,708.2l-139.1-80.3V467.3l139.1-80.3l139.1,80.3v160.6L-307.3,708.2z M-440.9,624.7l133.6,77.1
					l133.6-77.1V470.5l-133.6-77.1l-133.6,77.1V624.7z"/>
			</g>
			<g>
				<path class="st2" d="M-307.4,471.8l-71-41v-82l71-41l71,41v82L-307.4,471.8z M-373,427.6l65.6,37.9l65.6-37.9v-75.7l-65.6-37.9
					l-65.6,37.9V427.6z"/>
			</g>
			<g>
				<path class="st2" d="M-307.4,708.5l-71-41v-82l71-41l71,41v82L-307.4,708.5z M-373,664.3l65.6,37.9l65.6-37.9v-75.7l-65.6-37.9
					l-65.6,37.9V664.3z"/>
			</g>
			<g>
				<path class="st2" d="M-443.5,629.2l-207.3-119.7V270.2l1.4-0.8l205.9-118.9l207.3,119.7v239.3L-443.5,629.2z M-645.2,506.3
					l201.8,116.5l201.8-116.5v-233l-201.8-116.5l-201.8,116.5V506.3z"/>
			</g>
			<g>
				<path class="st2" d="M-170.8,629l-71-41v-82l71-41l71,41v82L-170.8,629z M-236.4,584.8l65.6,37.9l65.6-37.9v-75.7l-65.6-37.9
					l-65.6,37.9V584.8z"/>
			</g>
			<g>
				<path class="st2" d="M-170.9,471.5l-71-41v-82l71-41l71,41v82L-170.9,471.5z M-236.5,427.4l65.6,37.9l65.6-37.9v-75.7
					l-65.6-37.9l-65.6,37.9V427.4z"/>
			</g>
			<g>
				<path class="st2" d="M-307.9,157L-515.2,37.3V-202L-308-321.7L-100.7-202V37.3l-1.4,0.8L-307.9,157z M-509.7,34.2l201.8,116.5
					l201.8-116.5v-233l-201.8-116.5l-201.8,116.5V34.2z"/>
			</g>
			<g>
				<path class="st2" d="M-171.6,156.8l-70.9-40.9V34l70.9-40.9l70.9,40.9v81.9L-171.6,156.8z M-237,112.7l65.4,37.8l65.4-37.8V37.2
					l-65.4-37.8L-237,37.2V112.7z"/>
			</g>
			<g>
				<path class="st2" d="M-307.7,235.9L-515,116.2v-239.3l207.3-119.7l207.3,119.7v239.3l-1.4,0.8L-307.7,235.9z M-509.5,113.1
					l201.8,116.5l201.8-116.5v-233l-201.8-116.5l-201.8,116.5V113.1z"/>
			</g>
			<g>
				<path class="st2" d="M-239.6,275l-71-41v-82l71-41l71.1,41v82L-239.6,275z M-305.2,230.8l65.6,37.9l65.6-37.9v-75.7l-65.6-37.9
					l-65.6,37.9V230.8z"/>
			</g>
			<g>
				<path class="st2" d="M-171.3,314.1l-70.9-40.9v-81.9l70.9-40.9l70.9,40.9v81.9L-171.3,314.1z M-236.8,270l65.4,37.8L-106,270
					v-75.6l-65.4-37.8l-65.4,37.8L-236.8,270L-236.8,270z"/>
			</g>
			<g>
				<path class="st2" d="M-375.8,196.1l-70.9-40.9V73.3l70.9-40.9l70.9,40.9v81.9L-375.8,196.1z M-441.3,152l65.4,37.8l65.4-37.8
					V76.4l-65.4-37.8l-65.4,37.8V152z"/>
			</g>
			<g>
				<path class="st2" d="M-239.3,117.5l-70.9-40.9V-5.3l70.9-40.9l70.9,40.9v81.9L-239.3,117.5z M-304.8,73.4l65.4,37.8l65.4-37.8
					V-2.1l-65.4-37.8l-65.4,37.8V73.4z"/>
			</g>
			<g>
				<path class="st2" d="M-102.9,196.2L-242,115.9V-44.7l139.1-80.3L36.2-44.7v160.6L-102.9,196.2z M-236.5,112.8l133.6,77.1
					l133.6-77.1V-41.5l-133.6-77.1l-133.6,77.1V112.8z"/>
			</g>
			<g>
				<path class="st2" d="M-307.7,235.4L-515,115.7v-239.3l207.3-119.7l207.3,119.7v239.3l-1.4,0.8L-307.7,235.4z M-509.5,112.6
					l201.8,116.5l201.8-116.5v-233l-201.8-116.5l-201.8,116.5V112.6z"/>
			</g>
			<g>
				<path class="st2" d="M-102.7,275.1l-71-41v-82l71-41l71,41v82L-102.7,275.1z M-168.3,230.9l65.6,37.9l65.6-37.9v-75.7
					l-65.6-37.9l-65.6,37.9V230.9z"/>
			</g>
			<g>
				<path class="st2" d="M-102.8,354l-71-41v-82l71-41l71,41v82L-102.8,354z M-168.4,309.9l65.6,37.9l65.6-37.9v-75.7l-65.6-37.9
					l-65.6,37.9V309.9z"/>
			</g>
			<g>
				<path class="st2" d="M920.6,707.7l-71-41v-82l71-41l71,41v82L920.6,707.7z M855,663.5l65.6,37.9l65.6-37.9v-75.7l-65.6-37.9
					L855,587.8V663.5z"/>
			</g>
			<g>
				<path class="st2" d="M-34.6-79.4l-71-41v-82l71-41l71,41v82L-34.6-79.4z M-100.2-123.6l65.6,37.9L31-123.6v-75.7l-65.6-37.9
					l-65.6,37.9V-123.6z"/>
			</g>
			<g>
				<path class="st2" d="M715.2,1140.2l-1.4-0.8l-205.9-118.9V781.2l1.4-0.8l205.9-118.9l207.3,119.7v239.3l-1.4,0.8L715.2,1140.2z
					 M513.4,1017.4l201.8,116.5L917,1017.4v-233L715.2,667.9L513.4,784.4V1017.4z"/>
			</g>
			<g>
				<path class="st2" d="M-238.7,1297.6l-70.9-40.9v-81.9l70.9-40.9l70.9,40.9v81.9L-238.7,1297.6z M-304.2,1253.5l65.4,37.8
					l65.4-37.8V1178l-65.4-37.8l-65.4,37.8V1253.5z"/>
			</g>
			<g>
				<path class="st2" d="M-306.9,1179.6l-70.9-40.9v-81.9l70.9-40.9l70.9,40.9v81.9L-306.9,1179.6z M-372.3,1135.5l65.4,37.8
					l65.4-37.8v-75.6l-65.4-37.8l-65.4,37.8V1135.5z"/>
			</g>
			<g class="st3">
				<g>
					<path class="st2" d="M-306.9,1100.8l-70.9-40.9V978l70.9-40.9L-236,978v81.9L-306.9,1100.8z M-372.3,1056.7l65.4,37.8
						l65.4-37.8v-75.6l-65.4-37.8l-65.4,37.8V1056.7z"/>
				</g>
			</g>
			<g>
				<path class="st2" d="M-102.4,1218.9l-1.4-0.8l-137.7-79.5V978l139.1-80.3l1.4,0.8L36.7,978v160.6L-102.4,1218.9z M-236,1135.5
					l133.6,77.1l133.6-77.1V981.2l-133.6-77.1L-236,981.2V1135.5z"/>
			</g>
			<g>
				<path class="st2" d="M-307,1022.1l-1.4-0.8l-205.9-118.9V663.1l1.4-0.8L-307,543.5l207.3,119.7v239.3L-307,1022.1z
					 M-508.8,899.3l201.8,116.5l201.8-116.5v-233L-307,549.8l-201.8,116.5V899.3z"/>
			</g>
			<g>
				<path class="st2" d="M-170.5,1100.8l-1.4-0.8l-205.9-118.9V741.9l207.3-119.7L36.7,741.9v239.3L-170.5,1100.8z M-372.3,978
					l201.8,116.5L31.2,978V745l-201.8-116.5L-372.3,745V978z"/>
			</g>
			<g>
				<path class="st2" d="M-238.7,1455.1l-1.4-0.8l-137.7-79.5v-160.6l139.1-80.3l1.4,0.8l137.7,79.5v160.6L-238.7,1455.1z
					 M-372.4,1371.6l133.6,77.1l133.6-77.1v-154.3l-133.6-77.1l-133.6,77.1V1371.6z"/>
			</g>
			<g>
				<path class="st2" d="M-238.7,1218.9l-71-41v-82l71-41l71,41v82L-238.7,1218.9z M-304.3,1174.8l65.6,37.9l65.6-37.9V1099
					l-65.6-37.9l-65.6,37.9V1174.8z"/>
			</g>
			<g>
				<path class="st2" d="M-238.7,982.9l-70.9-40.9v-81.9l70.9-40.9l70.9,40.9V942L-238.7,982.9z M-304.2,938.8l65.4,37.8l65.4-37.8
					v-75.6l-65.4-37.8l-65.4,37.8V938.8z"/>
			</g>
			<g class="st3">
				<g>
					<path class="st2" d="M-306.9,1101l-70.9-40.9v-81.9l70.9-40.9l70.9,40.9v81.9L-306.9,1101z M-372.3,1056.9l65.4,37.8l65.4-37.8
						v-75.6l-65.4-37.8l-65.4,37.8V1056.9z"/>
				</g>
			</g>
			<g class="st3">
				<g>
					<path class="st2" d="M-306.9,1179.7l-70.9-40.9v-81.9l70.9-40.9l70.9,40.9v81.9L-306.9,1179.7z M-372.3,1135.6l65.4,37.8
						l65.4-37.8V1060l-65.4-37.8l-65.4,37.8V1135.6z"/>
				</g>
			</g>
			<g class="st3">
				<g>
					<path class="st2" d="M-102.4,1219.1l-1.4-0.8l-137.7-79.5V978.2l139.1-80.3l1.4,0.8l137.7,79.5v160.6L-102.4,1219.1z
						 M-236,1135.6l133.6,77.1l133.6-77.1V981.3l-133.6-77.1L-236,981.3V1135.6z"/>
				</g>
			</g>
			<g class="st3">
				<g>
					<path class="st2" d="M-170.5,1494.6l-1.4-0.8l-205.9-118.9v-239.3l207.3-119.7l1.4,0.8l205.9,118.9v239.3L-170.5,1494.6z
						 M-372.3,1371.8l201.8,116.5l201.8-116.5v-233l-201.8-116.5l-201.8,116.5V1371.8z"/>
				</g>
			</g>
			<g>
				<path class="st2" d="M-238.7,982.9l-1.4-0.8l-137.7-79.5V742l139.1-80.3L-99.6,742v160.6L-238.7,982.9z M-372.4,899.5
					l133.6,77.1l133.6-77.1V745.2L-238.7,668l-133.6,77.1v154.4H-372.4z"/>
			</g>
			<g>
				<path class="st2" d="M-238.7,1061.9l-71-41v-82l71-41l71,41v82L-238.7,1061.9z M-304.3,1017.8l65.6,37.9l65.6-37.9V942
					l-65.6-37.9l-65.6,37.9V1017.8z"/>
			</g>
			<g>
				<path class="st2" d="M-238.7,1455.2l-70.9-40.9v-81.9l70.9-40.9l70.9,40.9v81.9L-238.7,1455.2z M-304.2,1411.1l65.4,37.8
					l65.4-37.8v-75.6l-65.4-37.8l-65.4,37.8V1411.1z"/>
			</g>
			<g class="st3">
				<g>
					<path class="st2" d="M-102.3,1533.9l-1.4-0.8l-137.7-79.5V1293l139.1-80.3l1.4,0.8L36.8,1293v160.6L-102.3,1533.9z
						 M-235.9,1450.4l133.6,77.1l133.6-77.1v-154.3l-133.6-77.1l-133.6,77.1V1450.4z"/>
				</g>
			</g>
			<g class="st3">
				<g>
					<path class="st2" d="M-238.7,1376.4l-1.4-0.8l-137.7-79.5v-160.6l139.1-80.3l1.4,0.8l137.7,79.5v160.6L-238.7,1376.4z
						 M-372.3,1293l133.6,77.1l133.6-77.1v-154.3l-133.6-77.1l-133.6,77.1V1293z"/>
				</g>
			</g>
			<path class="st2" d="M375.5,1416.8l-71-41v-82l71-41l71,41v82L375.5,1416.8z M309.9,1372.6l65.6,37.9l65.6-37.9v-75.7l-65.6-37.9
				l-65.6,37.9V1372.6z"/>
			<g>
				<g>
					<path class="st2" d="M102.7,1573l-1.4-0.8l-205.9-118.9V1214l207.3-119.7l1.4,0.8L309.9,1214v239.3l-1.4,0.8L102.7,1573z
						 M-99.1,1450.2l201.8,116.5l201.8-116.5v-233l-201.8-116.5l-201.8,116.5C-99.1,1217.2-99.1,1450.2-99.1,1450.2z"/>
				</g>
			</g>
			<g>
				<path class="st2" d="M989.3,668.1l-139.1-80.3V427.2l139.1-80.3l139.1,80.3v160.6L989.3,668.1z M855.7,584.6l133.6,77.1
					l133.6-77.1V430.4l-133.6-77.1l-133.6,77.1L855.7,584.6L855.7,584.6z"/>
			</g>
			<g>
				<path class="st2" d="M1125.7,353.4l-70.9-40.9v-81.9l70.9-40.9l70.9,40.9v81.9L1125.7,353.4z M1060.2,309.3l65.4,37.8l65.4-37.8
					v-75.6l-65.4-37.8l-65.4,37.8V309.3z"/>
			</g>
			<g>
				<path class="st2" d="M1125.7,274.7l-70.9-40.9v-81.9l70.9-40.9l70.9,40.9v81.9L1125.7,274.7z M1060.2,230.6l65.4,37.8l65.4-37.8
					V155l-65.4-37.8l-65.4,37.8V230.6z"/>
			</g>
			<g>
				<path class="st2" d="M989.3,510.7l-139.1-80.3V269.8l139.1-80.3l139.1,80.3v160.6L989.3,510.7z M855.7,427.2l133.6,77.1
					l133.6-77.1V272.9l-133.6-77.1l-133.6,77.1L855.7,427.2L855.7,427.2z"/>
			</g>
			<g>
				<path class="st2" d="M1125.5,195.9L918.2,76.3V-163l1.4-0.8l205.9-118.9L1332.8-163V76.3L1125.5,195.9z M923.7,73.1l201.8,116.5
					l201.8-116.5v-233l-201.8-116.5L923.7-159.9V73.1z"/>
			</g>
			<g>
				<path class="st2" d="M1193.8,628.9l-139.1-80.3V388l139.1-80.3l139.1,80.3v160.6L1193.8,628.9z M1060.2,545.4l133.6,77.1
					l133.6-77.1V391.2L1193.8,314l-133.6,77.1L1060.2,545.4L1060.2,545.4z"/>
			</g>
			<g>
				<path class="st2" d="M1125.7,274.8l-70.9-40.9V152l70.9-40.9l70.9,40.9v81.9L1125.7,274.8z M1060.2,230.7l65.4,37.8l65.4-37.8
					v-75.6l-65.4-37.8l-65.4,37.8V230.7z"/>
			</g>
			<g>
				<path class="st2" d="M1125.7,353.5l-70.9-40.9v-81.9l70.9-40.9l70.9,40.9v81.9L1125.7,353.5z M1060.2,309.4l65.4,37.8l65.4-37.8
					v-75.6l-65.4-37.8l-65.4,37.8V309.4z"/>
			</g>
			<g>
				<path class="st2" d="M989.3,275l-139.1-80.3V34.1l139.1-80.3l139.1,80.3v160.6L989.3,275z M855.7,191.5l133.6,77.1l133.6-77.1
					V37.2L989.3-39.9L855.7,37.2V191.5z"/>
			</g>
			<g>
				<path class="st2" d="M1193.8,156.7l-139.1-80.3V-84.2l139.1-80.3l139.1,80.3V76.4L1193.8,156.7z M1060.2,73.3l133.6,77.1
					l133.6-77.1V-81l-133.6-77.1L1060.2-81V73.3z"/>
			</g>
			<g>
				<path class="st2" d="M989.5,589.9l-71-41v-82l71-41l71,41v82L989.5,589.9z M923.9,545.8l65.6,37.9l65.6-37.9v-75.7l-65.6-37.9
					l-65.6,37.9V545.8z"/>
			</g>
			<g>
				<path class="st2" d="M989.5,353.2l-71-41v-82l71-41l71,41v82L989.5,353.2z M923.9,309l65.6,37.9L1055,309v-75.7l-65.6-37.9
					l-65.6,37.9L923.9,309L923.9,309z"/>
			</g>
			<g>
				<path class="st2" d="M1193.8,550.3L1054.7,470V309.4l139.1-80.3l139.1,80.3V470L1193.8,550.3z M1060.2,466.8l133.6,77.1
					l133.6-77.1V312.5l-133.6-77.1l-133.6,77.1V466.8z"/>
			</g>
			<g>
				<path class="st2" d="M1125.5,747.1L918.2,627.5V388.2l207.3-119.7l207.3,119.7v239.3l-1.4,0.8L1125.5,747.1z M923.7,624.3
					l201.8,116.5l201.8-116.5v-233l-201.8-116.5L923.7,391.3V624.3z"/>
			</g>
			<g>
				<path class="st2" d="M852.8,432.8l-71-41v-82l71-41l71.1,41v82L852.8,432.8z M787.3,388.6l65.6,37.9l65.6-37.9v-75.7L852.8,275
					l-65.6,37.9L787.3,388.6L787.3,388.6z"/>
			</g>
			<g>
				<path class="st2" d="M852.9,274.2L782,233.3v-81.9l70.9-40.9l70.9,40.9v81.9L852.9,274.2z M787.5,230.1l65.4,37.8l65.4-37.8
					v-75.6l-65.4-37.8l-65.4,37.8V230.1z"/>
			</g>
			<g>
				<path class="st2" d="M853,590.2l-71-41v-82l71-41l71,41v82L853,590.2z M787.4,546l65.6,37.9l65.6-37.9v-75.7L853,432.4
					l-65.6,37.9V546z"/>
			</g>
			<g>
				<path class="st2" d="M921.1,156.8l-71-41v-82l71-41l71,41v82L921.1,156.8z M855.6,112.6l65.6,37.9l65.6-37.9V36.9L921.1-1
					l-65.6,37.9L855.6,112.6L855.6,112.6z"/>
			</g>
			<g>
				<path class="st2" d="M510.7,708l-71-41v-82l71-41l71,41v82L510.7,708z M445.1,663.8l65.6,37.9l65.6-37.9v-75.7l-65.6-37.9
					l-65.6,37.9L445.1,663.8L445.1,663.8z"/>
			</g>
		</g>
	</g>
</g>
<g>
	<g>
		<defs>
			<rect id="SVGID_4_" x="94.1" y="196.7" width="293.2" height="155.3"/>
		</defs>
		<clipPath id="SVGID_5_">
			<use xlink:href="#SVGID_4_"  style="overflow:visible;"/>
		</clipPath>
		<path class="st4" d="M225.1,293.5H221c-0.4,0-0.6-0.1-0.7-0.4c-0.1-0.2-0.1-0.5,0-0.8l13.7-25.1l-13-22.8
			c-0.2-0.3-0.2-0.6-0.1-0.8c0.2-0.2,0.4-0.4,0.8-0.4h3.9c0.8,0,1.4,0.4,1.7,1.1l10.5,19.2h0.3l10.3-19.2c0.4-0.7,1-1.1,1.7-1.1h4.1
			c0.4,0,0.6,0.1,0.7,0.4c0.1,0.2,0.1,0.5,0,0.8l-13,22.7l13.6,25.1c0.2,0.3,0.2,0.6,0.1,0.8c-0.1,0.2-0.4,0.4-0.7,0.4h-4.1
			c-0.7,0-1.2-0.3-1.5-1L238,271.5h-0.3l-11.1,20.9C226.3,293.1,225.8,293.5,225.1,293.5"/>
	</g>
	<g>
		<defs>
			<rect id="SVGID_6_" x="94.1" y="196.7" width="293.2" height="155.3"/>
		</defs>
		<clipPath id="SVGID_7_">
			<use xlink:href="#SVGID_6_"  style="overflow:visible;"/>
		</clipPath>
		<path class="st5" d="M277.1,288.5h4.6c4.4,0,6.6-2.3,6.6-6.8v-16.2c0-4.5-2.2-6.8-6.6-6.8h-4.6c-2.3,0-4.1,0.6-5.4,1.9
			c-1.3,1.2-1.9,3-1.9,5.3v15.5c0,2.3,0.6,4.1,1.9,5.3C272.9,287.8,274.7,288.5,277.1,288.5 M268.7,310.7h-3.5
			c-0.7,0-1.1-0.4-1.1-1.1v-54.9c0-0.7,0.4-1.1,1.1-1.1h3.5c0.7,0,1.1,0.4,1.1,1.1v3h0.3c1.3-2.8,4-4.1,8-4.1h4.7c3.5,0,6.3,1,8.2,3
			c2,2,2.9,4.9,2.9,8.5v16.7c0,3.6-1,6.5-2.9,8.5c-2,2-4.7,3-8.2,3h-4.7c-4,0-6.7-1.4-8-4.1h-0.3v20.3
			C269.8,310.4,269.4,310.7,268.7,310.7"/>
	</g>
	<g>
		<defs>
			<rect id="SVGID_8_" x="94.1" y="196.7" width="293.2" height="155.3"/>
		</defs>
		<clipPath id="SVGID_9_">
			<use xlink:href="#SVGID_8_"  style="overflow:visible;"/>
		</clipPath>
		<path class="st6" d="M304.3,292.4v-37.6c0-0.7,0.3-1.1,1-1.1h3.6c0.7,0,1.1,0.4,1.1,1.1v37.6c0,0.7-0.4,1.1-1.1,1.1h-3.5
			C304.7,293.5,304.3,293.1,304.3,292.4 M304.3,247.1v-7.3c0-0.7,0.3-1.1,1-1.1h3.6c0.7,0,1.1,0.4,1.1,1.1v7.3
			c0,0.7-0.4,1.1-1.1,1.1h-3.6C304.6,248.2,304.3,247.8,304.3,247.1"/>
	</g>
	<g>
		<defs>
			<rect id="SVGID_10_" x="94.1" y="196.7" width="293.2" height="155.3"/>
		</defs>
		<clipPath id="SVGID_11_">
			<use xlink:href="#SVGID_10_"  style="overflow:visible;"/>
		</clipPath>
		<path class="st7" d="M327.3,293.5h-3.5c-0.7,0-1.1-0.4-1.1-1.1v-37.6c0-0.7,0.4-1.1,1.1-1.1h3.5c0.7,0,1.1,0.4,1.1,1.1v3.1h0.3
			c0.5-1.1,1.5-2.1,3-3c1.5-0.8,3.2-1.3,5.2-1.3h3c0.7,0,1,0.4,1,1.1v2.9c0,0.4-0.1,0.6-0.2,0.8c-0.2,0.2-0.4,0.2-0.8,0.2h-4.2
			c-2.3,0-4.1,0.7-5.4,2.1c-1.2,1.4-1.9,3.3-1.9,5.8v25.8C328.4,293.1,328.1,293.5,327.3,293.5"/>
	</g>
	<g>
		<defs>
			<rect id="SVGID_12_" x="94.1" y="196.7" width="293.2" height="155.3"/>
		</defs>
		<clipPath id="SVGID_13_">
			<use xlink:href="#SVGID_12_"  style="overflow:visible;"/>
		</clipPath>
		<path class="st8" d="M349.9,292.4v-37.6c0-0.7,0.3-1.1,1-1.1h3.6c0.7,0,1.1,0.4,1.1,1.1v37.6c0,0.7-0.4,1.1-1.1,1.1H351
			C350.2,293.5,349.9,293.1,349.9,292.4 M349.9,247.1v-7.3c0-0.7,0.3-1.1,1-1.1h3.6c0.7,0,1.1,0.4,1.1,1.1v7.3
			c0,0.7-0.4,1.1-1.1,1.1h-3.6C350.2,248.2,349.9,247.8,349.9,247.1"/>
	</g>
	<g>
		<defs>
			<rect id="SVGID_14_" x="94.1" y="196.7" width="293.2" height="155.3"/>
		</defs>
		<clipPath id="SVGID_15_">
			<use xlink:href="#SVGID_14_"  style="overflow:visible;"/>
		</clipPath>
		<path class="st9" d="M369.8,258.7h-4.3c-0.7,0-1.1-0.3-1.1-1v-2.9c0-0.7,0.4-1.1,1.1-1.1h4.3c0.5,0,0.8-0.2,0.8-0.7v-6.7
			c0-0.7,0.4-1.1,1.1-1.1h3.5c0.7,0,1,0.4,1,1.1v6.7c0,0.5,0.3,0.7,0.9,0.7h8.3c0.8,0,1.2,0.4,1.2,1.1v2.9c0,0.7-0.4,1-1.2,1H377
			c-0.6,0-0.9,0.2-0.9,0.7v22.5c0,4.4,2.3,6.6,6.9,6.6h3c0.8,0,1.2,0.4,1.2,1.1v2.9c0,0.7-0.4,1-1.2,1h-3.7c-3.6,0-6.5-1-8.6-3
			s-3.2-4.8-3.2-8.4v-22.7C370.6,258.9,370.3,258.7,369.8,258.7"/>
	</g>
	<g>
		<defs>
			<rect id="SVGID_16_" x="94.1" y="196.7" width="293.2" height="155.3"/>
		</defs>
		<clipPath id="SVGID_17_">
			<use xlink:href="#SVGID_16_"  style="overflow:visible;"/>
		</clipPath>
		<path class="st10" d="M114.8,196.7h-11.7c-2.9,0-4.9,0.9-6,2.8c-1,1.8-0.8,4,0.6,6.4c1,1.6,34.3,56.8,34.3,56.8
			c0.7,1.1,1.9,1.8,3.2,1.8h1c1.3,0,2.6-0.7,3.2-1.8l6-10c0.6-1.1,0.7-2.4,0.2-3.5l-22.2-46.9C122.2,198.7,119,196.7,114.8,196.7"/>
	</g>
	<g>
		<defs>
			<rect id="SVGID_18_" x="94.1" y="196.7" width="293.2" height="155.3"/>
		</defs>
		<clipPath id="SVGID_19_">
			<use xlink:href="#SVGID_18_"  style="overflow:visible;"/>
		</clipPath>
		<path class="st11" d="M136.4,280.5h-1c-1.3,0-2.6,0.7-3.2,1.9l-37.6,63.9c-1,1.7-0.5,4,1.2,5.1c0.6,0.4,1.3,0.6,2,0.6
			c1.2,0,2.3-0.5,3.1-1.6l41.8-58.4c0.9-1.2,0.9-2.8,0.2-4.1l-3.2-5.5C139,281.3,137.8,280.5,136.4,280.5"/>
	</g>
	<g>
		<defs>
			<rect id="SVGID_20_" x="94.1" y="196.7" width="293.2" height="155.3"/>
		</defs>
		<clipPath id="SVGID_21_">
			<use xlink:href="#SVGID_20_"  style="overflow:visible;"/>
		</clipPath>
		<path class="st12" d="M208.6,196.7h-12.3c-2.3,0-5.5,1-8.1,5.6l-42.7,67.1c-0.8,1.2-0.8,2.7-0.1,4l46.2,76.9
			c0.7,1.2,1.9,1.8,3.2,1.8c0.6,0,1.2-0.1,1.8-0.4c1.8-0.9,2.5-3.1,1.6-4.9l-35-75.1l50.2-65.4c0-0.1,0.1-0.1,0.1-0.2
			c1.9-2.8,1.3-5.1,0.7-6.2C213.7,198.7,212.2,196.7,208.6,196.7"/>
	</g>
</g>
</svg>
