<?xml version="1.0" encoding="utf-8"?>
<!-- Generator: Adobe Illustrator 21.0.2, SVG Export Plug-In . SVG Version: 6.00 Build 0)  -->
<svg version="1.1" id="Слой_1" xmlns="http://www.w3.org/2000/svg" xmlns:xlink="http://www.w3.org/1999/xlink" x="0px" y="0px"
	 viewBox="0 0 1566 833" style="enable-background:new 0 0 1566 833;" xml:space="preserve">
<style type="text/css">
	.st0{display:none;}
	.st1{fill:#FFFFFF;}
	.st2{fill:url(#SVGID_1_);}
	.st3{fill:url(#SVGID_2_);}
	.st4{opacity:0.9;fill:url(#SVGID_3_);}
	.st5{fill:url(#SVGID_4_);}
	.st6{fill:url(#SVGID_5_);}
	.st7{fill:url(#SVGID_6_);}
	.st8{fill:url(#SVGID_7_);}
	.st9{fill:url(#SVGID_8_);}
	.st10{fill:url(#SVGID_9_);}
	.st11{fill:url(#SVGID_10_);}
	.st12{fill:url(#SVGID_11_);}
	.st13{fill:url(#SVGID_12_);}
	.st14{fill:url(#SVGID_13_);}
	.st15{fill:url(#SVGID_14_);}
	.st16{fill:url(#SVGID_15_);}
	.st17{fill:url(#SVGID_16_);}
	.st18{fill:url(#SVGID_17_);}
	.st19{fill:url(#SVGID_18_);}
	.st20{fill:url(#SVGID_19_);}
	.st21{fill:url(#SVGID_20_);}
	.st22{fill:url(#SVGID_21_);}
	.st23{fill:url(#SVGID_22_);}
	.st24{fill:url(#SVGID_23_);}
	.st25{fill:url(#SVGID_24_);}
	.st26{fill:url(#SVGID_25_);}
	.st27{fill:url(#SVGID_26_);}
	.st28{fill:url(#SVGID_27_);}
	.st29{fill:url(#SVGID_28_);}
	.st30{fill:url(#SVGID_29_);}
	.st31{fill:url(#SVGID_30_);}
	.st32{fill:url(#SVGID_31_);}
	.st33{fill:url(#SVGID_32_);}
</style>
<rect x="-172" y="3874" class="st0" width="1920" height="7750"/>
<text transform="matrix(1 0 0 1 67.6758 6627.0449)" class="st0"><tspan x="0" y="0" style="display:inline;fill:#FFFFFF; font-family:'HeronSans-Bold'; font-size:128px;">1500</tspan><tspan x="-84.6" y="86" style="display:inline;fill:#FFFFFF; font-family:'HeronSans-Light'; font-size:52px;">virtual machines</tspan><tspan x="26.2" y="138" style="display:inline;fill:#FFFFFF; font-family:'HeronSans-Light'; font-size:52px;">running</tspan></text>
<text transform="matrix(1 0 0 1 748.1689 6627.0449)" class="st0"><tspan x="0" y="0" style="display:inline;fill:#FFFFFF; font-family:'HeronSans-Bold'; font-size:128px;">8</tspan><tspan x="-165" y="86" style="display:inline;fill:#FFFFFF; font-family:'HeronSans-Light'; font-size:52px;">different Azure</tspan><tspan x="-132.2" y="138" style="display:inline;fill:#FFFFFF; font-family:'HeronSans-Light'; font-size:52px;">data centers</tspan></text>
<text transform="matrix(1 0 0 1 1233.6758 6627.0449)" class="st0"><tspan x="0" y="0" style="display:inline;fill:#FFFFFF; font-family:'HeronSans-Bold'; font-size:128px;">1500</tspan><tspan x="4" y="86" style="display:inline;fill:#FFFFFF; font-family:'HeronSans-Light'; font-size:52px;">attendees</tspan></text>
<text transform="matrix(1 0 0 1 424.3379 7119.0449)" class="st0"><tspan x="0" y="0" style="display:inline;fill:#FFFFFF; font-family:'HeronSans-Bold'; font-size:128px;">19</tspan><tspan x="-60" y="86" style="display:inline;fill:#FFFFFF; font-family:'HeronSans-Light'; font-size:52px;">countries</tspan></text>
<text transform="matrix(1 0 0 1 1038.1689 7119.0449)" class="st0"><tspan x="0" y="0" style="display:inline;fill:#FFFFFF; font-family:'HeronSans-Bold'; font-size:128px;">8</tspan><tspan x="-72.8" y="86" style="display:inline;fill:#FFFFFF; font-family:'HeronSans-Light'; font-size:52px;">years of</tspan><tspan x="-98.9" y="138" style="display:inline;fill:#FFFFFF; font-family:'HeronSans-Light'; font-size:52px;">CPU power</tspan></text>
<rect x="-320" y="2881" class="st0" width="1920" height="7750"/>
<rect x="-178" y="3038" class="st0" width="1920" height="7750"/>
<text transform="matrix(1 0 0 1 540.3721 10438)" class="st0"><tspan x="0" y="0" style="display:inline; font-family:'HeronSans-Regular'; font-size:52px;">request form link </tspan><tspan x="463.5" y="-4" style="display:inline; font-family:'HeronSans-Regular'; font-size:52px;">»</tspan></text>
<rect x="-177" y="-274" class="st0" width="1920" height="7750"/>
<g>
	<g>
		<path class="st1" d="M0.4,454.9h86.8c45.4,0,76.2,13.1,76.2,53.8v8.1c0,25.2-12.8,40.8-34.8,44.8c31.1,4.7,40.4,20.8,40.4,47.6
			v19.9c0,38.3-22.7,59.1-75.6,59.1h-93V454.9z M88.4,547.1c14.9,0,21.2-4.4,21.2-19.3v-9.3c0-15.2-6.5-19.6-21.2-19.6H55.1v48.2
			H88.4z M92.2,645.7c16.8,0,23-5.9,23-22.1v-15.2c0-16.2-6.5-21.8-23-21.8h-37v59.1H92.2z"/>
		<path class="st1" d="M186.2,611.5v-79.7c0-54.8,36.1-79.7,89.9-79.7c53.8,0,89.6,24.9,89.6,79.7v79.7c0,54.5-35.8,79.7-89.6,79.7
			C222,691.1,186.2,665.9,186.2,611.5z M310.1,606.2v-67.5c0-25.8-8.1-38.3-33.9-38.3c-26.1,0-33.9,12.4-33.9,38.3v67.5
			c0,25.5,7.8,38.3,33.9,38.3C302,644.4,310.1,631.7,310.1,606.2z"/>
		<path class="st1" d="M382.6,611.5v-79.7c0-54.8,36.1-79.7,89.9-79.7c53.8,0,89.6,24.9,89.6,79.7v79.7c0,54.5-35.8,79.7-89.6,79.7
			C418.4,691.1,382.6,665.9,382.6,611.5z M506.5,606.2v-67.5c0-25.8-8.1-38.3-33.9-38.3c-26.1,0-33.9,12.4-33.9,38.3v67.5
			c0,25.5,7.8,38.3,33.9,38.3C498.4,644.4,506.5,631.7,506.5,606.2z"/>
		<path class="st1" d="M633.1,503.5h-58.2v-48.5h172.4v48.5h-58.2v184.8h-56V503.5z"/>
		<path class="st1" d="M760,611.5v-79.7c0-54.8,37.3-79.7,88.1-79.7c56.6,0,80.9,17.1,86.2,75l-54.5,6.8
			c-1.9-23.6-7.5-33.6-31.7-33.6c-24.6,0-32.1,15.9-32.1,38.3v67.5c0,22.1,5.3,38.3,32.1,38.3c24.6,0,30.5-8.7,32.7-35.5l53.5,6.8
			c-6.2,55.1-29.9,75.3-86.2,75.3C796.8,691.1,760,665.9,760,611.5z"/>
		<path class="st1" d="M1002.8,454.9h62.2l65,233.4h-56l-11.5-45.1h-58.8l-11.2,45.1h-54.8L1002.8,454.9z M1053.6,603.4l-20.2-80
			h-0.6l-20.2,80H1053.6z"/>
		<path class="st1" d="M1147.8,454.9h69.7l41.4,157.1h0.6l40.8-157.1h69.7v233.4h-56V564.8h-0.6l-30.2,123.5h-48.8l-31.4-123.5h-0.6
			v123.5h-54.5V454.9z"/>
		<path class="st1" d="M1397,454.9h86.2c58.8,0,82.5,20.8,82.5,65v20.8c0,44.2-23.6,65.7-82.5,65.7H1453v81.8h-56V454.9z M1485,562
			c21.2,0,26.8-6.5,26.8-24.3v-11.5c0-17.7-5.6-24.3-26.8-24.3h-32V562H1485z"/>
	</g>
	<g>
		
			<linearGradient id="SVGID_1_" gradientUnits="userSpaceOnUse" x1="894.2936" y1="15.4138" x2="1096.2516" y2="376.7401" gradientTransform="matrix(0.9997 -2.555150e-02 2.555150e-02 0.9997 -193.6178 43.5652)">
			<stop  offset="0" style="stop-color:#FFCD44"/>
			<stop  offset="3.262098e-03" style="stop-color:#FFCC43"/>
			<stop  offset="9.008177e-02" style="stop-color:#F9B12B"/>
			<stop  offset="0.1847" style="stop-color:#F59D18"/>
			<stop  offset="0.2913" style="stop-color:#F18E0A"/>
			<stop  offset="0.4187" style="stop-color:#F08602"/>
			<stop  offset="0.6213" style="stop-color:#EF8300"/>
			<stop  offset="1" style="stop-color:#EC6D05"/>
		</linearGradient>
		<path class="st2" d="M671.7,285.7c3.6,6.9,3.3,14.9-1.2,20.9l-24.5,32.1c-1.3,1.8-1.6,3.8-1.1,5.7c44-18.2,93.1-45,142.1-77.7
			c-22.3-6.2-39.7-25.1-43-49.6c-4.4-32.9,18.4-62.7,51.2-67.1c32.9-4.4,62.7,18.4,67.1,51.2c0.4,3.3,0.5,6.5,0.5,9.7
			c32.1-26.2,57.7-50.8,77.3-72.5c-2.1-1.5-3.9-3.5-5.4-5.8c-3.6-6.9-3.3-14.9,1.2-20.9l24.5-32.1c2.3-3,1.7-6.9-1.2-9.2L896,22.1
			c-3-2.3-6.9-1.7-9.2,1.2l-24.5,32.1c-4.6,6-11.5,8.9-20.5,6.8c-7-2.4-12.5-8.4-13.6-16.2l-5.4-40.1c-0.5-3.9-3.5-6.2-7.5-5.7
			l-78.9,10.6c-3.9,0.5-6.2,3.5-5.7,7.5l5.4,40.1c1.1,7.9-2.7,15.1-9.5,19.3c-6.9,3.6-14.9,3.3-20.9-1.2l-32.1-24.5
			c-3-2.3-6.9-1.7-9.2,1.2l-48.4,63.4c-2.3,3-1.7,6.9,1.2,9.2l32.1,24.5c6,4.6,9,12.2,6.8,20.5c-2.4,7-8.4,12.5-16.2,13.6l-40.1,5.4
			c-3.9,0.5-6.2,3.5-5.7,7.5l10.6,78.9c0.5,3.9,3.5,6.2,7.5,5.7l40.1-5.4C660.3,275.2,667.5,278.9,671.7,285.7z"/>
		
			<linearGradient id="SVGID_2_" gradientUnits="userSpaceOnUse" x1="892.655" y1="-3.5898" x2="1103.171" y2="373.0476" gradientTransform="matrix(0.9997 -2.555150e-02 2.555150e-02 0.9997 -193.6178 43.5652)">
			<stop  offset="0" style="stop-color:#FFCD44"/>
			<stop  offset="3.262098e-03" style="stop-color:#FFCC43"/>
			<stop  offset="9.008177e-02" style="stop-color:#F9B12B"/>
			<stop  offset="0.1847" style="stop-color:#F59D18"/>
			<stop  offset="0.2913" style="stop-color:#F18E0A"/>
			<stop  offset="0.4187" style="stop-color:#F08602"/>
			<stop  offset="0.6213" style="stop-color:#EF8300"/>
			<stop  offset="1" style="stop-color:#EC6D05"/>
		</linearGradient>
		<path class="st3" d="M998.7,132c-40,53.2-76.2,88.3-153,147c-59,45.1-123.2,75.9-166.9,95.9l31.9,25.2c3,2.3,6.9,1.7,9.2-1.2
			l24.5-32.1c4.6-6,11.5-8.9,20.5-6.8c7.6,1.7,13.2,8.3,14.1,15.5l5.5,40.8c0.5,3.9,3.5,6.2,7.5,5.7l78.9-10.6
			c3.9-0.5,6.2-3.5,5.7-7.5l-5.4-40.1c-1.1-7.9,2.7-15.1,9.5-19.3c6.9-3.6,14.9-3.3,20.9,1.2l32.1,24.5c1.5,1.1,2.9,1.6,4.9,1.4
			c2-0.3,3.2-1.1,4.3-2.6l48.4-63.4c2.3-3,1.7-6.9-1.2-9.2L957.9,272c-6-4.6-9-12.2-6.8-20.5c1.7-7.6,8.3-13.2,15.5-14.1l40.1-5.4
			c3.9-0.5,6.2-3.5,5.7-7.5C1012.4,224.5,999.3,132.9,998.7,132z"/>
	</g>
	
		<radialGradient id="SVGID_3_" cx="683.2663" cy="315.0685" r="413.675" gradientTransform="matrix(0.9999 -1.215320e-02 1.215320e-02 0.9999 -92.9617 34.1905)" gradientUnits="userSpaceOnUse">
		<stop  offset="0" style="stop-color:#FFFFFF"/>
		<stop  offset="6.982293e-02" style="stop-color:#E0E3E4"/>
		<stop  offset="0.1676" style="stop-color:#BAC1C4"/>
		<stop  offset="0.2584" style="stop-color:#9FA8AD"/>
		<stop  offset="0.3387" style="stop-color:#8F999F"/>
		<stop  offset="0.4" style="stop-color:#89949A"/>
		<stop  offset="0.4406" style="stop-color:#9BA4A9"/>
		<stop  offset="0.5218" style="stop-color:#C9CED0"/>
		<stop  offset="0.607" style="stop-color:#FFFFFF"/>
		<stop  offset="0.8111" style="stop-color:#FFFFFF"/>
		<stop  offset="0.8771" style="stop-color:#B8BCBE"/>
		<stop  offset="0.9344" style="stop-color:#81888C"/>
		<stop  offset="0.9769" style="stop-color:#5F686D"/>
		<stop  offset="1" style="stop-color:#525C61"/>
	</radialGradient>
	<path class="st4" d="M1036.9,30c-17.8-24.2-57.2-27-114.3-8.4l33.2,25.3c11.9-2.7,22-4.1,30.1-4.2c12.7-0.2,20.8,2.6,24.1,7
		c6.9,9.4-0.1,37.6-31.5,79.3C945.3,173.2,893.6,222,833,266.6c-60.6,44.6-122.7,79.3-174.7,97.7c-49.2,17.5-78.2,15.8-85.1,6.4
		c-6.7-9.1-0.3-35.5,28.1-74.6c-6.7-3.2-11.6-9.6-12.7-17.9l-2.3-17.4c-2.8,3.5-5.6,7-8.2,10.5c-39.5,52.5-50.4,93.7-31.7,119.2
		c10.3,14,27.8,20.8,51.7,20.6c19.7-0.2,43.6-5.3,71.6-15.2c55-19.5,120.1-55.8,183.3-102.3c63.2-46.4,117.3-97.7,152.4-144.3
		C1044.6,96.6,1055.6,55.4,1036.9,30z"/>
	<g>
		<linearGradient id="SVGID_4_" gradientUnits="userSpaceOnUse" x1="169.8508" y1="345.0778" x2="1383.7488" y2="345.0778">
			<stop  offset="0" style="stop-color:#FFCD44"/>
			<stop  offset="3.262098e-03" style="stop-color:#FFCC43"/>
			<stop  offset="9.008177e-02" style="stop-color:#F9B12B"/>
			<stop  offset="0.1847" style="stop-color:#F59D18"/>
			<stop  offset="0.2913" style="stop-color:#F18E0A"/>
			<stop  offset="0.4187" style="stop-color:#F08602"/>
			<stop  offset="0.6213" style="stop-color:#EF8300"/>
			<stop  offset="1" style="stop-color:#EC6D05"/>
		</linearGradient>
		<path class="st5" d="M170.3,357.2v-24.5c0-16.8,11.5-24.2,27.1-24.2c17.1,0,24.8,5.2,26.4,21.4l-16.7,2.3
			c-0.5-6.5-2.2-9.4-9.7-9.4c-7.6,0-9.8,4.8-9.8,11.7v21c0,6.8,2.2,12,9.8,12c9.8,0,11.3-3.8,11.3-11.9v-1.3h-11.5V341h27v15
			c0,19.2-11.3,25.6-26.9,25.6C181.6,381.6,170.3,373.9,170.3,357.2z"/>
		<linearGradient id="SVGID_5_" gradientUnits="userSpaceOnUse" x1="169.8508" y1="344.9349" x2="1383.7488" y2="344.9349">
			<stop  offset="0" style="stop-color:#FFCD44"/>
			<stop  offset="3.262098e-03" style="stop-color:#FFCC43"/>
			<stop  offset="9.008177e-02" style="stop-color:#F9B12B"/>
			<stop  offset="0.1847" style="stop-color:#F59D18"/>
			<stop  offset="0.2913" style="stop-color:#F18E0A"/>
			<stop  offset="0.4187" style="stop-color:#F08602"/>
			<stop  offset="0.6213" style="stop-color:#EF8300"/>
			<stop  offset="1" style="stop-color:#EC6D05"/>
		</linearGradient>
		<path class="st6" d="M231.5,309.1h17.2v57.3h25.9l2.8,14.3h-45.9V309.1z"/>
		<linearGradient id="SVGID_6_" gradientUnits="userSpaceOnUse" x1="169.8508" y1="344.9339" x2="1383.7488" y2="344.9339">
			<stop  offset="0" style="stop-color:#FFCD44"/>
			<stop  offset="3.262098e-03" style="stop-color:#FFCC43"/>
			<stop  offset="9.008177e-02" style="stop-color:#F9B12B"/>
			<stop  offset="0.1847" style="stop-color:#F59D18"/>
			<stop  offset="0.2913" style="stop-color:#F18E0A"/>
			<stop  offset="0.4187" style="stop-color:#F08602"/>
			<stop  offset="0.6213" style="stop-color:#EF8300"/>
			<stop  offset="1" style="stop-color:#EC6D05"/>
		</linearGradient>
		<path class="st7" d="M280.8,357.2v-24.5c0-16.8,11.1-24.5,27.6-24.5c16.5,0,27.5,7.6,27.5,24.5v24.5c0,16.7-11,24.5-27.5,24.5
			C291.8,381.6,280.8,373.9,280.8,357.2z M318.9,355.5v-20.7c0-7.9-2.5-11.8-10.4-11.8c-8,0-10.4,3.8-10.4,11.8v20.7
			c0,7.8,2.4,11.8,10.4,11.8C316.4,367.3,318.9,363.4,318.9,355.5z"/>
		<linearGradient id="SVGID_7_" gradientUnits="userSpaceOnUse" x1="169.8508" y1="344.9349" x2="1383.7488" y2="344.9349">
			<stop  offset="0" style="stop-color:#FFCD44"/>
			<stop  offset="3.262098e-03" style="stop-color:#FFCC43"/>
			<stop  offset="9.008177e-02" style="stop-color:#F9B12B"/>
			<stop  offset="0.1847" style="stop-color:#F59D18"/>
			<stop  offset="0.2913" style="stop-color:#F18E0A"/>
			<stop  offset="0.4187" style="stop-color:#F08602"/>
			<stop  offset="0.6213" style="stop-color:#EF8300"/>
			<stop  offset="1" style="stop-color:#EC6D05"/>
		</linearGradient>
		<path class="st8" d="M343.5,309.1h26.7c14,0,23.4,4,23.4,16.5v2.5c0,7.7-3.9,12.5-10.7,13.8c9.6,1.4,12.4,6.4,12.4,14.6v6.1
			c0,11.8-7,18.2-23.2,18.2h-28.6V309.1z M370.6,337.4c4.6,0,6.5-1.3,6.5-5.9v-2.9c0-4.7-2-6-6.5-6h-10.2v14.8H370.6z M371.7,367.7
			c5.2,0,7.1-1.8,7.1-6.8v-4.7c0-5-2-6.7-7.1-6.7h-11.4v18.2H371.7z"/>
		<linearGradient id="SVGID_8_" gradientUnits="userSpaceOnUse" x1="169.8508" y1="344.9349" x2="1383.7488" y2="344.9349">
			<stop  offset="0" style="stop-color:#FFCD44"/>
			<stop  offset="3.262098e-03" style="stop-color:#FFCC43"/>
			<stop  offset="9.008177e-02" style="stop-color:#F9B12B"/>
			<stop  offset="0.1847" style="stop-color:#F59D18"/>
			<stop  offset="0.2913" style="stop-color:#F18E0A"/>
			<stop  offset="0.4187" style="stop-color:#F08602"/>
			<stop  offset="0.6213" style="stop-color:#EF8300"/>
			<stop  offset="1" style="stop-color:#EC6D05"/>
		</linearGradient>
		<path class="st9" d="M418.8,309.1h19.1l20,71.7h-17.2l-3.5-13.9H419l-3.4,13.9h-16.8L418.8,309.1z M434.3,354.7l-6.2-24.6h-0.2
			l-6.2,24.6H434.3z"/>
		<linearGradient id="SVGID_9_" gradientUnits="userSpaceOnUse" x1="169.8508" y1="344.9349" x2="1383.7488" y2="344.9349">
			<stop  offset="0" style="stop-color:#FFCD44"/>
			<stop  offset="3.262098e-03" style="stop-color:#FFCC43"/>
			<stop  offset="9.008177e-02" style="stop-color:#F9B12B"/>
			<stop  offset="0.1847" style="stop-color:#F59D18"/>
			<stop  offset="0.2913" style="stop-color:#F18E0A"/>
			<stop  offset="0.4187" style="stop-color:#F08602"/>
			<stop  offset="0.6213" style="stop-color:#EF8300"/>
			<stop  offset="1" style="stop-color:#EC6D05"/>
		</linearGradient>
		<path class="st10" d="M464.1,309.1h17.2v57.3h25.9l2.8,14.3h-45.9V309.1z"/>
	</g>
	<g>
		<linearGradient id="SVGID_10_" gradientUnits="userSpaceOnUse" x1="169.8508" y1="344.9349" x2="1383.7488" y2="344.9349">
			<stop  offset="0" style="stop-color:#FFCD44"/>
			<stop  offset="3.262098e-03" style="stop-color:#FFCC43"/>
			<stop  offset="9.008177e-02" style="stop-color:#F9B12B"/>
			<stop  offset="0.1847" style="stop-color:#F59D18"/>
			<stop  offset="0.2913" style="stop-color:#F18E0A"/>
			<stop  offset="0.4187" style="stop-color:#F08602"/>
			<stop  offset="0.6213" style="stop-color:#EF8300"/>
			<stop  offset="1" style="stop-color:#EC6D05"/>
		</linearGradient>
		<path class="st11" d="M1034.2,309.1h25.8c16.5,0,27,7.1,27,23.9v23.9c0,16.7-10.4,23.9-27,23.9h-25.8V309.1z M1060,366.7
			c8,0,9.8-3.3,9.8-11.2v-20.7c0-7.9-1.8-11.1-9.8-11.1h-8.6v43H1060z"/>
		<linearGradient id="SVGID_11_" gradientUnits="userSpaceOnUse" x1="169.8508" y1="344.9349" x2="1383.7488" y2="344.9349">
			<stop  offset="0" style="stop-color:#FFCD44"/>
			<stop  offset="3.262098e-03" style="stop-color:#FFCC43"/>
			<stop  offset="9.008177e-02" style="stop-color:#F9B12B"/>
			<stop  offset="0.1847" style="stop-color:#F59D18"/>
			<stop  offset="0.2913" style="stop-color:#F18E0A"/>
			<stop  offset="0.4187" style="stop-color:#F08602"/>
			<stop  offset="0.6213" style="stop-color:#EF8300"/>
			<stop  offset="1" style="stop-color:#EC6D05"/>
		</linearGradient>
		<path class="st12" d="M1094.6,309.1h45.9l-2.8,14.9h-25.9v12.6h18.6v15.1h-18.6v14.7h25.9l2.8,14.3h-45.9V309.1z"/>
		<linearGradient id="SVGID_12_" gradientUnits="userSpaceOnUse" x1="169.8508" y1="344.9349" x2="1383.7488" y2="344.9349">
			<stop  offset="0" style="stop-color:#FFCD44"/>
			<stop  offset="3.262098e-03" style="stop-color:#FFCC43"/>
			<stop  offset="9.008177e-02" style="stop-color:#F9B12B"/>
			<stop  offset="0.1847" style="stop-color:#F59D18"/>
			<stop  offset="0.2913" style="stop-color:#F18E0A"/>
			<stop  offset="0.4187" style="stop-color:#F08602"/>
			<stop  offset="0.6213" style="stop-color:#EF8300"/>
			<stop  offset="1" style="stop-color:#EC6D05"/>
		</linearGradient>
		<path class="st13" d="M1145.6,309.1h17.2l12.5,49.2h0.2l12.3-49.2h16.8l-20,71.7h-19.1L1145.6,309.1z"/>
		<linearGradient id="SVGID_13_" gradientUnits="userSpaceOnUse" x1="169.8508" y1="344.9339" x2="1383.7488" y2="344.9339">
			<stop  offset="0" style="stop-color:#FFCD44"/>
			<stop  offset="3.262098e-03" style="stop-color:#FFCC43"/>
			<stop  offset="9.008177e-02" style="stop-color:#F9B12B"/>
			<stop  offset="0.1847" style="stop-color:#F59D18"/>
			<stop  offset="0.2913" style="stop-color:#F18E0A"/>
			<stop  offset="0.4187" style="stop-color:#F08602"/>
			<stop  offset="0.6213" style="stop-color:#EF8300"/>
			<stop  offset="1" style="stop-color:#EC6D05"/>
		</linearGradient>
		<path class="st14" d="M1207.4,357.2v-24.5c0-16.8,11.1-24.5,27.6-24.5c16.5,0,27.5,7.6,27.5,24.5v24.5c0,16.7-11,24.5-27.5,24.5
			C1218.4,381.6,1207.4,373.9,1207.4,357.2z M1245.4,355.5v-20.7c0-7.9-2.5-11.8-10.4-11.8c-8,0-10.4,3.8-10.4,11.8v20.7
			c0,7.8,2.4,11.8,10.4,11.8C1242.9,367.3,1245.4,363.4,1245.4,355.5z"/>
		<linearGradient id="SVGID_14_" gradientUnits="userSpaceOnUse" x1="169.8508" y1="344.9349" x2="1383.7488" y2="344.9349">
			<stop  offset="0" style="stop-color:#FFCD44"/>
			<stop  offset="3.262098e-03" style="stop-color:#FFCC43"/>
			<stop  offset="9.008177e-02" style="stop-color:#F9B12B"/>
			<stop  offset="0.1847" style="stop-color:#F59D18"/>
			<stop  offset="0.2913" style="stop-color:#F18E0A"/>
			<stop  offset="0.4187" style="stop-color:#F08602"/>
			<stop  offset="0.6213" style="stop-color:#EF8300"/>
			<stop  offset="1" style="stop-color:#EC6D05"/>
		</linearGradient>
		<path class="st15" d="M1270.1,309.1h26.5c18.1,0,25.3,6.4,25.3,20v6.4c0,13.6-7.3,20.2-25.3,20.2h-9.3v25.1h-17.2V309.1z
			 M1297.1,342c6.5,0,8.2-2,8.2-7.5V331c0-5.4-1.7-7.5-8.2-7.5h-9.8V342H1297.1z"/>
		<linearGradient id="SVGID_15_" gradientUnits="userSpaceOnUse" x1="169.8508" y1="344.9339" x2="1383.7488" y2="344.9339">
			<stop  offset="0" style="stop-color:#FFCD44"/>
			<stop  offset="3.262098e-03" style="stop-color:#FFCC43"/>
			<stop  offset="9.008177e-02" style="stop-color:#F9B12B"/>
			<stop  offset="0.1847" style="stop-color:#F59D18"/>
			<stop  offset="0.2913" style="stop-color:#F18E0A"/>
			<stop  offset="0.4187" style="stop-color:#F08602"/>
			<stop  offset="0.6213" style="stop-color:#EF8300"/>
			<stop  offset="1" style="stop-color:#EC6D05"/>
		</linearGradient>
		<path class="st16" d="M1326,359.9l16.2-2.3c1.1,8.2,4,10.1,10.8,10.1c8.3,0,10.5-2.5,10.5-8.2c0-5.1-3-6.3-11.1-8.4
			c-13.5-3.3-24.8-6.1-24.8-21.6c0-12.3,6-21.3,25.5-21.3c19.5,0,24.7,8.9,25.7,21.1l-16.5,2.2c-0.6-7.6-3.1-9-9.2-9
			c-6.2,0-9.1,1.3-9.1,6.4c0,5.3,4.5,6.1,12.6,8c13.4,3.3,23.2,6.1,23.2,21.5c0,13.8-5.6,23.1-27.1,23.1
			C1333.4,381.6,1327.4,373.3,1326,359.9z"/>
	</g>
	<g>
		<linearGradient id="SVGID_16_" gradientUnits="userSpaceOnUse" x1="303.4279" y1="795.2967" x2="1243.2263" y2="795.2967">
			<stop  offset="0" style="stop-color:#FFCD44"/>
			<stop  offset="3.262098e-03" style="stop-color:#FFCC43"/>
			<stop  offset="9.008177e-02" style="stop-color:#F9B12B"/>
			<stop  offset="0.1847" style="stop-color:#F59D18"/>
			<stop  offset="0.2913" style="stop-color:#F18E0A"/>
			<stop  offset="0.4187" style="stop-color:#F08602"/>
			<stop  offset="0.6213" style="stop-color:#EF8300"/>
			<stop  offset="1" style="stop-color:#EC6D05"/>
		</linearGradient>
		<path class="st17" d="M318.2,759.2h26.8c14,0,23.6,4,23.6,16.6v2.5c0,7.8-3.9,12.6-10.8,13.9c9.6,1.4,12.5,6.4,12.5,14.7v6.2
			c0,11.8-7,18.3-23.4,18.3h-28.8V759.2z M345.5,787.7c4.6,0,6.5-1.3,6.5-6v-2.9c0-4.7-2-6.1-6.5-6.1h-10.3v14.9H345.5z
			 M346.6,818.2c5.2,0,7.1-1.8,7.1-6.8v-4.7c0-5-2-6.7-7.1-6.7h-11.4v18.3H346.6z"/>
		<linearGradient id="SVGID_17_" gradientUnits="userSpaceOnUse" x1="303.4279" y1="795.2967" x2="1243.2263" y2="795.2967">
			<stop  offset="0" style="stop-color:#FFCD44"/>
			<stop  offset="3.262098e-03" style="stop-color:#FFCC43"/>
			<stop  offset="9.008177e-02" style="stop-color:#F9B12B"/>
			<stop  offset="0.1847" style="stop-color:#F59D18"/>
			<stop  offset="0.2913" style="stop-color:#F18E0A"/>
			<stop  offset="0.4187" style="stop-color:#F08602"/>
			<stop  offset="0.6213" style="stop-color:#EF8300"/>
			<stop  offset="1" style="stop-color:#EC6D05"/>
		</linearGradient>
		<path class="st18" d="M393,802.8l-21.2-43.6h17.9l12.3,27.1h0.2l12.6-27.1h16.7l-21.2,43.6v28.6H393V802.8z"/>
		<linearGradient id="SVGID_18_" gradientUnits="userSpaceOnUse" x1="303.4279" y1="795.2967" x2="1243.2263" y2="795.2967">
			<stop  offset="0" style="stop-color:#FFCD44"/>
			<stop  offset="3.262098e-03" style="stop-color:#FFCC43"/>
			<stop  offset="9.008177e-02" style="stop-color:#F9B12B"/>
			<stop  offset="0.1847" style="stop-color:#F59D18"/>
			<stop  offset="0.2913" style="stop-color:#F18E0A"/>
			<stop  offset="0.4187" style="stop-color:#F08602"/>
			<stop  offset="0.6213" style="stop-color:#EF8300"/>
			<stop  offset="1" style="stop-color:#EC6D05"/>
		</linearGradient>
		<path class="st19" d="M469.6,793.9l-18.8-34.6H469l10.4,19.2l9.9-19.2h17.2l-18.8,34.7l20.3,37.4h-18.2l-12-22.1l-11.3,22.1h-17.2
			L469.6,793.9z"/>
		<linearGradient id="SVGID_19_" gradientUnits="userSpaceOnUse" x1="303.4279" y1="795.2967" x2="1243.2263" y2="795.2967">
			<stop  offset="0" style="stop-color:#FFCD44"/>
			<stop  offset="3.262098e-03" style="stop-color:#FFCC43"/>
			<stop  offset="9.008177e-02" style="stop-color:#F9B12B"/>
			<stop  offset="0.1847" style="stop-color:#F59D18"/>
			<stop  offset="0.2913" style="stop-color:#F18E0A"/>
			<stop  offset="0.4187" style="stop-color:#F08602"/>
			<stop  offset="0.6213" style="stop-color:#EF8300"/>
			<stop  offset="1" style="stop-color:#EC6D05"/>
		</linearGradient>
		<path class="st20" d="M513.9,759.2h26.6c18.2,0,25.5,6.4,25.5,20.1v6.4c0,13.7-7.3,20.3-25.5,20.3h-9.3v25.3h-17.3V759.2z
			 M541.1,792.3c6.5,0,8.3-2,8.3-7.5v-3.6c0-5.5-1.7-7.5-8.3-7.5h-9.9v18.6H541.1z"/>
		<linearGradient id="SVGID_20_" gradientUnits="userSpaceOnUse" x1="303.4279" y1="795.2967" x2="1243.2263" y2="795.2967">
			<stop  offset="0" style="stop-color:#FFCD44"/>
			<stop  offset="3.262098e-03" style="stop-color:#FFCC43"/>
			<stop  offset="9.008177e-02" style="stop-color:#F9B12B"/>
			<stop  offset="0.1847" style="stop-color:#F59D18"/>
			<stop  offset="0.2913" style="stop-color:#F18E0A"/>
			<stop  offset="0.4187" style="stop-color:#F08602"/>
			<stop  offset="0.6213" style="stop-color:#EF8300"/>
			<stop  offset="1" style="stop-color:#EC6D05"/>
		</linearGradient>
		<path class="st21" d="M573.2,759.2h17.2v72.1h-17.2V759.2z"/>
		<linearGradient id="SVGID_21_" gradientUnits="userSpaceOnUse" x1="303.4279" y1="795.2967" x2="1243.2263" y2="795.2967">
			<stop  offset="0" style="stop-color:#FFCD44"/>
			<stop  offset="3.262098e-03" style="stop-color:#FFCC43"/>
			<stop  offset="9.008177e-02" style="stop-color:#F9B12B"/>
			<stop  offset="0.1847" style="stop-color:#F59D18"/>
			<stop  offset="0.2913" style="stop-color:#F18E0A"/>
			<stop  offset="0.4187" style="stop-color:#F08602"/>
			<stop  offset="0.6213" style="stop-color:#EF8300"/>
			<stop  offset="1" style="stop-color:#EC6D05"/>
		</linearGradient>
		<path class="st22" d="M623.6,805.7h-6.4v25.7h-17.3v-72.1h26.3c18.2,0,25.3,6.4,25.3,20.1v6.4c0,7.2-2.1,13.6-11,17.1l13.8,28.5
			h-18.1L623.6,805.7z M626.7,792c6.5,0,8.3-1.9,8.3-7.5v-3.3c0-5.5-1.7-7.5-8.3-7.5h-9.5V792H626.7z"/>
		<linearGradient id="SVGID_22_" gradientUnits="userSpaceOnUse" x1="303.4279" y1="795.2967" x2="1243.2263" y2="795.2967">
			<stop  offset="0" style="stop-color:#FFCD44"/>
			<stop  offset="3.262098e-03" style="stop-color:#FFCC43"/>
			<stop  offset="9.008177e-02" style="stop-color:#F9B12B"/>
			<stop  offset="0.1847" style="stop-color:#F59D18"/>
			<stop  offset="0.2913" style="stop-color:#F18E0A"/>
			<stop  offset="0.4187" style="stop-color:#F08602"/>
			<stop  offset="0.6213" style="stop-color:#EF8300"/>
			<stop  offset="1" style="stop-color:#EC6D05"/>
		</linearGradient>
		<path class="st23" d="M660.5,759.2h17.2v72.1h-17.2V759.2z"/>
		<linearGradient id="SVGID_23_" gradientUnits="userSpaceOnUse" x1="303.4279" y1="795.2967" x2="1243.2263" y2="795.2967">
			<stop  offset="0" style="stop-color:#FFCD44"/>
			<stop  offset="3.262098e-03" style="stop-color:#FFCC43"/>
			<stop  offset="9.008177e-02" style="stop-color:#F9B12B"/>
			<stop  offset="0.1847" style="stop-color:#F59D18"/>
			<stop  offset="0.2913" style="stop-color:#F18E0A"/>
			<stop  offset="0.4187" style="stop-color:#F08602"/>
			<stop  offset="0.6213" style="stop-color:#EF8300"/>
			<stop  offset="1" style="stop-color:#EC6D05"/>
		</linearGradient>
		<path class="st24" d="M702.2,774.2h-18v-15h53.3v15h-18v57.1h-17.3V774.2z"/>
		<linearGradient id="SVGID_24_" gradientUnits="userSpaceOnUse" x1="303.4279" y1="795.2967" x2="1243.2263" y2="795.2967">
			<stop  offset="0" style="stop-color:#FFCD44"/>
			<stop  offset="3.262098e-03" style="stop-color:#FFCC43"/>
			<stop  offset="9.008177e-02" style="stop-color:#F9B12B"/>
			<stop  offset="0.1847" style="stop-color:#F59D18"/>
			<stop  offset="0.2913" style="stop-color:#F18E0A"/>
			<stop  offset="0.4187" style="stop-color:#F08602"/>
			<stop  offset="0.6213" style="stop-color:#EF8300"/>
			<stop  offset="1" style="stop-color:#EC6D05"/>
		</linearGradient>
		<path class="st25" d="M842.2,810.4l16.3-2.3c1.2,8.3,4,10.2,10.9,10.2c8.4,0,10.6-2.5,10.6-8.3c0-5.1-3-6.3-11.2-8.5
			c-13.6-3.4-24.9-6.2-24.9-21.7c0-12.4,6.1-21.4,25.7-21.4c19.6,0,24.8,8.9,25.9,21.3l-16.6,2.2c-0.6-7.7-3.1-9-9.2-9
			c-6.2,0-9.1,1.3-9.1,6.4c0,5.3,4.5,6.2,12.7,8.1c13.5,3.3,23.4,6.2,23.4,21.6c0,13.9-5.7,23.3-27.3,23.3
			C849.6,832.2,843.7,823.9,842.2,810.4z"/>
		<linearGradient id="SVGID_25_" gradientUnits="userSpaceOnUse" x1="303.4279" y1="795.2967" x2="1243.2263" y2="795.2967">
			<stop  offset="0" style="stop-color:#FFCD44"/>
			<stop  offset="3.262098e-03" style="stop-color:#FFCC43"/>
			<stop  offset="9.008177e-02" style="stop-color:#F9B12B"/>
			<stop  offset="0.1847" style="stop-color:#F59D18"/>
			<stop  offset="0.2913" style="stop-color:#F18E0A"/>
			<stop  offset="0.4187" style="stop-color:#F08602"/>
			<stop  offset="0.6213" style="stop-color:#EF8300"/>
			<stop  offset="1" style="stop-color:#EC6D05"/>
		</linearGradient>
		<path class="st26" d="M902.3,807.6V783c0-16.9,11.2-24.6,27.8-24.6s27.7,7.7,27.7,24.6v24.6c0,16.8-11.1,24.6-27.7,24.6
			C913.4,832.2,902.3,824.4,902.3,807.6z M940.6,806v-20.9c0-8-2.5-11.8-10.5-11.8c-8.1,0-10.5,3.8-10.5,11.8V806
			c0,7.9,2.4,11.8,10.5,11.8C938.1,817.8,940.6,813.9,940.6,806z"/>
		<linearGradient id="SVGID_26_" gradientUnits="userSpaceOnUse" x1="303.4279" y1="795.2967" x2="1243.2263" y2="795.2967">
			<stop  offset="0" style="stop-color:#FFCD44"/>
			<stop  offset="3.262098e-03" style="stop-color:#FFCC43"/>
			<stop  offset="9.008177e-02" style="stop-color:#F9B12B"/>
			<stop  offset="0.1847" style="stop-color:#F59D18"/>
			<stop  offset="0.2913" style="stop-color:#F18E0A"/>
			<stop  offset="0.4187" style="stop-color:#F08602"/>
			<stop  offset="0.6213" style="stop-color:#EF8300"/>
			<stop  offset="1" style="stop-color:#EC6D05"/>
		</linearGradient>
		<path class="st27" d="M965.5,759.2h17.3v57.7h26.1l2.8,14.4h-46.2V759.2z"/>
		<linearGradient id="SVGID_27_" gradientUnits="userSpaceOnUse" x1="303.4279" y1="795.2967" x2="1243.2263" y2="795.2967">
			<stop  offset="0" style="stop-color:#FFCD44"/>
			<stop  offset="3.262098e-03" style="stop-color:#FFCC43"/>
			<stop  offset="9.008177e-02" style="stop-color:#F9B12B"/>
			<stop  offset="0.1847" style="stop-color:#F59D18"/>
			<stop  offset="0.2913" style="stop-color:#F18E0A"/>
			<stop  offset="0.4187" style="stop-color:#F08602"/>
			<stop  offset="0.6213" style="stop-color:#EF8300"/>
			<stop  offset="1" style="stop-color:#EC6D05"/>
		</linearGradient>
		<path class="st28" d="M1018.6,759.2h17.2v72.1h-17.2V759.2z"/>
		<linearGradient id="SVGID_28_" gradientUnits="userSpaceOnUse" x1="303.4279" y1="795.2967" x2="1243.2263" y2="795.2967">
			<stop  offset="0" style="stop-color:#FFCD44"/>
			<stop  offset="3.262098e-03" style="stop-color:#FFCC43"/>
			<stop  offset="9.008177e-02" style="stop-color:#F9B12B"/>
			<stop  offset="0.1847" style="stop-color:#F59D18"/>
			<stop  offset="0.2913" style="stop-color:#F18E0A"/>
			<stop  offset="0.4187" style="stop-color:#F08602"/>
			<stop  offset="0.6213" style="stop-color:#EF8300"/>
			<stop  offset="1" style="stop-color:#EC6D05"/>
		</linearGradient>
		<path class="st29" d="M1045.2,759.2h26c16.6,0,27.1,7.1,27.1,24v24c0,16.8-10.5,24-27.1,24h-26V759.2z M1071.2,817.2
			c8.1,0,9.9-3.4,9.9-11.3v-20.9c0-8-1.8-11.2-9.9-11.2h-8.7v43.3H1071.2z"/>
		<linearGradient id="SVGID_29_" gradientUnits="userSpaceOnUse" x1="303.4279" y1="795.2967" x2="1243.2263" y2="795.2967">
			<stop  offset="0" style="stop-color:#FFCD44"/>
			<stop  offset="3.262098e-03" style="stop-color:#FFCC43"/>
			<stop  offset="9.008177e-02" style="stop-color:#F9B12B"/>
			<stop  offset="0.1847" style="stop-color:#F59D18"/>
			<stop  offset="0.2913" style="stop-color:#F18E0A"/>
			<stop  offset="0.4187" style="stop-color:#F08602"/>
			<stop  offset="0.6213" style="stop-color:#EF8300"/>
			<stop  offset="1" style="stop-color:#EC6D05"/>
		</linearGradient>
		<path class="st30" d="M1106.5,759.2h17.2v72.1h-17.2V759.2z"/>
		<linearGradient id="SVGID_30_" gradientUnits="userSpaceOnUse" x1="303.4279" y1="795.2967" x2="1243.2263" y2="795.2967">
			<stop  offset="0" style="stop-color:#FFCD44"/>
			<stop  offset="3.262098e-03" style="stop-color:#FFCC43"/>
			<stop  offset="9.008177e-02" style="stop-color:#F9B12B"/>
			<stop  offset="0.1847" style="stop-color:#F59D18"/>
			<stop  offset="0.2913" style="stop-color:#F18E0A"/>
			<stop  offset="0.4187" style="stop-color:#F08602"/>
			<stop  offset="0.6213" style="stop-color:#EF8300"/>
			<stop  offset="1" style="stop-color:#EC6D05"/>
		</linearGradient>
		<path class="st31" d="M1133.1,759.2h46.2l-2.8,15h-26.1v12.7h18.8v15.2h-18.8v29.2h-17.3V759.2z"/>
		<linearGradient id="SVGID_31_" gradientUnits="userSpaceOnUse" x1="303.4279" y1="795.2967" x2="1243.2263" y2="795.2967">
			<stop  offset="0" style="stop-color:#FFCD44"/>
			<stop  offset="3.262098e-03" style="stop-color:#FFCC43"/>
			<stop  offset="9.008177e-02" style="stop-color:#F9B12B"/>
			<stop  offset="0.1847" style="stop-color:#F59D18"/>
			<stop  offset="0.2913" style="stop-color:#F18E0A"/>
			<stop  offset="0.4187" style="stop-color:#F08602"/>
			<stop  offset="0.6213" style="stop-color:#EF8300"/>
			<stop  offset="1" style="stop-color:#EC6D05"/>
		</linearGradient>
		<path class="st32" d="M1204.7,802.8l-21.2-43.6h17.9l12.3,27.1h0.2l12.6-27.1h16.7l-21.2,43.6v28.6h-17.4V802.8z"/>
		<g>
			<linearGradient id="SVGID_32_" gradientUnits="userSpaceOnUse" x1="303.4279" y1="795.663" x2="1243.2263" y2="795.663">
				<stop  offset="0" style="stop-color:#FFCD44"/>
				<stop  offset="3.262098e-03" style="stop-color:#FFCC43"/>
				<stop  offset="9.008177e-02" style="stop-color:#F9B12B"/>
				<stop  offset="0.1847" style="stop-color:#F59D18"/>
				<stop  offset="0.2913" style="stop-color:#F18E0A"/>
				<stop  offset="0.4187" style="stop-color:#F08602"/>
				<stop  offset="0.6213" style="stop-color:#EF8300"/>
				<stop  offset="1" style="stop-color:#EC6D05"/>
			</linearGradient>
			<path class="st33" d="M771.5,787.9c-2.3-5-3.5-9.4-3.5-13c0-4.4,2-8.2,6-11.6c4-3.4,9.6-5,16.7-5c2.7,0,6.3,0.4,11,1.2v12.8
				c-2.4-1-4.6-1.5-6.4-1.5c-2.1,0-3.8,0.5-5.1,1.5c-1.3,1-2,2.3-2,3.9c0,1.8,0.6,3.7,1.8,5.7l11.7,18.7c-0.1-1-0.1-1.8-0.1-2.1
				l0.1-6.5v-4.1h17.7v1.3c0,4.2-0.8,8.8-2.4,13.8s-4,9.3-7.1,12.6l9.5,16.2h-20.7l-2.7-4.3c-4.9,3.6-10.3,5.5-16.1,5.5
				c-7.1,0-13.1-2.1-18-6.4c-4.9-4.3-7.3-9.4-7.3-15.5C754.6,802.5,760.3,794.8,771.5,787.9z M778.3,799.7c-2.3,3-3.4,6-3.4,8.8
				c0,2.8,1,5.2,3,7.2c2,1.9,4.4,2.9,7.2,2.9c1.1,0,2.4-0.2,3.8-0.7L778.3,799.7z"/>
		</g>
	</g>
</g>
<text transform="matrix(1 0 0 1 1577.6094 -130.5254)" class="st1" style="font-family:'FontAwesome'; font-size:86px;"></text>
</svg>
